<?xml version="1.0" standalone="no"?>
<!DOCTYPE svg PUBLIC "-//W3C//DTD SVG 1.1//EN" "http://www.w3.org/Graphics/SVG/1.1/DTD/svg11.dtd" >
<svg>
<metadata>
Created by FontForge 20090914 at Sat Mar 14 14:21:50 2020
 By www-data
Copyright 2016 Samsung Electronics Co., Ltd. All Rights Reserved.
</metadata>
<defs>
<font id="SamsungOne-700" horiz-adv-x="0" >
  <font-face 
    font-family="SamsungOne 700"
    font-weight="700"
    font-stretch="normal"
    units-per-em="1024"
    panose-1="2 11 8 3 3 3 3 2 2 4"
    ascent="794"
    descent="-230"
    x-height="543"
    cap-height="724"
    bbox="-692 -304 2471 1047"
    underline-thickness="38"
    underline-position="-102"
    unicode-range="U+0002-U+1F16B"
  />
<missing-glyph horiz-adv-x="693" 
d="M609 0h-525v724h525v-724zM509 632h-281l281 -463v463zM184 92h281l-281 463v-463z" />
    <glyph glyph-name="fi" unicode="fi" horiz-adv-x="647" 
d="M95 441h-85.001v102h86v48c0 61.333 18.333 108.833 55 142.5s88.334 50.5 155.001 50.5c22 0 41.333 -1.66699 58 -5v-103c-18 2.66699 -37.333 4 -58 4c-62 0 -93 -29.667 -93 -89v-48h132v-102h-132v-441h-118v441zM448.999 543h118v-543h-118v543zM454.499 640
c-13 12.667 -19.5 29.667 -19.5 51c0 22.667 6.33301 40.167 19 52.5s30.667 18.5 54 18.5c22.667 0 40.5 -6.33301 53.5 -19s19.5 -29.667 19.5 -51c0 -22.667 -6.33301 -40.167 -19 -52.5s-30.667 -18.5 -54 -18.5c-22.667 0 -40.5 6.33301 -53.5 19z" />
    <glyph glyph-name="fl" unicode="fl" horiz-adv-x="689" 
d="M95 441h-85.001v102h86v48c0 61.333 18.333 108.833 55 142.5s88.334 50.5 155.001 50.5c22 0 41.333 -1.66699 58 -5v-103c-18 2.66699 -37.333 4 -58 4c-62 0 -93 -29.667 -93 -89v-48h132v-102h-132v-441h-118v441zM444.999 131v639.001h118v-617
c0 -18.667 4 -32.334 12 -41.001s20.667 -13 38 -13c10 0 22.333 1 37 3l8 -100c-24 -6 -49.333 -9 -76 -9c-91.333 0 -137 46 -137 138z" />
    <glyph glyph-name=".notdef" horiz-adv-x="693" 
d="M609 0h-525v724h525v-724zM509 632h-281l281 -463v463zM184 92h281l-281 463v-463z" />
    <glyph glyph-name="uni0000" 
 />
    <glyph glyph-name="uni0002" 
 />
    <glyph glyph-name="uni0008" horiz-adv-x="260" 
 />
    <glyph glyph-name="uni0009" unicode="&#x9;" horiz-adv-x="512" 
 />
    <glyph glyph-name="nonmarkingreturn" unicode="&#xd;" 
 />
    <glyph glyph-name="uni001D" horiz-adv-x="212" 
 />
    <glyph glyph-name="space" unicode=" " horiz-adv-x="212" 
 />
    <glyph glyph-name="exclam" unicode="!" horiz-adv-x="359" 
d="M113 724h132l-19 -512h-94zM123 6.5c-13.333 13 -20 30.833 -20 53.5c0 23.333 6.66699 41.5 20 54.5s32 19.5 56 19.5s42.667 -6.5 56 -19.5s20 -30.833 20 -53.5c0 -23.333 -6.66699 -41.5 -20 -54.5s-32 -19.5 -56 -19.5s-42.667 6.5 -56 19.5z" />
    <glyph glyph-name="quotedbl" unicode="&#x22;" horiz-adv-x="385" 
d="M218 724h113l-20 -260h-73zM54 724h113l-20 -260h-73z" />
    <glyph glyph-name="numbersign" unicode="#" horiz-adv-x="690" 
d="M520 451l-29 -178h128v-85h-142l-31 -188h-96l31 188h-128l-31 -188h-95l31 188h-131v85h145l29 178h-132v85h146l31 188h96l-31 -188h128l31 188h95l-31 -188h129v-85h-143zM425 451h-128l-30 -178h128z" />
    <glyph glyph-name="dollar" unicode="$" horiz-adv-x="554" 
d="M457 75.5c-32.667 -35.667 -79.333 -57.5 -140 -65.5v-95h-82v92c-36 2 -70.833 8 -104.5 18s-64.167 23.333 -91.5 40l37 92c52.667 -28.667 106 -45 160 -49l1 208l-22 6c-58 16 -100.5 39.167 -127.5 69.5s-40.5 70.833 -40.5 121.5c0 58.667 16.333 105.5 49 140.5
s79 55.833 139 62.5v93h82v-93c58 -5.33301 114.667 -19.333 170 -42l-37 -92c-52.667 18 -97.334 29 -134.001 33l-1 -200l23 -6c58.667 -16 101.334 -39.167 128.001 -69.5s40 -71.166 40 -122.499c0 -58.667 -16.333 -105.834 -49 -141.501zM177.001 474
c12 -14.667 32 -26.666 60 -35.999l-1 177c-26.667 -4 -46.167 -12.833 -58.5 -26.5s-18.5 -32.834 -18.5 -57.501c0 -23.333 6 -42.333 18 -57zM375.001 140.001c12.667 14.667 18.999 34.666 18.999 59.999c0 24 -6 43.333 -18 58s-32.333 26.667 -61 36l1 -183
c26.667 4.66699 46.334 14.334 59.001 29.001z" />
    <glyph glyph-name="percent" unicode="%" horiz-adv-x="944" 
d="M51 514c0 148.667 54 223 162 223c108.667 0 163 -74.333 163 -223c0 -148 -54.333 -222 -163 -222c-108 0 -162 74 -162 222zM599 724h100l-353 -724h-101zM261 408c10 22 15 57.333 15 106s-5 84.167 -15 106.5s-26 33.5 -48 33.5c-21.333 0 -37 -11.167 -47 -33.5
s-15 -57.833 -15 -106.5s5 -84 15 -106s25.667 -33 47 -33c22 0 38 11 48 33zM568 210c0 148 54.333 222 163 222s163 -74 163 -222c0 -148.667 -54.333 -223 -163 -223s-163 74.333 -163 223zM779 103.5c10 22.333 15 57.833 15 106.5s-5 84 -15 106s-26 33 -48 33
s-38 -11 -48 -33s-15 -57.333 -15 -106s5 -84.167 15 -106.5s26 -33.5 48 -33.5s38 11.167 48 33.5z" />
    <glyph glyph-name="ampersand" unicode="&#x26;" horiz-adv-x="661" 
d="M552 -16l-80 89.0039c-26.667 -29.333 -57 -51 -91 -65s-72.667 -21 -116 -21c-67.333 0 -119.5 15.667 -156.5 47s-55.5 75.666 -55.5 132.999c0 35.333 7.33301 66.166 22 92.499s38.667 52.166 72 77.499l53 41l-30 33c-24.667 28 -42 53.5 -52 76.5
s-15 48.5 -15 76.5c0 55.333 17.333 98 52 128s84 45 148 45c62 0 110.167 -14.167 144.5 -42.5s51.5 -67.833 51.5 -118.5c0 -33.333 -8.5 -63.333 -25.5 -90s-46.833 -56.334 -89.5 -89.001l-32 -24l108 -122l57 124h113l-84 -185l-11 -23l99 -111zM288 445.004
l33.999 26.001c26.667 20.667 44.334 37.167 53.001 49.5s13 27.166 13 44.499c0 23.333 -7 40.833 -21 52.5s-35.333 17.5 -64 17.5c-56 0 -84 -23.333 -84 -70c0 -16.667 4.16699 -32.667 12.5 -48s24.5 -36.333 48.5 -63zM402.999 150.005l-138 154.999l-35 -27
c-20 -16 -34.167 -31.167 -42.5 -45.5s-12.5 -31.166 -12.5 -50.499c0 -58.667 34.333 -88 103 -88c52 0 93.667 18.667 125 56z" />
    <glyph glyph-name="quotesingle" unicode="'" horiz-adv-x="221" 
d="M54 724h113l-20 -260h-73z" />
    <glyph glyph-name="parenleft" unicode="(" horiz-adv-x="334" 
d="M91 97.5c-27.333 78.333 -41 159.498 -41 243.498s13.667 165.5 41 244.5s68 153.5 122 223.5l82 -61c-87.333 -115.333 -131 -250.666 -131 -405.999s43.667 -290.666 131 -405.999l-82 -61c-54 70 -94.667 144.167 -122 222.5z" />
    <glyph glyph-name="parenright" unicode=")" horiz-adv-x="334" 
d="M39 -64c87.333 115.333 131 250.668 131 406.001s-43.667 290.666 -131 405.999l82 61c54 -70 94.667 -144.5 122 -223.5s41 -160.5 41 -244.5s-13.667 -165.167 -41 -243.5s-68 -152.5 -122 -222.5z" />
    <glyph glyph-name="asterisk" unicode="*" horiz-adv-x="539" 
d="M334 487l99 -122l-78 -63l-85 134l-86 -134l-78 63l99 123l-151 39l32 96l143 -57l-10 158h101l-10 -158l143 57l32 -96z" />
    <glyph glyph-name="plus" unicode="+" horiz-adv-x="577" 
d="M532 316h-189v-207h-109v207h-189v105h189v207h109v-207h189v-105z" />
    <glyph glyph-name="comma" unicode="," horiz-adv-x="245" 
d="M2 -131c26 28 44.5 55.501 55.5 82.501s16.5 59.167 16.5 96.5c0 24 -2 48.333 -6 73h117c4 -22.667 6 -46.667 6 -72c0 -46 -11.167 -87.833 -33.5 -125.5s-57.5 -73.834 -105.5 -108.501z" />
    <glyph glyph-name="hyphen" unicode="-" horiz-adv-x="411" 
d="M44 347h323v-94h-323v94z" />
    <glyph glyph-name="period" unicode="." horiz-adv-x="260" 
d="M74 6.5c-13.333 13 -20 30.833 -20 53.5c0 23.333 6.66699 41.5 20 54.5s32 19.5 56 19.5s42.667 -6.5 56 -19.5s20 -30.833 20 -53.5c0 -23.333 -6.66699 -41.5 -20 -54.5s-32 -19.5 -56 -19.5s-42.667 6.5 -56 19.5z" />
    <glyph glyph-name="slash" unicode="/" horiz-adv-x="451" 
d="M341 746h98l-324 -832h-98z" />
    <glyph glyph-name="zero" unicode="0" horiz-adv-x="626" 
d="M123.5 78c-41.667 60.667 -62.498 155.334 -62.498 284.001c0 129.333 20.667 224.166 62 284.499s104.333 90.5 189 90.5c85.333 0 148.833 -30.167 190.5 -90.5s62.5 -155.166 62.5 -284.499c0 -128.667 -20.833 -223.334 -62.5 -284.001s-104.834 -91 -189.501 -91
s-147.834 30.333 -189.501 91zM412.002 157.5c20.667 43 31.001 111.167 31.001 204.5s-10.5 161.5 -31.5 204.5s-54.167 64.5 -99.5 64.5c-44.667 0 -77.334 -21.5 -98.001 -64.5s-31 -111.167 -31 -204.5s10.333 -161.5 31 -204.5s53.667 -64.5 99 -64.5
s78.333 21.5 99 64.5z" />
    <glyph glyph-name="one" unicode="1" horiz-adv-x="469" 
d="M338 724v-724h-119v601l-158 -55l-34 98l208 80h103z" />
    <glyph glyph-name="two" unicode="2" horiz-adv-x="535" 
d="M483 104l-0.000976562 -104.001h-450v105l242 280c31.333 36.667 53 65.5 65 86.5s18 41.5 18 61.5c0 29.333 -10 52.5 -30 69.5s-47.333 25.5 -82 25.5c-27.333 0 -55.333 -4.66699 -84 -14s-56 -22.666 -82 -39.999l-54 91c29.333 21.333 65 38.666 107 51.999
s83 20 123 20c44 0 82.833 -8.16699 116.5 -24.5s59.667 -39.166 78 -68.499s27.5 -63.333 27.5 -102c0 -34.667 -8.66699 -69 -26 -103s-46.666 -74.333 -87.999 -121l-190 -214h309z" />
    <glyph glyph-name="three" unicode="3" horiz-adv-x="564" 
d="M452 377c34 -40 50.999 -90.001 50.999 -150.001c0 -47.333 -10.5 -89.166 -31.5 -125.499s-50.833 -64.5 -89.5 -84.5s-83.667 -30 -135 -30c-40 0 -80 5.83301 -120 17.5s-73.667 27.167 -101 46.5l45 98c29.333 -16.667 59.333 -29.5 90 -38.5
s59.334 -13.5 86.001 -13.5c42.667 0 75.667 11.333 99 34s35 54.667 35 96c0 38.667 -11.167 69 -33.5 91s-53.166 33 -92.499 33c-20.667 0 -42.334 -2.66699 -65.001 -8l-46 59l206 218h-307v104h437v-104l-166 -172c58 -7.33301 104 -31 138 -71z" />
    <glyph glyph-name="four" unicode="4" horiz-adv-x="583" 
d="M541 245v-102h-88v-143h-116v143h-315v102l264 479h167v-479h88zM337 245v371l-192 -371h192z" />
    <glyph glyph-name="five" unicode="5" horiz-adv-x="556" 
d="M390.5 438c34.333 -19.333 61 -46.6699 80 -82.0029s28.5 -76 28.5 -122c0 -49.333 -10.667 -92.666 -32 -129.999s-51.333 -66.166 -90 -86.499s-83.667 -30.5 -135 -30.5c-38.667 0 -76.834 5.5 -114.501 16.5s-68.834 25.5 -93.501 43.5l44 97
c27.333 -15.333 55.333 -27.166 84 -35.499s55.334 -12.5 80.001 -12.5c42.667 0 75.834 12 99.501 36s35.5 57 35.5 99c0 40.667 -10.833 72.167 -32.5 94.5s-52.167 33.5 -91.5 33.5c-18.667 0 -38 -2.5 -58 -7.5s-38.667 -12.167 -56 -21.5l-73 39l19 355h381v-104h-275
l-14 -168c31.333 10 62.333 15 93 15c46 0 86.167 -9.66699 120.5 -29z" />
    <glyph glyph-name="six" unicode="6" horiz-adv-x="569" 
d="M430 433c32.667 -19.333 57.8311 -46.499 75.498 -81.499s26.5 -75.5 26.5 -121.5c0 -48 -10 -90.5 -30 -127.5s-48.167 -65.5 -84.5 -85.5s-78.5 -30 -126.5 -30c-49.333 0 -92.5 10.333 -129.5 31s-65.667 50 -86 88s-30.5 82 -30.5 132c0 56 10.333 108.167 31 156.5
s56.334 103.166 107.001 164.499l148 178l93 -72l-149 -170c-17.333 -20 -30 -35 -38 -45c25.333 8 52 12 80 12c42.667 0 80.334 -9.66699 113.001 -29zM378.997 127.001c21.333 24 32.002 57.332 32.002 99.999c0 44 -11.333 78.333 -34 103s-54 37 -94 37
c-32.667 0 -64.667 -7.33301 -96 -22c-14.667 -31.333 -22 -66.666 -22 -105.999c0 -46.667 11.167 -83 33.5 -109s53.166 -39 92.499 -39c37.333 0 66.666 12 87.999 36z" />
    <glyph glyph-name="seven" unicode="7" horiz-adv-x="497" 
d="M469 724v-104l-280 -630l-112 46l268 584h-333v104h457z" />
    <glyph glyph-name="eight" unicode="8" horiz-adv-x="589" 
d="M162.5 12c-37.667 16.667 -66.666 40.333 -86.999 71s-30.5 66 -30.5 106s13.5 77.167 40.5 111.5s62.833 59.833 107.5 76.5c-36 12.667 -65.167 35 -87.5 67s-33.5 67 -33.5 105c0 37.333 9.16699 70.166 27.5 98.499s44.166 50.333 77.499 66s72.333 23.5 117 23.5
s83.834 -7.83301 117.501 -23.5s59.667 -37.667 78 -66s27.5 -61.166 27.5 -98.499c0 -38 -11.167 -72.5 -33.5 -103.5s-51.833 -52.833 -88.5 -65.5c44.667 -13.333 80.667 -37.166 108 -71.499s41 -73.5 41 -117.5c0 -40.667 -10.333 -76.334 -31 -107.001
s-49.834 -54.5 -87.501 -71.5s-81.5 -25.5 -131.5 -25.5s-93.833 8.33301 -131.5 25zM372.501 468.999c17.667 20 26.501 42.999 26.501 68.999c0 30.667 -9.33301 54.834 -28 72.501s-44.334 26.5 -77.001 26.5s-58.167 -8.66699 -76.5 -26s-27.5 -41.333 -27.5 -72
c0 -25.333 9.66699 -48.333 29 -69s46 -36.667 80 -48c31.333 11.333 55.833 27 73.5 47zM390.002 117.498c23.333 19.667 34.999 46.166 34.999 79.499c0 28 -12 54.167 -36 78.5s-57 44.166 -99 59.499c-39.333 -13.333 -70.166 -32.166 -92.499 -56.499
s-33.5 -51.166 -33.5 -80.499c0 -34 11.5 -60.833 34.5 -80.5s54.833 -29.5 95.5 -29.5s72.667 9.83301 96 29.5z" />
    <glyph glyph-name="nine" unicode="9" horiz-adv-x="569" 
d="M407.5 706c37 -20.667 65.6709 -50.001 86.0039 -88.001s30.5 -82 30.5 -132c0 -56 -10.333 -108.167 -31 -156.5s-56.334 -103.166 -107.001 -164.499l-148 -178l-93 72l149 170c17.333 20 30 35 38 45c-24.667 -8 -51.334 -12 -80.001 -12
c-42.667 0 -80.334 9.66699 -113.001 29s-57.834 46.5 -75.501 81.5s-26.5 75.5 -26.5 121.5c0 48 10 90.5 30 127.5s48.167 65.5 84.5 85.5s78.5 30 126.5 30c49.333 0 92.5 -10.333 129.5 -31zM192.004 393.999c22.667 -24.667 53.998 -36.999 93.998 -36.999
c32.667 0 64.667 7.33301 96 22c14.667 31.333 22 66.666 22 105.999c0 46.667 -11.167 83 -33.5 109s-53.166 39 -92.499 39c-37.333 0 -66.666 -12 -87.999 -36s-32 -57.333 -32 -100c0 -44 11.333 -78.333 34 -103z" />
    <glyph glyph-name="colon" unicode=":" horiz-adv-x="300" 
d="M94 341.5c-13.333 13 -20 30.833 -20 53.5c0 23.333 6.66699 41.5 20 54.5s32 19.5 56 19.5s42.667 -6.5 56 -19.5s20 -30.833 20 -53.5c0 -23.333 -6.66699 -41.5 -20 -54.5s-32 -19.5 -56 -19.5s-42.667 6.5 -56 19.5zM94 6.5c-13.333 13 -20 30.833 -20 53.5
c0 23.333 6.66699 41.5 20 54.5s32 19.5 56 19.5s42.667 -6.5 56 -19.5s20 -30.833 20 -53.5c0 -23.333 -6.66699 -41.5 -20 -54.5s-32 -19.5 -56 -19.5s-42.667 6.5 -56 19.5z" />
    <glyph glyph-name="semicolon" unicode=";" horiz-adv-x="300" 
d="M94 341.5c-13.333 13 -20 30.833 -20 53.5c0 23.333 6.66699 41.5 20 54.5s32 19.5 56 19.5s42.667 -6.5 56 -19.5s20 -30.833 20 -53.5c0 -23.333 -6.66699 -41.5 -20 -54.5s-32 -19.5 -56 -19.5s-42.667 6.5 -56 19.5zM27 -131c26 28 44.5 55.501 55.5 82.501
s16.5 59.167 16.5 96.5c0 24 -2 48.333 -6 73h117c4 -22.667 6 -46.667 6 -72c0 -46 -11.167 -87.833 -33.5 -125.5s-57.5 -73.834 -105.5 -108.501z" />
    <glyph glyph-name="less" unicode="&#x3c;" horiz-adv-x="433" 
d="M39 365l269 299l86 -80l-202 -219l202 -219l-86 -80z" />
    <glyph glyph-name="equal" unicode="=" horiz-adv-x="577" 
d="M68 536h441v-107h-441v107zM68 301h441v-107h-441v107z" />
    <glyph glyph-name="greater" unicode="&#x3e;" horiz-adv-x="433" 
d="M39 146l202 219l-202 219l86 80l269 -299l-269 -299z" />
    <glyph glyph-name="question" unicode="?" horiz-adv-x="520" 
d="M173 265c0 39.333 7.33301 71.832 22 97.499s41.334 53.834 80.001 84.501c27.333 21.333 45.666 38.833 54.999 52.5s14 29.5 14 47.5c0 52.667 -32.333 79 -97 79c-48 0 -100.667 -16.667 -158 -50l-47 97c30 20.667 63.667 36.5 101 47.5s75.333 16.5 114 16.5
c66.667 0 118.5 -16.333 155.5 -49s55.5 -78.334 55.5 -137.001c0 -33.333 -7.33301 -62 -22 -86s-41.334 -50.667 -80.001 -80c-33.333 -26 -55.666 -47.167 -66.999 -63.5s-17 -36.166 -17 -59.499c0 -10 1 -26.667 3 -50h-109c-2 25.333 -3 43 -3 53zM175 6.49902
c-13.333 13 -20 30.833 -20 53.5c0 23.333 6.66699 41.5 20 54.5s32 19.5 56 19.5s42.667 -6.5 56 -19.5s20 -30.833 20 -53.5c0 -23.333 -6.66699 -41.5 -20 -54.5s-32 -19.5 -56 -19.5s-42.667 6.5 -56 19.5z" />
    <glyph glyph-name="at" unicode="@" horiz-adv-x="811" 
d="M544 513l0.000976562 -202c0 -38.667 15.333 -58 46 -58c24.667 0 43.834 12.667 57.501 38s20.5 60.666 20.5 105.999c0 83.333 -22.5 148 -67.5 194s-108.167 69 -189.5 69c-82 0 -145.667 -26 -191 -78s-68 -125.333 -68 -220c0 -95.333 23.667 -169.166 71 -221.499
s113.666 -78.5 198.999 -78.5c59.333 0 111 12.667 155 38l33 -72c-23.333 -15.333 -51.5 -27.166 -84.5 -35.499s-67.5 -12.5 -103.5 -12.5c-73.333 0 -137 15.833 -191 47.5s-95.5 76.334 -124.5 134.001s-43.5 124.5 -43.5 200.5s14.333 142.833 43 200.5
s69.334 102.334 122.001 134.001s113.667 47.5 183 47.5c68 0 127.833 -14.333 179.5 -43s91.667 -69.334 120 -122.001s42.5 -113.334 42.5 -182.001c0 -65.333 -14.167 -117.833 -42.5 -157.5s-65.833 -59.5 -112.5 -59.5c-38.667 0 -67.334 13.333 -86.001 40
c-22 -30 -56 -45 -102 -45c-48.667 0 -86.5 16.5 -113.5 49.5s-40.5 79.167 -40.5 138.5s14.667 105.166 44 137.499s70.666 48.5 123.999 48.5c44.667 0 84.667 -12 120 -36zM464.001 467c-14 4.66699 -28.334 7 -43.001 7c-54.667 0 -82 -37 -82 -111
c0 -37.333 6.83301 -65.5 20.5 -84.5s33.834 -28.5 60.501 -28.5c14 0 28.667 3.33301 44 10v207z" />
    <glyph glyph-name="A" unicode="A" horiz-adv-x="669" 
d="M470 168h-272l-52 -168h-126l249 724h131l249 -724h-127zM437 273l-104 333l-103 -333h207z" />
    <glyph glyph-name="B" unicode="B" horiz-adv-x="647" 
d="M604 214c0 -68 -20.332 -120.666 -60.999 -157.999s-97.667 -56 -171 -56h-288v724h254c71.333 0 126.666 -17.833 165.999 -53.5s59 -85.834 59 -150.501c0 -68.667 -31 -114.667 -93 -138c89.333 -26 134 -82 134 -168zM203.001 617.001v-195h135
c68.667 0 103 32 103 96c0 66 -36.333 99 -109 99h-129zM481.001 212.001c0 71.333 -36.333 107 -109 107h-169v-212h175c68.667 0 103 35 103 105z" />
    <glyph glyph-name="C" unicode="C" horiz-adv-x="602" 
d="M129.5 82c-57.667 62.667 -86.498 150.999 -86.498 264.999c0 79.333 13.167 148.333 39.5 207s64 103.834 113 135.501s106.5 47.5 172.5 47.5c36 0 71.167 -4.83301 105.5 -14.5s64.833 -23.167 91.5 -40.5l-41 -93c-52.667 26 -105.334 39 -158.001 39
c-63.333 0 -112.333 -23.667 -147 -71s-52 -114.333 -52 -201c0 -85.333 17.833 -149.666 53.5 -192.999s88.5 -65 158.5 -65c60 0 110.333 11.667 151 35l41 -91c-21.333 -16.667 -49.5 -29.834 -84.5 -39.501s-72.833 -14.5 -113.5 -14.5
c-104.667 0 -185.834 31.333 -243.501 94z" />
    <glyph glyph-name="D" unicode="D" horiz-adv-x="692" 
d="M555 633c56 -60.667 83.999 -150.667 83.999 -270c0 -120 -28.167 -210.5 -84.5 -271.5s-138.166 -91.5 -245.499 -91.5h-225v724h226c107.333 0 189 -30.333 245 -91zM462.999 171.5c34.667 43 51.999 106.833 51.999 191.5c0 169.333 -69.333 254 -208 254h-103v-510
h104c68.667 0 120.334 21.5 155.001 64.5z" />
    <glyph glyph-name="E" unicode="E" horiz-adv-x="577" 
d="M542 107v-107h-458v724h445v-107h-325v-193h240v-108h-240v-209h338z" />
    <glyph glyph-name="F" unicode="F" horiz-adv-x="539" 
d="M204 617v-211h258v-108h-258v-298h-120v724h438v-107h-318z" />
    <glyph glyph-name="G" unicode="G" horiz-adv-x="668" 
d="M604 405l0.000976562 -363.003c-26.667 -17.333 -58.834 -30.833 -96.501 -40.5s-77.5 -14.5 -119.5 -14.5c-106.667 0 -189.167 32.833 -247.5 98.5s-87.5 157.834 -87.5 276.501s29.167 210.834 87.5 276.501s140.833 98.5 247.5 98.5c40.667 0 79 -4.66699 115 -14
s66.667 -22.666 92 -39.999l-36 -96c-60 28 -117.667 42 -173 42c-139.333 0 -209 -89 -209 -267c0 -178.667 70.333 -268 211 -268c31.333 0 63.333 4.33301 96 13v191h-123v107h243z" />
    <glyph glyph-name="H" unicode="H" horiz-adv-x="703" 
d="M619 724v-724h-120v314h-295v-314h-120v724h120v-303h295v303h120z" />
    <glyph glyph-name="I" unicode="I" horiz-adv-x="291" 
d="M86 724h120v-724h-120v724z" />
    <glyph glyph-name="J" unicode="J" horiz-adv-x="466" 
d="M78.5 1c-29.667 9.33301 -54.832 22.334 -75.499 39.001l43 92c45.333 -24.667 86.666 -37 123.999 -37c65.333 0 98 32.333 98 97v532h120v-539c0 -62.667 -18.667 -111.334 -56 -146.001s-89.666 -52 -156.999 -52c-34.667 0 -66.834 4.66699 -96.501 14z" />
    <glyph glyph-name="K" unicode="K" horiz-adv-x="630" 
d="M286 310l-82 -101v-209h-120v724h120v-360l276 360h143l-260 -320l276 -404h-143z" />
    <glyph glyph-name="L" unicode="L" horiz-adv-x="530" 
d="M504 108v-108h-420v724h120v-616h300z" />
    <glyph glyph-name="M" unicode="M" horiz-adv-x="852" 
d="M768 724v-724h-117v532l-163 -388h-125l-165 391v-535h-114v724h144l198 -469l196 469h146z" />
    <glyph glyph-name="N" unicode="N" horiz-adv-x="725" 
d="M641 724v-724h-115l-324 521v-521h-118v724h115l324 -520v520h118z" />
    <glyph glyph-name="O" unicode="O" horiz-adv-x="715" 
d="M131 81.5c-52 63 -78 156.5 -78 280.5s26 217.5 78 280.5s127.333 94.5 226 94.5s174.167 -31.5 226.5 -94.5s78.5 -156.5 78.5 -280.5s-26.167 -217.5 -78.5 -280.5s-127.833 -94.5 -226.5 -94.5s-174 31.5 -226 94.5zM538 362c0 178.667 -60.333 268 -181 268
c-120 0 -180 -89.333 -180 -268s60 -268 180 -268c120.667 0 181 89.333 181 268z" />
    <glyph glyph-name="P" unicode="P" horiz-adv-x="598" 
d="M521 660.5c41.333 -42.333 62.002 -102.167 62.002 -179.5s-21.333 -137.5 -64 -180.5s-102.334 -64.5 -179.001 -64.5h-136v-236h-120v724h262c75.333 0 133.666 -21.167 174.999 -63.5zM459.002 478.999c0 92 -39.667 138 -119 138h-136v-274h142
c75.333 0 113 45.333 113 136z" />
    <glyph glyph-name="Q" unicode="Q" horiz-adv-x="715" 
d="M597 -161l-138 161c-30 -8.66699 -64 -13 -102 -13c-98.667 0 -174 31.5 -226 94.5s-78 156.5 -78 280.5s26 217.5 78 280.5s127.333 94.5 226 94.5s174.167 -31.5 226.5 -94.5s78.5 -156.5 78.5 -280.5c0 -146.667 -36.667 -250.667 -110 -312l123 -133zM357 94
c120.667 0 181 89.333 181 268s-60.333 268 -181 268c-120 0 -180 -89.333 -180 -268s60 -268 180 -268z" />
    <glyph glyph-name="R" unicode="R" horiz-adv-x="634" 
d="M308 259l-104 -0.00195312v-259h-120v724h253c74.667 0 132.5 -20.333 173.5 -61s61.5 -97.667 61.5 -171c0 -55.333 -12 -101.666 -36 -138.999s-58.667 -63.666 -104 -78.999l182 -274h-144zM204 361.998h133c74 0 111 42.667 111 128s-38.333 128 -115 128h-129v-256z
" />
    <glyph glyph-name="S" unicode="S" horiz-adv-x="563" 
d="M142.5 4.5c-41 11 -77.1699 26.4961 -108.503 46.4961l39 96c63.333 -36 128.333 -54 195 -54c44.667 0 78.334 8.33301 101.001 25s34 41 34 73c0 26.667 -8.16699 48.5 -24.5 65.5s-42.166 30.167 -77.499 39.5l-82 23c-62 17.333 -107 42 -135 74s-42 74.667 -42 128
c0 67.333 21 120 63 158s100.667 57 176 57c36 0 73.167 -4.16699 111.5 -12.5s74.5 -20.166 108.5 -35.499l-40 -96c-68 26 -128.667 39 -182 39c-39.333 0 -69.333 -7.66699 -90 -23s-31 -37.666 -31 -66.999c0 -26.667 8.33301 -48.5 25 -65.5s42.667 -30.167 78 -39.5
l82 -23c62 -17.333 107 -42.166 135 -74.499s42 -75.166 42 -128.499c0 -70 -22.167 -124.5 -66.5 -163.5s-106.166 -58.5 -185.499 -58.5c-42.667 0 -84.5 5.5 -125.5 16.5z" />
    <glyph glyph-name="T" unicode="T" horiz-adv-x="529" 
d="M508 616h-184v-616h-120v616h-183v108h487v-108z" />
    <glyph glyph-name="U" unicode="U" horiz-adv-x="687" 
d="M148 56c-46 46 -69 111 -69 195v473h120v-466c0 -109.333 48 -164 144 -164c96.667 0 145 54.667 145 164v466h120v-473c0 -84 -23.167 -149 -69.5 -195s-111.833 -69 -196.5 -69c-83.333 0 -148 23 -194 69z" />
    <glyph glyph-name="V" unicode="V" horiz-adv-x="633" 
d="M609 724l-227 -724h-131l-227 724h127l167 -596l165 596h126z" />
    <glyph glyph-name="W" unicode="W" horiz-adv-x="897" 
d="M871 724l-176 -724h-131l-117 557l-115 -557h-131l-175 724h124l118 -585l116 584h129l118 -584l117 585h123z" />
    <glyph glyph-name="X" unicode="X" horiz-adv-x="609" 
d="M452 0l-149 268l-148 -268h-134l217 367l-209 357h135l143 -258l145 258h134l-214 -356l216 -368h-136z" />
    <glyph glyph-name="Y" unicode="Y" horiz-adv-x="589" 
d="M573 724l-220 -479v-245h-120v245l-217 479h129l150 -348l150 348h128z" />
    <glyph glyph-name="Z" unicode="Z" horiz-adv-x="554" 
d="M515 106v-106h-478v107l336 511h-323v106h460v-106l-337 -512h342z" />
    <glyph glyph-name="bracketleft" unicode="[" horiz-adv-x="356" 
d="M192 704v-724h142v-91h-250v906h250v-91h-142z" />
    <glyph glyph-name="backslash" unicode="\" horiz-adv-x="451" 
d="M336 -86l-324 832h98l324 -832h-98z" />
    <glyph glyph-name="bracketright" unicode="]" horiz-adv-x="356" 
d="M272 795v-906h-250v91h142v724h-142v91h250z" />
    <glyph glyph-name="asciicircum" unicode="^" horiz-adv-x="446" 
d="M170 724h105l155 -215h-116l-91 139l-92 -139h-115z" />
    <glyph glyph-name="underscore" unicode="_" horiz-adv-x="600" 
d="M84 -62h432v-98h-432v98z" />
    <glyph glyph-name="grave" unicode="`" horiz-adv-x="500" 
d="M107 774v10h125l89 -159v-10h-90z" />
    <glyph glyph-name="a" unicode="a" horiz-adv-x="534" 
d="M408.5 510c36.333 -30.667 54.502 -74.333 54.502 -131v-379h-106v76c-34 -58 -87.667 -87 -161 -87c-52.667 0 -93.334 14.333 -122.001 43s-43 68.667 -43 120c0 64.667 25.167 112.167 75.5 142.5s130.166 45.833 239.499 46.5v25c0 56 -36.333 84 -109 84
c-42.667 0 -85 -9.33301 -127 -28l-30 92c58 28 117 42 177 42c64.667 0 115.167 -15.333 151.5 -46zM346.002 146.001l0.000976562 114c-70 -1.33301 -121 -9.83301 -153 -25.5s-48 -40.167 -48 -73.5c0 -47.333 26.667 -71 80 -71c47.333 0 87.666 18.667 120.999 56z" />
    <glyph glyph-name="b" unicode="b" horiz-adv-x="579" 
d="M483 481c34.667 -50 51.999 -120 51.999 -210s-17.667 -159.833 -53 -209.5s-85 -74.5 -149 -74.5c-31.333 0 -59.833 6.5 -85.5 19.5s-46.5 31.167 -62.5 54.5v-61h-107v770h118v-286c34 48 81 72 141 72c62.667 0 111.334 -25 146.001 -75zM413.999 267
c0 118.667 -38 178 -114 178c-20 0 -38.167 -4 -54.5 -12s-32.833 -21 -49.5 -39v-251c14 -16 30.5 -28.333 49.5 -37s38.833 -13 59.5 -13c72.667 0 109 58 109 174z" />
    <glyph glyph-name="c" unicode="c" horiz-adv-x="482" 
d="M107 61c-44.667 48.667 -66.9971 116.999 -66.9971 204.999c0 58 10.333 108.833 31 152.5s50 77.5 88 101.5s82 36 132 36c29.333 0 58.166 -4.16699 86.499 -12.5s53.166 -20.166 74.499 -35.499l-43 -92c-44.667 21.333 -84.667 32 -120 32
c-40.667 0 -72.167 -15.333 -94.5 -46s-33.5 -73.667 -33.5 -129c0 -118 47 -177 141 -177c37.333 0 75.666 10.333 114.999 31l41 -91c-43.333 -32 -97.333 -48 -162 -48c-81.333 0 -144.333 24.333 -189 73z" />
    <glyph glyph-name="d" unicode="d" horiz-adv-x="579" 
d="M501 770l0.000976562 -770.001h-107v76c-35.333 -59.333 -86 -89 -152 -89c-62.667 0 -111.334 25 -146.001 75s-52 120 -52 210s17.667 159.833 53 209.5s85 74.5 149 74.5c28 0 53.833 -5.16699 77.5 -15.5s43.5 -25.166 59.5 -44.499v274h118zM333.501 109.999
c16.333 8 32.833 21 49.5 39v251c-14 16 -30.5 28.333 -49.5 37s-38.833 13 -59.5 13c-72.667 0 -109 -58 -109 -174c0 -118.667 38 -178 114 -178c20 0 38.167 4 54.5 12z" />
    <glyph glyph-name="e" unicode="e" horiz-adv-x="544" 
d="M501 235h-338.998c9.33301 -93.333 57.666 -140 144.999 -140c47.333 0 91.666 11.667 132.999 35l43 -89c-24.667 -16.667 -53.5 -29.667 -86.5 -39s-66.833 -14 -101.5 -14c-80.667 0 -143 24.833 -187 74.5s-66 119.167 -66 208.5c0 90.667 20.667 160.834 62 210.501
s99.333 74.5 174 74.5c72 0 128 -23 168 -69s60 -110.333 60 -193c0 -20.667 -1.66699 -40.334 -5 -59.001zM162.002 318h226.001c-1.33301 42.667 -11.833 75.667 -31.5 99s-46.834 35 -81.501 35c-66 0 -103.667 -44.667 -113 -134z" />
    <glyph glyph-name="f" unicode="f" horiz-adv-x="369" 
d="M95 441h-85.001v102h86v48c0 61.333 18.333 108.833 55 142.5s88.334 50.5 155.001 50.5c22 0 41.333 -1.66699 58 -5v-103c-18 2.66699 -37.333 4 -58 4c-62 0 -93 -29.667 -93 -89v-48h132v-102h-132v-441h-118v441z" />
    <glyph glyph-name="g" unicode="g" horiz-adv-x="581" 
d="M503 543l-0.00195312 -527.999c0 -74.667 -21.333 -132.5 -64 -173.5s-103 -61.5 -181 -61.5c-30.667 0 -61.167 3.33301 -91.5 10s-57.166 16 -80.499 28l34 95c42.667 -19.333 85 -29 127 -29c92 0 138 43.667 138 131v73c-33.333 -47.333 -80.333 -71 -141 -71
c-63.333 0 -112.5 23.667 -147.5 71s-52.5 113.666 -52.5 198.999s17.833 151.5 53.5 198.5s85.834 70.5 150.501 70.5c31.333 0 59.833 -6.5 85.5 -19.5s46.5 -31.167 62.5 -54.5v61h107zM335.998 139.501c16.667 8.33301 33 21.167 49 38.5v221
c-14 16 -30.5 28.333 -49.5 37s-38.833 13 -59.5 13c-74 0 -111 -53 -111 -159c0 -108.667 38.667 -163 116 -163c20 0 38.333 4.16699 55 12.5z" />
    <glyph glyph-name="h" unicode="h" horiz-adv-x="588" 
d="M472 509.5c28.667 -31 42.999 -74.5 42.999 -130.5v-379h-118v364c0 54 -30 81 -90 81c-20.667 0 -40 -3.33301 -58 -10s-35.667 -17 -53 -31v-404h-118v770h118v-281c42.667 44.667 94 67 154 67c52.667 0 93.334 -15.5 122.001 -46.5z" />
    <glyph glyph-name="i" unicode="i" horiz-adv-x="278" 
d="M80 543h118v-543h-118v543zM85.5 640c-13 12.667 -19.5 29.667 -19.5 51c0 22.667 6.33301 40.167 19 52.5s30.667 18.5 54 18.5c22.667 0 40.5 -6.33301 53.5 -19s19.5 -29.667 19.5 -51c0 -22.667 -6.33301 -40.167 -19 -52.5s-30.667 -18.5 -54 -18.5
c-22.667 0 -40.5 6.33301 -53.5 19z" />
    <glyph glyph-name="j" unicode="j" horiz-adv-x="278" 
d="M-61 -125c38.667 13.333 67.833 26.835 87.5 40.502s33.5 30.5 41.5 50.5s12 46.333 12 79v498h118v-500c0 -50.667 -6.5 -91.834 -19.5 -123.501s-35.167 -58.334 -66.5 -80.001s-76 -42.167 -134 -61.5zM85.499 640.002c-13 12.667 -19.5 29.667 -19.5 51
c0 22.667 6.33301 40.167 19 52.5s30.667 18.5 54 18.5c22.667 0 40.5 -6.33301 53.5 -19s19.5 -29.667 19.5 -51c0 -22.667 -6.33301 -40.167 -19 -52.5s-30.667 -18.5 -54 -18.5c-22.667 0 -40.5 6.33301 -53.5 19z" />
    <glyph glyph-name="k" unicode="k" horiz-adv-x="557" 
d="M259 227l-63 -75v-152h-118v770h118v-470l198 243h137l-196 -228l209 -315h-136z" />
    <glyph glyph-name="l" unicode="l" horiz-adv-x="320" 
d="M76 131v639.001h118v-617c0 -18.667 4 -32.334 12 -41.001s20.667 -13 38 -13c10 0 22.333 1 37 3l8 -100c-24 -6 -49.333 -9 -76 -9c-91.333 0 -137 46 -137 138z" />
    <glyph glyph-name="m" unicode="m" horiz-adv-x="886" 
d="M771 509.5c28 -31 42 -74.499 42 -130.499v-379h-118v364c0 54 -28 81 -84 81c-19.333 0 -37.5 -3.33301 -54.5 -10s-34.5 -17.667 -52.5 -33c0.666992 -4.66699 1 -12.334 1 -23.001v-379h-118v364c0 54 -28 81 -84 81c-36 0 -71.667 -13.667 -107 -41v-404h-118v543
h107v-66c44 52.667 97.667 79 161 79c34 0 63.167 -7.33301 87.5 -22s42.5 -36 54.5 -64c46.667 57.333 102 86 166 86c50 0 89 -15.5 117 -46.5z" />
    <glyph glyph-name="n" unicode="n" horiz-adv-x="586" 
d="M470 509.5c28.667 -31 43 -74.5 43 -130.5v-379h-118v364c0 54 -29.667 81 -89 81c-39.333 0 -76 -13.667 -110 -41v-404h-118v543h107v-66c44 52.667 98.667 79 164 79c52 0 92.333 -15.5 121 -46.5z" />
    <glyph glyph-name="o" unicode="o" horiz-adv-x="561" 
d="M105 59c-40.667 48 -61 118.667 -61 212s20.5 164.166 61.5 212.499s99.5 72.5 175.5 72.5s134.333 -24.167 175 -72.5s61 -119.166 61 -212.499s-20.5 -164 -61.5 -212s-99.5 -72 -175.5 -72s-134.333 24 -175 72zM367 137c19.333 30 29 74.667 29 134
c0 119.333 -38.333 179 -115 179c-77.333 0 -116 -59.667 -116 -179c0 -59.333 9.66699 -104 29 -134s48 -45 86 -45c38.667 0 67.667 15 87 45z" />
    <glyph glyph-name="p" unicode="p" horiz-adv-x="579" 
d="M483 481c34.667 -50 51.999 -119.999 51.999 -209.999s-17.667 -159.833 -53 -209.5s-85 -74.5 -149 -74.5c-28 0 -53.833 5.16699 -77.5 15.5s-43.5 25.166 -59.5 44.499v-254h-118v750h107v-76c35.333 59.333 86 89 152 89c62.667 0 111.334 -25 146.001 -75z
M413.999 267.001c0 118.667 -38 178 -114 178c-20 0 -38.167 -4 -54.5 -12s-32.833 -21 -49.5 -39v-251c14 -16 30.5 -28.333 49.5 -37s38.833 -13 59.5 -13c72.667 0 109 58 109 174z" />
    <glyph glyph-name="q" unicode="q" horiz-adv-x="579" 
d="M501 543l0.000976562 -750h-118v266c-34 -48 -81 -72 -141 -72c-62.667 0 -111.334 25 -146.001 75s-52 120 -52 210s17.667 159.833 53 209.5s85 74.5 149 74.5c31.333 0 59.833 -6.5 85.5 -19.5s46.5 -31.167 62.5 -54.5v61h107zM333.501 110
c16.333 8 32.833 21 49.5 39v251c-14 16 -30.5 28.333 -49.5 37s-38.833 13 -59.5 13c-72.667 0 -109 -58 -109 -174c0 -118.667 38 -178 114 -178c20 0 38.167 4 54.5 12z" />
    <glyph glyph-name="r" unicode="r" horiz-adv-x="404" 
d="M390 541l-23.999 -112c-20 6.66699 -41.667 10 -65 10c-24 0 -44.333 -4.33301 -61 -13s-31.334 -22.667 -44.001 -42v-384h-118v543h107v-83c33.333 62.667 81 94 143 94c23.333 0 44 -4.33301 62 -13z" />
    <glyph glyph-name="s" unicode="s" horiz-adv-x="469" 
d="M116.5 2c-34.333 9.33301 -64.499 22.3359 -90.499 39.0029l41 96c49.333 -30 101.333 -45 156 -45c64 0 96 20 96 60c0 16 -5.5 29 -16.5 39s-28.5 18 -52.5 24l-71 17c-50 11.333 -86.5 29.166 -109.5 53.499s-34.5 57.5 -34.5 99.5c0 53.333 17.5 95 52.5 125
s84.5 45 148.5 45c32 0 64 -4 96 -12s61 -19 87 -33l-45 -95c-46.667 24 -93.334 36 -140.001 36c-57.333 0 -86 -18.333 -86 -55c0 -14.667 5.66699 -26.834 17 -36.501s29 -17.5 53 -23.5l71 -17c50.667 -12 87.334 -30.333 110.001 -55s34 -58.334 34 -101.001
c0 -55.333 -18.333 -98.333 -55 -129s-88.334 -46 -155.001 -46c-36.667 0 -72.167 4.66699 -106.5 14z" />
    <glyph glyph-name="t" unicode="t" horiz-adv-x="398" 
d="M100 169v272h-86v102h86v151h118v-151h152v-102h-152v-252c0 -32 6.5 -55.167 19.5 -69.5s34.167 -21.5 63.5 -21.5c18.667 0 38 2.66699 58 8l18 -100c-30 -9.33301 -61.667 -14 -95 -14c-121.333 0 -182 59 -182 177z" />
    <glyph glyph-name="u" unicode="u" horiz-adv-x="578" 
d="M500 543v-543h-108v73c-40 -57.333 -93.667 -86 -161 -86c-50.667 0 -90 15.333 -118 46s-42 74 -42 130v380h118v-364c0 -54.667 28.667 -82 86 -82c20.667 0 39.5 4 56.5 12s33.833 21 50.5 39v395h118z" />
    <glyph glyph-name="v" unicode="v" horiz-adv-x="525" 
d="M506 543l-179 -543h-128l-180 543h121l124 -424l122 424h120z" />
    <glyph glyph-name="w" unicode="w" horiz-adv-x="788" 
d="M767 543l-152 -543h-127l-95 398l-93 -398h-127l-152 543h120l97 -421l96 421h121l98 -421l95 421h119z" />
    <glyph glyph-name="x" unicode="x" horiz-adv-x="512" 
d="M363 0l-109 185l-107 -185h-128l173 276l-166 267h131l101 -175l105 175h128l-172 -266l174 -277h-130z" />
    <glyph glyph-name="y" unicode="y" horiz-adv-x="521" 
d="M502 543l-172.002 -523.002c-19.333 -59.333 -50.5 -108.166 -93.5 -146.499s-101.167 -69.5 -174.5 -93.5l-40 100c46.667 16.667 83.834 34.334 111.501 53.001s49.834 40.667 66.501 66l-181 544h121l122 -415l120 415h120z" />
    <glyph glyph-name="z" unicode="z" horiz-adv-x="469" 
d="M435 100v-100h-402v100l264 343h-255v100h388v-100l-265 -343h270z" />
    <glyph glyph-name="braceleft" unicode="{" horiz-adv-x="379" 
d="M207.5 -79c-29 18 -49.833 41.666 -62.5 70.999s-19 68 -19 116v109c0 26.667 -9.16699 46.334 -27.5 59.001s-46.5 19.334 -84.5 20.001v92c38 0.666992 66.167 7.33398 84.5 20.001s27.5 32.334 27.5 59.001v110c0 48 6.33301 86.5 19 115.5s33.5 52.5 62.5 70.5
s69.833 33 122.5 45l25 -88c-33.333 -8 -58.5 -17.333 -75.5 -28s-29 -24.834 -36 -42.501s-10.5 -41.834 -10.5 -72.501v-110c0 -68 -28 -109.333 -84 -124c56 -14.667 84 -56.667 84 -126v-109c0 -31.333 3.5 -55.833 10.5 -73.5s19 -31.834 36 -42.501
s42.167 -20 75.5 -28l-25 -88c-52.667 12 -93.5 27 -122.5 45z" />
    <glyph glyph-name="bar" unicode="|" horiz-adv-x="256" 
d="M84 816h88v-1066h-88v1066z" />
    <glyph glyph-name="braceright" unicode="}" horiz-adv-x="379" 
d="M24 -36c33.333 8 58.5 17.334 75.5 28.001s29 24.834 36 42.501s10.5 42.167 10.5 73.5v109c0 69.333 28 111.333 84 126c-56 14.667 -84 56 -84 124v110c0 30.667 -3.5 54.834 -10.5 72.501s-19 31.834 -36 42.501s-42.167 20 -75.5 28l25 88
c52.667 -12 93.5 -27 122.5 -45s49.833 -41.5 62.5 -70.5s19 -67.5 19 -115.5v-110c0 -26.667 9.16699 -46.334 27.5 -59.001s46.5 -19.334 84.5 -20.001v-92c-38 -0.666992 -66.167 -7.33398 -84.5 -20.001s-27.5 -32.334 -27.5 -59.001v-109
c0 -48 -6.33301 -86.667 -19 -116s-33.5 -53 -62.5 -71s-69.833 -33 -122.5 -45z" />
    <glyph glyph-name="asciitilde" unicode="~" horiz-adv-x="577" 
d="M326 286.5c-13.333 5.66699 -29.001 13.834 -47.001 24.501c-14 9.33301 -26.5 16.333 -37.5 21s-23.167 7 -36.5 7c-15.333 0 -30.166 -4.5 -44.499 -13.5s-29.5 -23.167 -45.5 -42.5l-70 71c48.667 60 101 90 157 90c18.667 0 35 -2.83301 49 -8.5
s29.667 -13.834 47 -24.501c14.667 -9.33301 27.167 -16.333 37.5 -21s22.166 -7 35.499 -7c16 0 31.167 4.5 45.5 13.5s29.5 23.167 45.5 42.5l70 -71c-48.667 -60 -101 -90 -157 -90c-19.333 0 -35.666 2.83301 -48.999 8.5z" />
    <glyph glyph-name="uni00A0" unicode="&#xa0;" horiz-adv-x="212" 
 />
    <glyph glyph-name="exclamdown" unicode="&#xa1;" horiz-adv-x="359" 
d="M236 527.5c13.333 -13 20 -30.833 20 -53.5c0 -23.333 -6.66699 -41.5 -20 -54.5s-32 -19.5 -56 -19.5s-42.667 6.5 -56 19.5s-20 30.833 -20 53.5c0 23.333 6.66699 41.5 20 54.5s32 19.5 56 19.5s42.667 -6.5 56 -19.5zM246 -190h-132l19 512h94z" />
    <glyph glyph-name="cent" unicode="&#xa2;" horiz-adv-x="476" 
d="M324 27v-112h-82v115c-64.667 9.33301 -114.5 35.833 -149.5 79.5s-52.5 101.5 -52.5 173.5c0 68.667 18.167 125.834 54.5 171.501s85.5 73.167 147.5 82.5v115h82v-113c46.667 -5.33301 87.334 -19.333 122.001 -42l-42 -88c-24.667 12 -51.334 20.667 -80.001 26v-304
c32 3.33301 61.667 12.666 89 27.999l39 -87c-34 -24.667 -76.667 -39.667 -128 -45zM178.5 186c13.667 -24 34.833 -40.333 63.5 -49v295c-56 -14.667 -84 -63.667 -84 -147c0 -42 6.83301 -75 20.5 -99z" />
    <glyph glyph-name="sterling" unicode="&#xa3;" horiz-adv-x="533" 
d="M245 202.5c-16 -33 -41 -65.168 -75 -96.501h313v-106h-426v105l30 31c24 24.667 41.167 49.5 51.5 74.5s15.5 53.833 15.5 86.5v17h-106v100h81l-15.5 34c-7.66699 16.667 -13.5 33.334 -17.5 50.001s-6 34.667 -6 54c0 58.667 18.167 104.167 54.5 136.5
s87.5 48.5 153.5 48.5c38 0 73.167 -5.33301 105.5 -16s59.5 -26.334 81.5 -47.001l-57 -96c-42.667 32 -86 48 -130 48c-58.667 0 -88 -26.667 -88 -80c0 -14.667 2 -28.667 6 -42s10.333 -30.666 19 -51.999l15 -38h170v-100h-151v-2c0 -40 -8 -76.5 -24 -109.5z" />
    <glyph glyph-name="currency" unicode="&#xa4;" horiz-adv-x="596" 
d="M483 141l69 -86.001l-66 -51l-68 84c-33.333 -17.333 -73.333 -26 -120 -26s-86.667 8.66699 -120 26l-69 -84l-65 51l69 87c-33.333 42.667 -50 99.667 -50 171c0 70.667 16.667 127.334 50 170.001l-69 87l65 51l69 -84c33.333 17.333 73.333 26 120 26
s86.667 -8.66699 120 -26l68 84l66 -51l-69 -86c33.333 -42.667 50 -99.667 50 -171c0 -72 -16.667 -129.333 -50 -172zM386 202.999c20 24.667 30 61.333 30 110c0 97.333 -39.333 146 -118 146s-118 -48.667 -118 -146c0 -98 39.333 -147 118 -147
c38.667 0 68 12.333 88 37z" />
    <glyph glyph-name="yen" unicode="&#xa5;" horiz-adv-x="543" 
d="M363 338h103v-80h-137v-69h137v-81h-137v-108h-118v108h-136v81h136v69h-136v80h103l-162 386h127l131 -360l127 360h126z" />
    <glyph glyph-name="brokenbar" unicode="&#xa6;" horiz-adv-x="256" 
d="M84 816h88v-447h-88v447zM84 198h88v-448h-88v448z" />
    <glyph glyph-name="section" unicode="&#xa7;" horiz-adv-x="534" 
d="M475 -15c0 -62.667 -18.334 -111.333 -55.001 -146s-88.334 -52 -155.001 -52c-34 0 -69.333 4.5 -106 13.5s-70.667 21.833 -102 38.5l41 99c66.667 -30.667 122.334 -46 167.001 -46c64 0 96 28.667 96 86c0 23.333 -6 41.833 -18 55.5s-33.333 24.834 -64 33.501
l-62 17c-55.333 15.333 -95.833 37.666 -121.5 66.999s-38.5 68 -38.5 116c0 54.667 17 102.667 51 144c-30 29.333 -45 70.666 -45 123.999c0 63.333 18.667 112.666 56 147.999s90.333 53 159 53c30.667 0 61.667 -3.5 93 -10.5s60.333 -16.833 87 -29.5l-42 -96
c-53.333 20.667 -100 31 -140 31c-33.333 0 -58.166 -7.16699 -74.499 -21.5s-24.5 -36.166 -24.5 -65.499c0 -24.667 6 -43.667 18 -57s32.667 -24 62 -32l62 -17c54.667 -15.333 94.667 -37.666 120 -66.999s38 -68.333 38 -117c0 -54.667 -16.333 -102 -49 -142
c31.333 -30.667 47 -73 47 -127zM320.999 169.001l12.5 -4l13.5 -4c14.667 21.333 22 46 22 74c0 26.667 -6.83301 47.5 -20.5 62.5s-37.167 27.5 -70.5 37.5l-62 18l-28 9c-15.333 -21.333 -23 -46 -23 -74c0 -26.667 7.16699 -47.667 21.5 -63s38.5 -28 72.5 -38z" />
    <glyph glyph-name="dieresis" unicode="&#xa8;" horiz-adv-x="500" 
d="M105.5 642.5c-11.667 11.667 -17.5 27.501 -17.5 47.501c0 21.333 5.83301 37.833 17.5 49.5s27.834 17.5 48.501 17.5s36.834 -6 48.501 -18s17.5 -28 17.5 -48c0 -20.667 -5.83301 -36.834 -17.5 -48.501s-27.834 -17.5 -48.501 -17.5s-36.834 5.83301 -48.501 17.5z
M297.5 642.501c-11.667 11.667 -17.5 27.501 -17.5 47.501c0 21.333 5.83301 37.833 17.5 49.5s27.834 17.5 48.501 17.5s36.834 -6 48.501 -18s17.5 -28 17.5 -48c0 -20.667 -5.83301 -36.834 -17.5 -48.501s-27.834 -17.5 -48.501 -17.5s-36.834 5.83301 -48.501 17.5z
" />
    <glyph glyph-name="copyright" unicode="&#xa9;" horiz-adv-x="840" 
d="M240 31c-50.667 29.333 -89.5 72.168 -116.5 128.501s-40.5 123.833 -40.5 202.5s13.5 146.167 40.5 202.5s65.833 99.166 116.5 128.499s110.667 44 180 44c68.667 0 128.334 -14.833 179.001 -44.5s89.667 -72.5 117 -128.5s41 -123.333 41 -202s-13.667 -146 -41 -202
s-66.333 -98.833 -117 -128.5s-110.334 -44.5 -179.001 -44.5c-69.333 0 -129.333 14.667 -180 44zM614 139.002c46 52.667 69 127 69 223c0 96.667 -23 171.167 -69 223.5s-110.667 78.5 -194 78.5s-148 -26.167 -194 -78.5s-69 -126.833 -69 -223.5
c0 -96 23 -170.333 69 -223s110.667 -79 194 -79s148 26.333 194 79zM312.5 225.502c-29 31.667 -43.5 76.166 -43.5 133.499c0 59.333 14.167 105.333 42.5 138s68.166 49 119.499 49c20.667 0 40.334 -2.66699 59.001 -8s34.667 -12.666 48 -21.999l-32 -66
c-30 13.333 -55.333 20 -76 20c-50.667 0 -76 -35.667 -76 -107c0 -72.667 28 -109 84 -109c23.333 0 48.333 6.66699 75 20l29 -65c-12.667 -9.33301 -28.5 -16.833 -47.5 -22.5s-39.167 -8.5 -60.5 -8.5c-52 0 -92.5 15.833 -121.5 47.5z" />
    <glyph glyph-name="ordfeminine" unicode="&#xaa;" horiz-adv-x="518" 
d="M382.5 696c29.667 -22.667 44.498 -54.667 44.498 -96v-275c-24.667 -12.667 -52.667 -22.334 -84 -29.001s-63.666 -10 -96.999 -10c-58.667 0 -104.167 11.833 -136.5 35.5s-48.5 56.834 -48.5 99.501c0 50 20.833 86.167 62.5 108.5s109.167 33.5 202.5 33.5v18
c0 39.333 -28 59 -84 59c-35.333 0 -74 -8 -116 -24l-27 78c24 12 49.833 21 77.5 27s54.834 9 81.501 9c53.333 0 94.833 -11.333 124.5 -34zM245.998 372c32.667 0 59.333 3.66699 80 11v111c-58 0.666992 -99.833 -4.5 -125.5 -15.5s-38.5 -28.833 -38.5 -53.5
c0 -35.333 28 -53 84 -53zM88.9971 195h329v-85h-329v85z" />
    <glyph glyph-name="guillemotleft" unicode="&#xab;" horiz-adv-x="601" 
d="M401 290l173 -198l-73 -69l-231 266l232 266l72 -69zM155 290l173 -198l-73 -69l-231 266l232 266l72 -69z" />
    <glyph glyph-name="logicalnot" unicode="&#xac;" horiz-adv-x="577" 
d="M518 505v-275h-109v169h-350v106h459z" />
    <glyph glyph-name="uni00AD" unicode="&#xad;" horiz-adv-x="411" 
d="M44 347h323v-94h-323v94z" />
    <glyph glyph-name="registered" unicode="&#xae;" horiz-adv-x="840" 
d="M599 692.5c50.667 -29.667 89.667 -72.498 117 -128.498s41 -123.333 41 -202s-13.667 -146 -41 -202s-66.333 -98.833 -117 -128.5s-110.334 -44.5 -179.001 -44.5c-69.333 0 -129.333 14.667 -180 44s-89.5 72.166 -116.5 128.499s-40.5 123.833 -40.5 202.5
s13.5 146.167 40.5 202.5s65.833 99.166 116.5 128.499s110.667 44 180 44c68.667 0 128.334 -14.833 179.001 -44.5zM614 139.002c46 52.667 69 127 69 223c0 96.667 -23 171.167 -69 223.5s-110.667 78.5 -194 78.5s-148 -26.167 -194 -78.5s-69 -126.833 -69 -223.5
c0 -96 23 -170.333 69 -223s110.667 -79 194 -79s148 26.333 194 79zM533.5 350.002c-9.66699 -18.667 -23.833 -32.666 -42.5 -41.999l72 -124h-89l-58 110h-40v-110h-77v356h128c38 0 67.667 -10.833 89 -32.5s32 -51.834 32 -90.501c0 -26 -4.83301 -48.333 -14.5 -67z
M376.001 360.003h47c29.333 0 44 18.333 44 55c0 37.333 -15 56 -45 56h-46v-111z" />
    <glyph glyph-name="macron" unicode="&#xaf;" horiz-adv-x="500" 
d="M92 720h316v-83h-316v83z" />
    <glyph glyph-name="degree" unicode="&#xb0;" horiz-adv-x="454" 
d="M131 390.5c-28 15.667 -49.667 37.5 -65 65.5s-23 60 -23 96s7.66699 68 23 96s37 49.667 65 65s60 23 96 23s68 -7.66699 96 -23s49.667 -37 65 -65s23 -60 23 -96s-7.66699 -68 -23 -96s-37 -49.833 -65 -65.5s-60 -23.5 -96 -23.5s-68 7.83301 -96 23.5zM287 488.5
c15.333 16.333 23 37.5 23 63.5s-7.66699 47 -23 63s-35.333 24 -60 24s-44.667 -8 -60 -24s-23 -37 -23 -63s7.66699 -47.167 23 -63.5s35.333 -24.5 60 -24.5s44.667 8.16699 60 24.5z" />
    <glyph glyph-name="plusminus" unicode="&#xb1;" horiz-adv-x="577" 
d="M532 509v-105h-189v-179h-109v179h-189v105h189v180h109v-180h189zM45 167h487v-103h-487v103z" />
    <glyph glyph-name="uni00B2" unicode="&#xb2;" horiz-adv-x="389" 
d="M350 402v-77.001h-314v77l160 158c21.333 20.667 36 37.334 44 50.001s12 24.334 12 35.001c0 14.667 -6 26.167 -18 34.5s-29 12.5 -51 12.5c-34 0 -71.667 -11.667 -113 -35l-38 71c22.667 15.333 48.167 27.333 76.5 36s58.5 13 90.5 13c48 0 84.667 -11 110 -33
s38 -51.333 38 -88c0 -26 -6.5 -50.833 -19.5 -74.5s-33.5 -48.834 -61.5 -75.501l-108 -104h192z" />
    <glyph glyph-name="uni00B3" unicode="&#xb3;" horiz-adv-x="399" 
d="M322.5 557c21.667 -24 32.4971 -54.333 32.4971 -91c0 -45.333 -16.167 -81.5 -48.5 -108.5s-75.833 -40.5 -130.5 -40.5c-27.333 0 -54.666 4 -81.999 12s-50.666 18.667 -69.999 32l34 72c42.667 -22 81.667 -33 117 -33c26.667 0 47.334 6 62.001 18s22 28 22 48
c0 19.333 -6.83301 34.5 -20.5 45.5s-32.834 16.5 -57.501 16.5c-16 0 -30.333 -2.33301 -43 -7l-37 52l138 119h-199v77h298v-78l-103 -89c36.667 -6 65.834 -21 87.501 -45z" />
    <glyph glyph-name="acute" unicode="&#xb4;" horiz-adv-x="500" 
d="M183 625l97 159h125v-10l-132 -159h-90v10z" />
    <glyph glyph-name="uni00B5" unicode="&#xb5;" horiz-adv-x="590" 
d="M512 543l0.000976562 -542.999h-107v74c-36 -54 -85 -81 -147 -81c-24.667 0 -45.334 4.33301 -62.001 13v-213h-118v750h118v-361c0 -28 7.66699 -49.333 23 -64s37 -22 65 -22c22 0 41.833 4.16699 59.5 12.5s34.5 21.166 50.5 38.499v396h118z" />
    <glyph glyph-name="paragraph" unicode="&#xb6;" horiz-adv-x="575" 
d="M491 0h-87v641h-73v-641h-85v310c-70.667 1.33301 -125.5 20 -164.5 56s-58.5 86 -58.5 150c0 66 20.667 117.167 62 153.5s99.333 54.5 174 54.5h232v-724z" />
    <glyph glyph-name="periodcentered" unicode="&#xb7;" horiz-adv-x="260" 
d="M74 283.5c-13.333 13 -20 30.833 -20 53.5c0 23.333 6.66699 41.5 20 54.5s32 19.5 56 19.5s42.667 -6.5 56 -19.5s20 -30.833 20 -53.5c0 -23.333 -6.66699 -41.5 -20 -54.5s-32 -19.5 -56 -19.5s-42.667 6.5 -56 19.5z" />
    <glyph glyph-name="cedilla" unicode="&#xb8;" horiz-adv-x="500" 
d="M347 -74c19.333 -14.667 28.999 -35.334 28.999 -62.001c0 -32 -11.5 -56.667 -34.5 -74s-55.5 -26 -97.5 -26s-80.333 8.33301 -115 25l19 57c32.667 -12 61.334 -18 86.001 -18c16 0 28.333 2.83301 37 8.5s13 13.834 13 24.501c0 21.333 -15 32 -45 32
c-14.667 0 -28 -2.33301 -40 -7l-28 31l43 103l79 -6l-48 -68c9.33301 1.33301 16.333 2 21 2c34.667 0 61.667 -7.33301 81 -22z" />
    <glyph glyph-name="uni00B9" unicode="&#xb9;" horiz-adv-x="312" 
d="M241 769v-444h-95v351l-97 -30l-27 77l137 46h82z" />
    <glyph glyph-name="ordmasculine" unicode="&#xba;" horiz-adv-x="524" 
d="M115.5 341.5c-34.333 37.667 -51.502 93.167 -51.502 166.5s17.333 128.833 52 166.5s83.667 56.5 147 56.5c62.667 0 111.167 -18.833 145.5 -56.5s51.5 -93.167 51.5 -166.5s-17.167 -128.833 -51.5 -166.5s-83.166 -56.5 -146.499 -56.5
s-112.166 18.833 -146.499 56.5zM356.998 508c0 90 -31.333 135 -94 135c-64 0 -96 -45 -96 -135s31.667 -135 95 -135s95 45 95 135zM97.998 195h329v-85h-329v85z" />
    <glyph glyph-name="guillemotright" unicode="&#xbb;" horiz-adv-x="601" 
d="M331 290l-232 -266l-72 69l173 196l-173 198l73 69zM577 290l-232 -266l-72 69l173 196l-173 198l73 69z" />
    <glyph glyph-name="onequarter" unicode="&#xbc;" horiz-adv-x="925" 
d="M656 701l-409 -723l-78 45l409 723zM146 279v351l-97 -30l-27 77l137 46h82v-444h-95zM892 169v-79h-56v-89h-93v89h-211v79l171 276h133v-276h56zM743 169v203l-120 -203h120z" />
    <glyph glyph-name="onehalf" unicode="&#xbd;" horiz-adv-x="942" 
d="M656 701l-409 -723l-78 45l409 723zM146 279v351l-97 -30l-27 77l137 46h82v-444h-95zM903 78v-77.001h-314v77l160 158c21.333 20.667 36 37.334 44 50.001s12 24.334 12 35.001c0 14.667 -6 26.167 -18 34.5s-29 12.5 -51 12.5c-34 0 -71.667 -11.667 -113 -35l-38 71
c22.667 15.333 48.167 27.333 76.5 36s58.5 13 90.5 13c48 0 84.667 -11 110 -33s38 -51.333 38 -88c0 -26 -6.5 -50.833 -19.5 -74.5s-33.5 -48.834 -61.5 -75.501l-108 -104h192z" />
    <glyph glyph-name="threequarters" unicode="&#xbe;" horiz-adv-x="1032" 
d="M763 701l-409 -723l-78 45l409 723zM306.5 311.5c-32.333 -27 -75.8359 -40.5 -130.503 -40.5c-27.333 0 -54.666 4 -81.999 12s-50.666 18.667 -69.999 32l34 72c42.667 -22 81.667 -33 117 -33c26.667 0 47.334 6 62.001 18s22 28 22 48
c0 19.333 -6.83301 34.5 -20.5 45.5s-32.834 16.5 -57.501 16.5c-16 0 -30.333 -2.33301 -43 -7l-37 52l138 119h-199v77h298v-78l-103 -89c36.667 -6 65.834 -21 87.501 -45s32.5 -54.333 32.5 -91c0 -45.333 -16.167 -81.5 -48.5 -108.5zM998.997 169v-79h-56v-89h-93v89
h-211v79l171 276h133v-276h56zM849.997 169v203l-120 -203h120z" />
    <glyph glyph-name="questiondown" unicode="&#xbf;" horiz-adv-x="470" 
d="M345 527.5c13.333 -13 20 -30.833 20 -53.5c0 -23.333 -6.66699 -41.5 -20 -54.5s-32 -19.5 -56 -19.5s-42.667 6.5 -56 19.5s-20 30.833 -20 53.5c0 23.333 6.66699 41.5 20 54.5s32 19.5 56 19.5s42.667 -6.5 56 -19.5zM347 269
c0 -39.333 -7.33301 -71.832 -22 -97.499s-41.334 -53.834 -80.001 -84.501c-27.333 -21.333 -45.666 -38.833 -54.999 -52.5s-14 -29.5 -14 -47.5c0 -52.667 32.333 -79 97 -79c48 0 100.667 16.667 158 50l47 -97c-30 -20.667 -63.667 -36.5 -101 -47.5
s-75.333 -16.5 -114 -16.5c-66.667 0 -118.5 16.333 -155.5 49s-55.5 78.334 -55.5 137.001c0 33.333 7.33301 62 22 86s41.334 50.667 80.001 80c33.333 26 55.666 47.167 66.999 63.5s17 36.166 17 59.499c0 10.667 -1 27.334 -3 50.001h109
c2 -24.667 3 -42.334 3 -53.001z" />
    <glyph glyph-name="Agrave" unicode="&#xc0;" horiz-adv-x="669" 
d="M312 781l-173 133v12h135l138 -133v-12h-100zM470 168h-272l-52 -168h-126l249 724h131l249 -724h-127zM437 273l-104 333l-103 -333h207z" />
    <glyph glyph-name="Aacute" unicode="&#xc1;" horiz-adv-x="669" 
d="M355 781h-100v12l147 133h135v-12zM470 168h-272l-52 -168h-126l249 724h131l249 -724h-127zM437 273l-104 333l-103 -333h207z" />
    <glyph glyph-name="Acircumflex" unicode="&#xc2;" horiz-adv-x="669" 
d="M245 781h-86v12l117 133h116l117 -133v-12h-90l-87 81zM470 168h-272l-52 -168h-126l249 724h131l249 -724h-127zM437 273l-104 333l-103 -333h207z" />
    <glyph glyph-name="Atilde" unicode="&#xc3;" horiz-adv-x="669" 
d="M223 788l-68.001 -0.000976562c1.33301 45.333 11.5 80.5 30.5 105.5s44.833 37.5 77.5 37.5c18 0 33.667 -3.16699 47 -9.5s28.333 -15.166 45 -26.499c10.667 -8 19.834 -13.833 27.501 -17.5s15.167 -5.5 22.5 -5.5c22.667 0 36 19 40 57h68
c-1.33301 -45.333 -11.5 -80.5 -30.5 -105.5s-44.833 -37.5 -77.5 -37.5c-18 0 -33.333 3 -46 9s-28 15 -46 27c-10 8 -18.833 14 -26.5 18s-15.5 6 -23.5 6c-22.667 0 -36 -19.333 -40 -58zM469.999 167.999h-272l-52 -168h-126l249 724h131l249 -724h-127z
M436.999 272.999l-104 333l-103 -333h207z" />
    <glyph glyph-name="Adieresis" unicode="&#xc4;" horiz-adv-x="669" 
d="M184.5 804.5c-11.667 11.667 -17.5 27.501 -17.5 47.501c0 21.333 5.83301 37.833 17.5 49.5s27.834 17.5 48.501 17.5s36.834 -6 48.501 -18s17.5 -28 17.5 -48c0 -20.667 -5.83301 -36.834 -17.5 -48.501s-27.834 -17.5 -48.501 -17.5s-36.834 5.83301 -48.501 17.5z
M387.5 804.501c-11.667 11.667 -17.5 27.501 -17.5 47.501c0 21.333 5.83301 37.833 17.5 49.5s27.834 17.5 48.501 17.5s36.834 -6 48.501 -18s17.5 -28 17.5 -48c0 -20.667 -5.83301 -36.834 -17.5 -48.501s-27.834 -17.5 -48.501 -17.5s-36.834 5.83301 -48.501 17.5z
M470 168.002h-272l-52 -168h-126l249 724h131l249 -724h-127zM437 273.002l-104 333l-103 -333h207z" />
    <glyph glyph-name="Aring" unicode="&#xc5;" horiz-adv-x="669" 
d="M237.5 796.5c-23 20.333 -34.5 48.833 -34.5 85.5s11.5 65.167 34.5 85.5s55.167 30.5 96.5 30.5s73.5 -10.167 96.5 -30.5s34.5 -48.833 34.5 -85.5s-11.5 -65.167 -34.5 -85.5s-55.167 -30.5 -96.5 -30.5s-73.5 10.167 -96.5 30.5zM279 882
c0 -37.333 18.333 -56 55 -56s55 18.667 55 56s-18.333 56 -55 56s-55 -18.667 -55 -56zM470 168h-272l-52 -168h-126l249 724h131l249 -724h-127zM437 273l-104 333l-103 -333h207z" />
    <glyph glyph-name="AE" unicode="&#xc6;" horiz-adv-x="922" 
d="M888 107v-107h-441v159h-243l-81 -159h-128l376 724h504v-107h-312v-193h227v-108h-227v-209h325zM447 264v373l-190 -373h190z" />
    <glyph glyph-name="Ccedilla" unicode="&#xc7;" horiz-adv-x="602" 
d="M449 -74c19.333 -14.667 29.002 -35.3359 29.002 -62.0029c0 -32 -11.5 -56.667 -34.5 -74s-55.5 -26 -97.5 -26s-80.333 8.33301 -115 25l19 57c33.333 -12 62 -18 86 -18c16 0 28.333 2.83301 37 8.5s13 13.834 13 24.501c0 21.333 -15 32 -45 32
c-14.667 0 -28 -2.33301 -40 -7l-28 31l32 76c-84 13.333 -148.667 50.5 -194 111.5s-68 141.833 -68 242.5c0 79.333 13.167 148.333 39.5 207s64 103.834 113 135.501s106.5 47.5 172.5 47.5c36 0 71.167 -4.83301 105.5 -14.5s64.833 -23.167 91.5 -40.5l-41 -93
c-52.667 26 -105.334 39 -158.001 39c-63.333 0 -112.333 -23.667 -147 -71s-52 -114.333 -52 -201c0 -85.333 17.833 -149.666 53.5 -192.999s88.5 -65 158.5 -65c60 0 110.333 11.667 151 35l41 -91c-20.667 -16.667 -48.334 -29.667 -83.001 -39
s-71.667 -14.333 -111 -15l-30 -42c9.33301 1.33301 16.333 2 21 2c34.667 0 61.667 -7.33301 81 -22z" />
    <glyph glyph-name="Egrave" unicode="&#xc8;" horiz-adv-x="577" 
d="M285 781l-173 133v12h135l138 -133v-12h-100zM542 107v-107h-458v724h445v-107h-325v-193h240v-108h-240v-209h338z" />
    <glyph glyph-name="Eacute" unicode="&#xc9;" horiz-adv-x="577" 
d="M328 781h-100v12l147 133h135v-12zM542 107v-107h-458v724h445v-107h-325v-193h240v-108h-240v-209h338z" />
    <glyph glyph-name="Ecircumflex" unicode="&#xca;" horiz-adv-x="577" 
d="M218 781h-86v12l117 133h116l117 -133v-12h-90l-87 81zM542 107v-107h-458v724h445v-107h-325v-193h240v-108h-240v-209h338z" />
    <glyph glyph-name="Edieresis" unicode="&#xcb;" horiz-adv-x="577" 
d="M157.5 804.5c-11.667 11.667 -17.5 27.501 -17.5 47.501c0 21.333 5.83301 37.833 17.5 49.5s27.834 17.5 48.501 17.5s36.834 -6 48.501 -18s17.5 -28 17.5 -48c0 -20.667 -5.83301 -36.834 -17.5 -48.501s-27.834 -17.5 -48.501 -17.5s-36.834 5.83301 -48.501 17.5z
M360.5 804.501c-11.667 11.667 -17.5 27.501 -17.5 47.501c0 21.333 5.83301 37.833 17.5 49.5s27.834 17.5 48.501 17.5s36.834 -6 48.501 -18s17.5 -28 17.5 -48c0 -20.667 -5.83301 -36.834 -17.5 -48.501s-27.834 -17.5 -48.501 -17.5s-36.834 5.83301 -48.501 17.5z
M542 107.002v-107h-458v724h445v-107h-325v-193h240v-108h-240v-209h338z" />
    <glyph glyph-name="Igrave" unicode="&#xcc;" horiz-adv-x="291" 
d="M-49 914v12h135l138 -133v-12h-100zM86 724h120v-724h-120v724z" />
    <glyph glyph-name="Iacute" unicode="&#xcd;" horiz-adv-x="291" 
d="M67 793l147 133h135v-12l-182 -133h-100v12zM86 724h120v-724h-120v724z" />
    <glyph glyph-name="Icircumflex" unicode="&#xce;" horiz-adv-x="291" 
d="M321 793v-12h-90l-87 81l-87 -81h-86v12l117 133h116zM86 724h120v-724h-120v724z" />
    <glyph glyph-name="Idieresis" unicode="&#xcf;" horiz-adv-x="291" 
d="M-3.5 804.5c-11.667 11.667 -17.5 27.501 -17.5 47.501c0 21.333 5.83301 37.833 17.5 49.5s27.834 17.5 48.501 17.5s36.834 -6 48.501 -18s17.5 -28 17.5 -48c0 -20.667 -5.83301 -36.834 -17.5 -48.501s-27.834 -17.5 -48.501 -17.5s-36.834 5.83301 -48.501 17.5z
M199.5 804.501c-11.667 11.667 -17.5 27.501 -17.5 47.501c0 21.333 5.83301 37.833 17.5 49.5s27.834 17.5 48.501 17.5s36.834 -6 48.501 -18s17.5 -28 17.5 -48c0 -20.667 -5.83301 -36.834 -17.5 -48.501s-27.834 -17.5 -48.501 -17.5s-36.834 5.83301 -48.501 17.5z
M86 724.002h120v-724h-120v724z" />
    <glyph glyph-name="Eth" unicode="&#xd0;" horiz-adv-x="692" 
d="M555 633c56 -60.667 83.999 -150.667 83.999 -270c0 -120 -28.167 -210.5 -84.5 -271.5s-138.166 -91.5 -245.499 -91.5h-225v320h-65v93h65v311h226c107.333 0 189 -30.333 245 -91zM462.999 171.5c34.667 43 51.999 106.833 51.999 191.5
c0 169.333 -69.333 254 -208 254h-103v-204h164v-93h-164v-213h104c68.667 0 120.334 21.5 155.001 64.5z" />
    <glyph glyph-name="Ntilde" unicode="&#xd1;" horiz-adv-x="725" 
d="M251 788l-68.001 -0.000976562c1.33301 45.333 11.5 80.5 30.5 105.5s44.833 37.5 77.5 37.5c18 0 33.667 -3.16699 47 -9.5s28.333 -15.166 45 -26.499c10.667 -8 19.834 -13.833 27.501 -17.5s15.167 -5.5 22.5 -5.5c22.667 0 36 19 40 57h68
c-1.33301 -45.333 -11.5 -80.5 -30.5 -105.5s-44.833 -37.5 -77.5 -37.5c-18 0 -33.333 3 -46 9s-28 15 -46 27c-10 8 -18.833 14 -26.5 18s-15.5 6 -23.5 6c-22.667 0 -36 -19.333 -40 -58zM640.999 723.999v-724h-115l-324 521v-521h-118v724h115l324 -520v520h118z" />
    <glyph glyph-name="Ograve" unicode="&#xd2;" horiz-adv-x="715" 
d="M162 914v12h135l138 -133v-12h-100zM131 81.5c-52 63 -78 156.5 -78 280.5s26 217.5 78 280.5s127.333 94.5 226 94.5s174.167 -31.5 226.5 -94.5s78.5 -156.5 78.5 -280.5s-26.167 -217.5 -78.5 -280.5s-127.833 -94.5 -226.5 -94.5s-174 31.5 -226 94.5zM538 362
c0 178.667 -60.333 268 -181 268c-120 0 -180 -89.333 -180 -268s60 -268 180 -268c120.667 0 181 89.333 181 268z" />
    <glyph glyph-name="Oacute" unicode="&#xd3;" horiz-adv-x="715" 
d="M278 793l147 133h135v-12l-182 -133h-100v12zM131 81.5c-52 63 -78 156.5 -78 280.5s26 217.5 78 280.5s127.333 94.5 226 94.5s174.167 -31.5 226.5 -94.5s78.5 -156.5 78.5 -280.5s-26.167 -217.5 -78.5 -280.5s-127.833 -94.5 -226.5 -94.5s-174 31.5 -226 94.5z
M538 362c0 178.667 -60.333 268 -181 268c-120 0 -180 -89.333 -180 -268s60 -268 180 -268c120.667 0 181 89.333 181 268z" />
    <glyph glyph-name="Ocircumflex" unicode="&#xd4;" horiz-adv-x="715" 
d="M268 781h-86v12l117 133h116l117 -133v-12h-90l-87 81zM583.5 642.5c52.333 -63 78.5 -156.5 78.5 -280.5s-26.167 -217.5 -78.5 -280.5s-127.833 -94.5 -226.5 -94.5s-174 31.5 -226 94.5s-78 156.5 -78 280.5s26 217.5 78 280.5s127.333 94.5 226 94.5
s174.167 -31.5 226.5 -94.5zM538 362c0 178.667 -60.333 268 -181 268c-120 0 -180 -89.333 -180 -268s60 -268 180 -268c120.667 0 181 89.333 181 268z" />
    <glyph glyph-name="Otilde" unicode="&#xd5;" horiz-adv-x="715" 
d="M382 795c-12.667 6 -28.001 14.999 -46.001 26.999c-10 8 -18.833 14 -26.5 18s-15.5 6 -23.5 6c-22.667 0 -36 -19.333 -40 -58h-68c1.33301 45.333 11.5 80.5 30.5 105.5s44.833 37.5 77.5 37.5c18 0 33.667 -3.16699 47 -9.5s28.333 -15.166 45 -26.499
c10.667 -8 19.834 -13.833 27.501 -17.5s15.167 -5.5 22.5 -5.5c22.667 0 36 19 40 57h68c-1.33301 -45.333 -11.5 -80.5 -30.5 -105.5s-44.833 -37.5 -77.5 -37.5c-18 0 -33.333 3 -46 9zM130.999 81.499c-52 63 -78 156.5 -78 280.5s26 217.5 78 280.5
s127.333 94.5 226 94.5s174.167 -31.5 226.5 -94.5s78.5 -156.5 78.5 -280.5s-26.167 -217.5 -78.5 -280.5s-127.833 -94.5 -226.5 -94.5s-174 31.5 -226 94.5zM537.999 361.999c0 178.667 -60.333 268 -181 268c-120 0 -180 -89.333 -180 -268s60 -268 180 -268
c120.667 0 181 89.333 181 268z" />
    <glyph glyph-name="Odieresis" unicode="&#xd6;" horiz-adv-x="715" 
d="M207.5 804.5c-11.667 11.667 -17.5 27.501 -17.5 47.501c0 21.333 5.83301 37.833 17.5 49.5s27.834 17.5 48.501 17.5s36.834 -6 48.501 -18s17.5 -28 17.5 -48c0 -20.667 -5.83301 -36.834 -17.5 -48.501s-27.834 -17.5 -48.501 -17.5s-36.834 5.83301 -48.501 17.5z
M410.5 804.501c-11.667 11.667 -17.5 27.501 -17.5 47.501c0 21.333 5.83301 37.833 17.5 49.5s27.834 17.5 48.501 17.5s36.834 -6 48.501 -18s17.5 -28 17.5 -48c0 -20.667 -5.83301 -36.834 -17.5 -48.501s-27.834 -17.5 -48.501 -17.5s-36.834 5.83301 -48.501 17.5z
M131 81.502c-52 63 -78 156.5 -78 280.5s26 217.5 78 280.5s127.333 94.5 226 94.5s174.167 -31.5 226.5 -94.5s78.5 -156.5 78.5 -280.5s-26.167 -217.5 -78.5 -280.5s-127.833 -94.5 -226.5 -94.5s-174 31.5 -226 94.5zM538 362.002c0 178.667 -60.333 268 -181 268
c-120 0 -180 -89.333 -180 -268s60 -268 180 -268c120.667 0 181 89.333 181 268z" />
    <glyph glyph-name="multiply" unicode="&#xd7;" horiz-adv-x="577" 
d="M362 368l151 -159l-74 -76l-150 158l-151 -158l-74 76l151 159l-151 159l74 76l151 -158l150 158l74 -76z" />
    <glyph glyph-name="Oslash" unicode="&#xd8;" horiz-adv-x="715" 
d="M692 722l-89 -111c39.333 -62.667 59 -145.667 59 -249c0 -124 -26.167 -217.5 -78.5 -280.5s-127.833 -94.5 -226.5 -94.5c-78 0 -142 21.333 -192 64l-46 -61h-96v12l89 111c-39.333 62.667 -59 145.667 -59 249c0 124 26 217.5 78 280.5s127.333 94.5 226 94.5
c78.667 0 143 -21.333 193 -64l46 61h96v-12zM173 362c0 -60 5.99902 -110 17.999 -150l293 374c-29.333 31.333 -71.666 47 -126.999 47c-122.667 0 -184 -90.333 -184 -271zM541.999 362c0 60 -6 110 -18 150l-293 -374c29.333 -31.333 71.333 -47 126 -47
c123.333 0 185 90.333 185 271z" />
    <glyph glyph-name="Ugrave" unicode="&#xd9;" horiz-adv-x="687" 
d="M148 914v12h135l138 -133v-12h-100zM148 56c-46 46 -69 111 -69 195v473h120v-466c0 -109.333 48 -164 144 -164c96.667 0 145 54.667 145 164v466h120v-473c0 -84 -23.167 -149 -69.5 -195s-111.833 -69 -196.5 -69c-83.333 0 -148 23 -194 69z" />
    <glyph glyph-name="Uacute" unicode="&#xda;" horiz-adv-x="687" 
d="M264 793l147 133h135v-12l-182 -133h-100v12zM148 56c-46 46 -69 111 -69 195v473h120v-466c0 -109.333 48 -164 144 -164c96.667 0 145 54.667 145 164v466h120v-473c0 -84 -23.167 -149 -69.5 -195s-111.833 -69 -196.5 -69c-83.333 0 -148 23 -194 69z" />
    <glyph glyph-name="Ucircumflex" unicode="&#xdb;" horiz-adv-x="687" 
d="M254 781h-86v12l117 133h116l117 -133v-12h-90l-87 81zM608 724v-473c0 -84 -23.167 -149 -69.5 -195s-111.833 -69 -196.5 -69c-83.333 0 -148 23 -194 69s-69 111 -69 195v473h120v-466c0 -109.333 48 -164 144 -164c96.667 0 145 54.667 145 164v466h120z" />
    <glyph glyph-name="Udieresis" unicode="&#xdc;" horiz-adv-x="687" 
d="M193.5 804.5c-11.667 11.667 -17.5 27.501 -17.5 47.501c0 21.333 5.83301 37.833 17.5 49.5s27.834 17.5 48.501 17.5s36.834 -6 48.501 -18s17.5 -28 17.5 -48c0 -20.667 -5.83301 -36.834 -17.5 -48.501s-27.834 -17.5 -48.501 -17.5s-36.834 5.83301 -48.501 17.5z
M396.5 804.501c-11.667 11.667 -17.5 27.501 -17.5 47.501c0 21.333 5.83301 37.833 17.5 49.5s27.834 17.5 48.501 17.5s36.834 -6 48.501 -18s17.5 -28 17.5 -48c0 -20.667 -5.83301 -36.834 -17.5 -48.501s-27.834 -17.5 -48.501 -17.5s-36.834 5.83301 -48.501 17.5z
M148 56.002c-46 46 -69 111 -69 195v473h120v-466c0 -109.333 48 -164 144 -164c96.667 0 145 54.667 145 164v466h120v-473c0 -84 -23.167 -149 -69.5 -195s-111.833 -69 -196.5 -69c-83.333 0 -148 23 -194 69z" />
    <glyph glyph-name="Yacute" unicode="&#xdd;" horiz-adv-x="589" 
d="M314 781h-100v12l147 133h135v-12zM573 724l-220 -479v-245h-120v245l-217 479h129l150 -348l150 348h128z" />
    <glyph glyph-name="Thorn" unicode="&#xde;" horiz-adv-x="616" 
d="M516 547.5c41.333 -41.667 62.001 -100.501 62.001 -176.501c0 -76.667 -21.167 -136.167 -63.5 -178.5s-101.833 -63.166 -178.5 -62.499h-132v-130h-120v724h120v-114h137c75.333 0 133.666 -20.833 174.999 -62.5zM454.001 368.999c0 89.333 -39.333 134 -118 134
h-132v-266h137c75.333 0 113 44 113 132z" />
    <glyph glyph-name="germandbls" unicode="&#xdf;" horiz-adv-x="602" 
d="M524.5 350c29 -36 43.502 -82.999 43.502 -140.999c0 -68.667 -19.333 -121.834 -58 -159.501s-93.334 -56.5 -164.001 -56.5c-34.667 0 -66.667 4.66699 -96 14l21 96c24 -6.66699 49 -10 75 -10c72.667 0 109 35.667 109 107c0 93.333 -61 144 -183 152v90
c38.667 17.333 66.667 37.833 84 61.5s26 52.167 26 85.5c0 60.667 -28 91 -84 91c-68 0 -102 -43 -102 -129v-551h-118v551c0 74 19.167 131.333 57.5 172s92.166 61 161.499 61c62 0 110.167 -16 144.5 -48s51.5 -77.333 51.5 -136c0 -78 -32.667 -136.667 -98 -176
c57.333 -13.333 100.5 -38 129.5 -74z" />
    <glyph glyph-name="agrave" unicode="&#xe0;" horiz-adv-x="534" 
d="M408.5 510c36.333 -30.667 54.502 -74.333 54.502 -131v-379h-106v76c-34 -58 -87.667 -87 -161 -87c-52.667 0 -93.334 14.333 -122.001 43s-43 68.667 -43 120c0 64.667 25.167 112.167 75.5 142.5s130.166 45.833 239.499 46.5v25c0 56 -36.333 84 -109 84
c-42.667 0 -85 -9.33301 -127 -28l-30 92c58 28 117 42 177 42c64.667 0 115.167 -15.333 151.5 -46zM346.002 146.001l0.000976562 114c-70 -1.33301 -121 -9.83301 -153 -25.5s-48 -40.167 -48 -73.5c0 -47.333 26.667 -71 80 -71c47.333 0 87.666 18.667 120.999 56z
M113.003 774.001v10h125l89 -159v-10h-90z" />
    <glyph glyph-name="aacute" unicode="&#xe1;" horiz-adv-x="534" 
d="M408.5 510c36.333 -30.667 54.502 -74.333 54.502 -131v-379h-106v76c-34 -58 -87.667 -87 -161 -87c-52.667 0 -93.334 14.333 -122.001 43s-43 68.667 -43 120c0 64.667 25.167 112.167 75.5 142.5s130.166 45.833 239.499 46.5v25c0 56 -36.333 84 -109 84
c-42.667 0 -85 -9.33301 -127 -28l-30 92c58 28 117 42 177 42c64.667 0 115.167 -15.333 151.5 -46zM346.002 146.001l0.000976562 114c-70 -1.33301 -121 -9.83301 -153 -25.5s-48 -40.167 -48 -73.5c0 -47.333 26.667 -71 80 -71c47.333 0 87.666 18.667 120.999 56z
M189.003 625.001l97 159h125v-10l-132 -159h-90v10z" />
    <glyph glyph-name="acircumflex" unicode="&#xe2;" horiz-adv-x="534" 
d="M408.5 510c36.333 -30.667 54.502 -74.333 54.502 -131v-379h-106v76c-34 -58 -87.667 -87 -161 -87c-52.667 0 -93.334 14.333 -122.001 43s-43 68.667 -43 120c0 64.667 25.167 112.167 75.5 142.5s130.166 45.833 239.499 46.5v25c0 56 -36.333 84 -109 84
c-42.667 0 -85 -9.33301 -127 -28l-30 92c58 28 117 42 177 42c64.667 0 115.167 -15.333 151.5 -46zM346.002 146.001l0.000976562 114c-70 -1.33301 -121 -9.83301 -153 -25.5s-48 -40.167 -48 -73.5c0 -47.333 26.667 -71 80 -71c47.333 0 87.666 18.667 120.999 56z
M413.003 625.001v-10h-84l-75 95l-75 -95h-80v10l102 159h110z" />
    <glyph glyph-name="atilde" unicode="&#xe3;" horiz-adv-x="534" 
d="M408.5 510c36.333 -30.667 54.502 -74.333 54.502 -131v-379h-106v76c-34 -58 -87.667 -87 -161 -87c-52.667 0 -93.334 14.333 -122.001 43s-43 68.667 -43 120c0 64.667 25.167 112.167 75.5 142.5s130.166 45.833 239.499 46.5v25c0 56 -36.333 84 -109 84
c-42.667 0 -85 -9.33301 -127 -28l-30 92c58 28 117 42 177 42c64.667 0 115.167 -15.333 151.5 -46zM346.002 146.001l0.000976562 114c-70 -1.33301 -121 -9.83301 -153 -25.5s-48 -40.167 -48 -73.5c0 -47.333 26.667 -71 80 -71c47.333 0 87.666 18.667 120.999 56z
M281.003 625.001c-12.667 6 -28.001 14.999 -46.001 26.999c-10 8 -18.833 14 -26.5 18s-15.5 6 -23.5 6c-22.667 0 -36 -19.333 -40 -58h-68c1.33301 45.333 11.5 80.5 30.5 105.5s44.833 37.5 77.5 37.5c18 0 33.667 -3.16699 47 -9.5s28.333 -15.166 45 -26.499
c10.667 -8 19.834 -13.833 27.501 -17.5s15.167 -5.5 22.5 -5.5c22.667 0 36 19 40 57h68c-1.33301 -45.333 -11.5 -80.5 -30.5 -105.5s-44.833 -37.5 -77.5 -37.5c-18 0 -33.333 3 -46 9z" />
    <glyph glyph-name="adieresis" unicode="&#xe4;" horiz-adv-x="534" 
d="M111.5 642.5c-11.667 11.667 -17.5 27.501 -17.5 47.501c0 21.333 5.83301 37.833 17.5 49.5s27.834 17.5 48.501 17.5s36.834 -6 48.501 -18s17.5 -28 17.5 -48c0 -20.667 -5.83301 -36.834 -17.5 -48.501s-27.834 -17.5 -48.501 -17.5s-36.834 5.83301 -48.501 17.5z
M303.5 642.501c-11.667 11.667 -17.5 27.501 -17.5 47.501c0 21.333 5.83301 37.833 17.5 49.5s27.834 17.5 48.501 17.5s36.834 -6 48.501 -18s17.5 -28 17.5 -48c0 -20.667 -5.83301 -36.834 -17.5 -48.501s-27.834 -17.5 -48.501 -17.5s-36.834 5.83301 -48.501 17.5z
M408.5 510.002c36.333 -30.667 54.502 -74.333 54.502 -131v-379h-106v76c-34 -58 -87.667 -87 -161 -87c-52.667 0 -93.334 14.333 -122.001 43s-43 68.667 -43 120c0 64.667 25.167 112.167 75.5 142.5s130.166 45.833 239.499 46.5v25c0 56 -36.333 84 -109 84
c-42.667 0 -85 -9.33301 -127 -28l-30 92c58 28 117 42 177 42c64.667 0 115.167 -15.333 151.5 -46zM346.002 146.003l0.000976562 114c-70 -1.33301 -121 -9.83301 -153 -25.5s-48 -40.167 -48 -73.5c0 -47.333 26.667 -71 80 -71c47.333 0 87.666 18.667 120.999 56z" />
    <glyph glyph-name="aring" unicode="&#xe5;" horiz-adv-x="534" 
d="M408.5 510c36.333 -30.667 54.502 -74.333 54.502 -131v-379h-106v76c-34 -58 -87.667 -87 -161 -87c-52.667 0 -93.334 14.333 -122.001 43s-43 68.667 -43 120c0 64.667 25.167 112.167 75.5 142.5s130.166 45.833 239.499 46.5v25c0 56 -36.333 84 -109 84
c-42.667 0 -85 -9.33301 -127 -28l-30 92c58 28 117 42 177 42c64.667 0 115.167 -15.333 151.5 -46zM346.002 146.001l0.000976562 114c-70 -1.33301 -121 -9.83301 -153 -25.5s-48 -40.167 -48 -73.5c0 -47.333 26.667 -71 80 -71c47.333 0 87.666 18.667 120.999 56z
M160.503 631.501c-23 20.333 -34.5 48.833 -34.5 85.5s11.333 65.167 34 85.5s54.667 30.5 96 30.5s73.333 -10.167 96 -30.5s34 -48.833 34 -85.5s-11.5 -65.167 -34.5 -85.5s-54.833 -30.5 -95.5 -30.5s-72.5 10.167 -95.5 30.5zM311.003 717.001c0 38 -18.333 57 -55 57
s-55 -19 -55 -57s18.333 -57 55 -57s55 19 55 57z" />
    <glyph glyph-name="ae" unicode="&#xe6;" horiz-adv-x="828" 
d="M785 235h-332c9.33301 -93.333 56.666 -140 141.999 -140c42 0 85.333 11.667 130 35l42 -89c-24.667 -16.667 -53.167 -29.667 -85.5 -39s-65.166 -14 -98.499 -14c-45.333 0 -85 8.5 -119 25.5s-61.333 42.167 -82 75.5c-28.667 -34.667 -58.167 -60 -88.5 -76
s-64.166 -24 -101.499 -24c-50.667 0 -90.167 14 -118.5 42s-42.5 67.333 -42.5 118c0 63.333 24.667 109.833 74 139.5s127.333 44.834 234 45.501v32c0 56 -35.333 84 -106 84c-40.667 0 -81.667 -9.33301 -123 -28l-30 92c58 28 116 42 174 42c36 0 67 -6 93 -18
s46.333 -29.667 61 -53c18 22.667 40.333 40.167 67 52.5s56.667 18.5 90 18.5c71.333 0 126.666 -22.833 165.999 -68.5s59 -110.167 59 -193.5c0 -20.667 -1.66699 -40.334 -5 -59.001zM453 318h218.999c-0.666992 42.667 -10.667 75.667 -30 99s-45.666 35 -78.999 35
c-64 0 -100.667 -44.667 -110 -134zM350.999 160c-7.33301 25.333 -11.999 56.333 -13.999 93c-66.667 -1.33301 -115.334 -9.5 -146.001 -24.5s-46 -38.5 -46 -70.5c0 -45.333 25.667 -68 77 -68c48 0 91 23.333 129 70z" />
    <glyph glyph-name="ccedilla" unicode="&#xe7;" horiz-adv-x="482" 
d="M364 -74c19.333 -14.667 29.0029 -35.334 29.0029 -62.001c0 -32 -11.5 -56.667 -34.5 -74s-55.5 -26 -97.5 -26s-80.333 8.33301 -115 25l19 57c33.333 -12 62 -18 86 -18c16 0 28.333 2.83301 37 8.5s13 13.834 13 24.501c0 21.333 -15 32 -45 32
c-14.667 0 -28 -2.33301 -40 -7l-28 31l33 79c-58 14 -102.667 44.167 -134 90.5s-47 106.166 -47 179.499c0 58 10.333 108.833 31 152.5s50 77.5 88 101.5s82 36 132 36c29.333 0 58.166 -4.16699 86.499 -12.5s53.166 -20.166 74.499 -35.499l-43 -92
c-44.667 21.333 -84.667 32 -120 32c-40.667 0 -72.167 -15.333 -94.5 -46s-33.5 -73.667 -33.5 -129c0 -118 47 -177 141 -177c37.333 0 75.666 10.333 114.999 31l41 -91c-43.333 -32 -97.333 -48 -162 -48h-4l-30 -42c9.33301 1.33301 16.333 2 21 2
c34.667 0 61.667 -7.33301 81 -22z" />
    <glyph glyph-name="egrave" unicode="&#xe8;" horiz-adv-x="544" 
d="M501 235h-338.998c9.33301 -93.333 57.666 -140 144.999 -140c47.333 0 91.666 11.667 132.999 35l43 -89c-24.667 -16.667 -53.5 -29.667 -86.5 -39s-66.833 -14 -101.5 -14c-80.667 0 -143 24.833 -187 74.5s-66 119.167 -66 208.5c0 90.667 20.667 160.834 62 210.501
s99.333 74.5 174 74.5c72 0 128 -23 168 -69s60 -110.333 60 -193c0 -20.667 -1.66699 -40.334 -5 -59.001zM162.002 318h226.001c-1.33301 42.667 -11.833 75.667 -31.5 99s-46.834 35 -81.501 35c-66 0 -103.667 -44.667 -113 -134zM134.003 774v10h125l89 -159v-10h-90z
" />
    <glyph glyph-name="eacute" unicode="&#xe9;" horiz-adv-x="544" 
d="M501 235h-338.998c9.33301 -93.333 57.666 -140 144.999 -140c47.333 0 91.666 11.667 132.999 35l43 -89c-24.667 -16.667 -53.5 -29.667 -86.5 -39s-66.833 -14 -101.5 -14c-80.667 0 -143 24.833 -187 74.5s-66 119.167 -66 208.5c0 90.667 20.667 160.834 62 210.501
s99.333 74.5 174 74.5c72 0 128 -23 168 -69s60 -110.333 60 -193c0 -20.667 -1.66699 -40.334 -5 -59.001zM162.002 318h226.001c-1.33301 42.667 -11.833 75.667 -31.5 99s-46.834 35 -81.501 35c-66 0 -103.667 -44.667 -113 -134zM210.003 625l97 159h125v-10l-132 -159
h-90v10z" />
    <glyph glyph-name="ecircumflex" unicode="&#xea;" horiz-adv-x="544" 
d="M501 235h-338.998c9.33301 -93.333 57.666 -140 144.999 -140c47.333 0 91.666 11.667 132.999 35l43 -89c-24.667 -16.667 -53.5 -29.667 -86.5 -39s-66.833 -14 -101.5 -14c-80.667 0 -143 24.833 -187 74.5s-66 119.167 -66 208.5c0 90.667 20.667 160.834 62 210.501
s99.333 74.5 174 74.5c72 0 128 -23 168 -69s60 -110.333 60 -193c0 -20.667 -1.66699 -40.334 -5 -59.001zM162.002 318h226.001c-1.33301 42.667 -11.833 75.667 -31.5 99s-46.834 35 -81.501 35c-66 0 -103.667 -44.667 -113 -134zM434.003 625v-10h-84l-75 95l-75 -95
h-80v10l102 159h110z" />
    <glyph glyph-name="edieresis" unicode="&#xeb;" horiz-adv-x="544" 
d="M132.5 642.5c-11.667 11.667 -17.5 27.501 -17.5 47.501c0 21.333 5.83301 37.833 17.5 49.5s27.834 17.5 48.501 17.5s36.834 -6 48.501 -18s17.5 -28 17.5 -48c0 -20.667 -5.83301 -36.834 -17.5 -48.501s-27.834 -17.5 -48.501 -17.5s-36.834 5.83301 -48.501 17.5z
M324.5 642.501c-11.667 11.667 -17.5 27.501 -17.5 47.501c0 21.333 5.83301 37.833 17.5 49.5s27.834 17.5 48.501 17.5s36.834 -6 48.501 -18s17.5 -28 17.5 -48c0 -20.667 -5.83301 -36.834 -17.5 -48.501s-27.834 -17.5 -48.501 -17.5s-36.834 5.83301 -48.501 17.5z
M501 235.002h-338.998c9.33301 -93.333 57.666 -140 144.999 -140c47.333 0 91.666 11.667 132.999 35l43 -89c-24.667 -16.667 -53.5 -29.667 -86.5 -39s-66.833 -14 -101.5 -14c-80.667 0 -143 24.833 -187 74.5s-66 119.167 -66 208.5
c0 90.667 20.667 160.834 62 210.501s99.333 74.5 174 74.5c72 0 128 -23 168 -69s60 -110.333 60 -193c0 -20.667 -1.66699 -40.334 -5 -59.001zM162.002 318.002h226.001c-1.33301 42.667 -11.833 75.667 -31.5 99s-46.834 35 -81.501 35
c-66 0 -103.667 -44.667 -113 -134z" />
    <glyph glyph-name="igrave" unicode="&#xec;" horiz-adv-x="278" 
d="M80 543h118v-543h-118v543zM-4 774v10h125l89 -159v-10h-90z" />
    <glyph glyph-name="iacute" unicode="&#xed;" horiz-adv-x="278" 
d="M80 543h118v-543h-118v543zM72 625l97 159h125v-10l-132 -159h-90v10z" />
    <glyph glyph-name="icircumflex" unicode="&#xee;" horiz-adv-x="278" 
d="M80 543h118v-543h-118v543zM296 625v-10h-84l-75 95l-75 -95h-80v10l102 159h110z" />
    <glyph glyph-name="idieresis" unicode="&#xef;" horiz-adv-x="278" 
d="M-1 642.5c-11.333 11.667 -17 27.501 -17 47.501c0 21.333 5.66699 37.833 17 49.5s27.333 17.5 48 17.5c20 0 35.833 -6 47.5 -18s17.5 -28 17.5 -48c0 -20.667 -5.66699 -36.834 -17 -48.501s-27.333 -17.5 -48 -17.5s-36.667 5.83301 -48 17.5zM182 642.501
c-11.333 11.667 -17 27.501 -17 47.501c0 21.333 5.66699 37.833 17 49.5s27.333 17.5 48 17.5c20 0 35.833 -6 47.5 -18s17.5 -28 17.5 -48c0 -20.667 -5.66699 -36.834 -17 -48.501s-27.333 -17.5 -48 -17.5s-36.667 5.83301 -48 17.5zM80 543.002h118v-543h-118v543z" />
    <glyph glyph-name="eth" unicode="&#xf0;" horiz-adv-x="561" 
d="M477.5 517c26.333 -62.667 39.501 -137.333 39.501 -224c0 -102 -20 -178.5 -60 -229.5s-99.667 -76.5 -179 -76.5c-76.667 0 -135.667 23.167 -177 69.5s-62 114.833 -62 205.5c0 86.667 19.5 153.5 58.5 200.5s94.167 70.5 165.5 70.5c49.333 0 88.333 -16 117 -48
c-22.667 56 -59.334 104.333 -110.001 145l-119 -73l-36 63l94 49c-21.333 12 -46.333 23.333 -75 34l-28 10l27 76l28 -10c50.667 -18.667 94.667 -39 132 -61l103 64l36 -63l-78 -42c56 -44 97.167 -97.333 123.5 -160zM397.001 269.001c0 51.333 -10.333 91.333 -31 120
s-49.667 43 -87 43c-79.333 0 -119 -56.667 -119 -170c0 -56 10 -98.333 30 -127s49.333 -43 88 -43c79.333 0 119 59 119 177z" />
    <glyph glyph-name="ntilde" unicode="&#xf1;" horiz-adv-x="586" 
d="M470 509.5c28.667 -31 43 -74.5 43 -130.5v-379h-118v364c0 54 -29.667 81 -89 81c-39.333 0 -76 -13.667 -110 -41v-404h-118v543h107v-66c44 52.667 98.667 79 164 79c52 0 92.333 -15.5 121 -46.5zM321 625c-12.667 6 -28.001 14.999 -46.001 26.999
c-10 8 -18.833 14 -26.5 18s-15.5 6 -23.5 6c-22.667 0 -36 -19.333 -40 -58h-68c1.33301 45.333 11.5 80.5 30.5 105.5s44.833 37.5 77.5 37.5c18 0 33.667 -3.16699 47 -9.5s28.333 -15.166 45 -26.499c10.667 -8 19.834 -13.833 27.501 -17.5s15.167 -5.5 22.5 -5.5
c22.667 0 36 19 40 57h68c-1.33301 -45.333 -11.5 -80.5 -30.5 -105.5s-44.833 -37.5 -77.5 -37.5c-18 0 -33.333 3 -46 9z" />
    <glyph glyph-name="ograve" unicode="&#xf2;" horiz-adv-x="561" 
d="M105 59c-40.667 48 -61 118.667 -61 212s20.5 164.166 61.5 212.499s99.5 72.5 175.5 72.5s134.333 -24.167 175 -72.5s61 -119.166 61 -212.499s-20.5 -164 -61.5 -212s-99.5 -72 -175.5 -72s-134.333 24 -175 72zM367 137c19.333 30 29 74.667 29 134
c0 119.333 -38.333 179 -115 179c-77.333 0 -116 -59.667 -116 -179c0 -59.333 9.66699 -104 29 -134s48 -45 86 -45c38.667 0 67.667 15 87 45zM138 774v10h125l89 -159v-10h-90z" />
    <glyph glyph-name="oacute" unicode="&#xf3;" horiz-adv-x="561" 
d="M105 59c-40.667 48 -61 118.667 -61 212s20.5 164.166 61.5 212.499s99.5 72.5 175.5 72.5s134.333 -24.167 175 -72.5s61 -119.166 61 -212.499s-20.5 -164 -61.5 -212s-99.5 -72 -175.5 -72s-134.333 24 -175 72zM367 137c19.333 30 29 74.667 29 134
c0 119.333 -38.333 179 -115 179c-77.333 0 -116 -59.667 -116 -179c0 -59.333 9.66699 -104 29 -134s48 -45 86 -45c38.667 0 67.667 15 87 45zM214 625l97 159h125v-10l-132 -159h-90v10z" />
    <glyph glyph-name="ocircumflex" unicode="&#xf4;" horiz-adv-x="561" 
d="M105 59c-40.667 48 -61 118.667 -61 212s20.5 164.166 61.5 212.499s99.5 72.5 175.5 72.5s134.333 -24.167 175 -72.5s61 -119.166 61 -212.499s-20.5 -164 -61.5 -212s-99.5 -72 -175.5 -72s-134.333 24 -175 72zM367 137c19.333 30 29 74.667 29 134
c0 119.333 -38.333 179 -115 179c-77.333 0 -116 -59.667 -116 -179c0 -59.333 9.66699 -104 29 -134s48 -45 86 -45c38.667 0 67.667 15 87 45zM438 625v-10h-84l-75 95l-75 -95h-80v10l102 159h110z" />
    <glyph glyph-name="otilde" unicode="&#xf5;" horiz-adv-x="561" 
d="M105 59c-40.667 48 -61 118.667 -61 212s20.5 164.166 61.5 212.499s99.5 72.5 175.5 72.5s134.333 -24.167 175 -72.5s61 -119.166 61 -212.499s-20.5 -164 -61.5 -212s-99.5 -72 -175.5 -72s-134.333 24 -175 72zM367 137c19.333 30 29 74.667 29 134
c0 119.333 -38.333 179 -115 179c-77.333 0 -116 -59.667 -116 -179c0 -59.333 9.66699 -104 29 -134s48 -45 86 -45c38.667 0 67.667 15 87 45zM306 625c-12.667 6 -28.001 14.999 -46.001 26.999c-10 8 -18.833 14 -26.5 18s-15.5 6 -23.5 6
c-22.667 0 -36 -19.333 -40 -58h-68c1.33301 45.333 11.5 80.5 30.5 105.5s44.833 37.5 77.5 37.5c18 0 33.667 -3.16699 47 -9.5s28.333 -15.166 45 -26.499c10.667 -8 19.834 -13.833 27.501 -17.5s15.167 -5.5 22.5 -5.5c22.667 0 36 19 40 57h68
c-1.33301 -45.333 -11.5 -80.5 -30.5 -105.5s-44.833 -37.5 -77.5 -37.5c-18 0 -33.333 3 -46 9z" />
    <glyph glyph-name="odieresis" unicode="&#xf6;" horiz-adv-x="561" 
d="M136.5 642.5c-11.667 11.667 -17.5 27.501 -17.5 47.501c0 21.333 5.83301 37.833 17.5 49.5s27.834 17.5 48.501 17.5s36.834 -6 48.501 -18s17.5 -28 17.5 -48c0 -20.667 -5.83301 -36.834 -17.5 -48.501s-27.834 -17.5 -48.501 -17.5s-36.834 5.83301 -48.501 17.5z
M328.5 642.501c-11.667 11.667 -17.5 27.501 -17.5 47.501c0 21.333 5.83301 37.833 17.5 49.5s27.834 17.5 48.501 17.5s36.834 -6 48.501 -18s17.5 -28 17.5 -48c0 -20.667 -5.83301 -36.834 -17.5 -48.501s-27.834 -17.5 -48.501 -17.5s-36.834 5.83301 -48.501 17.5z
M105 59.002c-40.667 48 -61 118.667 -61 212s20.5 164.166 61.5 212.499s99.5 72.5 175.5 72.5s134.333 -24.167 175 -72.5s61 -119.166 61 -212.499s-20.5 -164 -61.5 -212s-99.5 -72 -175.5 -72s-134.333 24 -175 72zM367 137.002c19.333 30 29 74.667 29 134
c0 119.333 -38.333 179 -115 179c-77.333 0 -116 -59.667 -116 -179c0 -59.333 9.66699 -104 29 -134s48 -45 86 -45c38.667 0 67.667 15 87 45z" />
    <glyph glyph-name="divide" unicode="&#xf7;" horiz-adv-x="577" 
d="M239.5 509c-13 12.667 -19.5 29.334 -19.5 50.001s6.5 37.5 19.5 50.5s29.5 19.5 49.5 19.5s36.5 -6.5 49.5 -19.5s19.5 -29.833 19.5 -50.5s-6.5 -37.334 -19.5 -50.001s-29.5 -19 -49.5 -19s-36.5 6.33301 -49.5 19zM59 420h459v-103h-459v103zM239.5 126.5
c-13 13 -19.5 29.833 -19.5 50.5s6.5 37.334 19.5 50.001s29.5 19 49.5 19s36.5 -6.33301 49.5 -19s19.5 -29.334 19.5 -50.001s-6.5 -37.5 -19.5 -50.5s-29.5 -19.5 -49.5 -19.5s-36.5 6.5 -49.5 19.5z" />
    <glyph glyph-name="oslash" unicode="&#xf8;" horiz-adv-x="561" 
d="M547 543l-73.001 -87.999c28.667 -47.333 43 -108.666 43 -183.999c0 -93.333 -20.5 -164 -61.5 -212s-99.5 -72 -175.5 -72c-58 0 -105.667 14.667 -143 44l-31 -41h-92v10l73 87c-28.667 47.333 -43 108.666 -43 183.999c0 93.333 20.5 164.166 61.5 212.499
s99.5 72.5 175.5 72.5c56.667 0 104.334 -14.667 143.001 -44l30 41h93v-10zM159.999 271.001c0 -34.667 2.33301 -62.667 7 -84l192 240c-18.667 18.667 -44.667 28 -78 28c-80.667 0 -121 -61.333 -121 -184zM400.999 271.001c0 34.667 -2.33301 62.667 -7 84l-192 -240
c18.667 -18.667 44.667 -28 78 -28c80.667 0 121 61.333 121 184z" />
    <glyph glyph-name="ugrave" unicode="&#xf9;" horiz-adv-x="578" 
d="M500 543v-543h-108v73c-40 -57.333 -93.667 -86 -161 -86c-50.667 0 -90 15.333 -118 46s-42 74 -42 130v380h118v-364c0 -54.667 28.667 -82 86 -82c20.667 0 39.5 4 56.5 12s33.833 21 50.5 39v395h118zM143 774v10h125l89 -159v-10h-90z" />
    <glyph glyph-name="uacute" unicode="&#xfa;" horiz-adv-x="578" 
d="M500 543v-543h-108v73c-40 -57.333 -93.667 -86 -161 -86c-50.667 0 -90 15.333 -118 46s-42 74 -42 130v380h118v-364c0 -54.667 28.667 -82 86 -82c20.667 0 39.5 4 56.5 12s33.833 21 50.5 39v395h118zM219 625l97 159h125v-10l-132 -159h-90v10z" />
    <glyph glyph-name="ucircumflex" unicode="&#xfb;" horiz-adv-x="578" 
d="M500 543v-543h-108v73c-40 -57.333 -93.667 -86 -161 -86c-50.667 0 -90 15.333 -118 46s-42 74 -42 130v380h118v-364c0 -54.667 28.667 -82 86 -82c20.667 0 39.5 4 56.5 12s33.833 21 50.5 39v395h118zM443 625v-10h-84l-75 95l-75 -95h-80v10l102 159h110z" />
    <glyph glyph-name="udieresis" unicode="&#xfc;" horiz-adv-x="578" 
d="M141.5 642.5c-11.667 11.667 -17.5 27.501 -17.5 47.501c0 21.333 5.83301 37.833 17.5 49.5s27.834 17.5 48.501 17.5s36.834 -6 48.501 -18s17.5 -28 17.5 -48c0 -20.667 -5.83301 -36.834 -17.5 -48.501s-27.834 -17.5 -48.501 -17.5s-36.834 5.83301 -48.501 17.5z
M333.5 642.501c-11.667 11.667 -17.5 27.501 -17.5 47.501c0 21.333 5.83301 37.833 17.5 49.5s27.834 17.5 48.501 17.5s36.834 -6 48.501 -18s17.5 -28 17.5 -48c0 -20.667 -5.83301 -36.834 -17.5 -48.501s-27.834 -17.5 -48.501 -17.5s-36.834 5.83301 -48.501 17.5z
M500 543.002v-543h-108v73c-40 -57.333 -93.667 -86 -161 -86c-50.667 0 -90 15.333 -118 46s-42 74 -42 130v380h118v-364c0 -54.667 28.667 -82 86 -82c20.667 0 39.5 4 56.5 12s33.833 21 50.5 39v395h118z" />
    <glyph glyph-name="yacute" unicode="&#xfd;" horiz-adv-x="521" 
d="M502 543l-172.002 -523.002c-19.333 -59.333 -50.5 -108.166 -93.5 -146.499s-101.167 -69.5 -174.5 -93.5l-40 100c46.667 16.667 83.834 34.334 111.501 53.001s49.834 40.667 66.501 66l-181 544h121l122 -415l120 415h120zM194.998 624.998l97 159h125v-10l-132 -159
h-90v10z" />
    <glyph glyph-name="thorn" unicode="&#xfe;" horiz-adv-x="579" 
d="M483 481c34.667 -50 51.999 -119.999 51.999 -209.999s-17.667 -159.833 -53 -209.5s-85 -74.5 -149 -74.5c-28 0 -53.833 5.16699 -77.5 15.5s-43.5 25.166 -59.5 44.499v-254h-118v977h118v-286c34 48 81 72 141 72c62.667 0 111.334 -25 146.001 -75zM413.999 267.001
c0 118.667 -38 178 -114 178c-20 0 -38.167 -4 -54.5 -12s-32.833 -21 -49.5 -39v-251c14 -16 30.5 -28.333 49.5 -37s38.833 -13 59.5 -13c72.667 0 109 58 109 174z" />
    <glyph glyph-name="ydieresis" unicode="&#xff;" horiz-adv-x="521" 
d="M117.5 642.5c-11.667 11.667 -17.5 27.501 -17.5 47.501c0 21.333 5.83301 37.833 17.5 49.5s27.834 17.5 48.501 17.5s36.834 -6 48.501 -18s17.5 -28 17.5 -48c0 -20.667 -5.83301 -36.834 -17.5 -48.501s-27.834 -17.5 -48.501 -17.5s-36.834 5.83301 -48.501 17.5z
M309.5 642.501c-11.667 11.667 -17.5 27.501 -17.5 47.501c0 21.333 5.83301 37.833 17.5 49.5s27.834 17.5 48.501 17.5s36.834 -6 48.501 -18s17.5 -28 17.5 -48c0 -20.667 -5.83301 -36.834 -17.5 -48.501s-27.834 -17.5 -48.501 -17.5s-36.834 5.83301 -48.501 17.5z
M502 543.002l-172.002 -523.002c-19.333 -59.333 -50.5 -108.166 -93.5 -146.499s-101.167 -69.5 -174.5 -93.5l-40 100c46.667 16.667 83.834 34.334 111.501 53.001s49.834 40.667 66.501 66l-181 544h121l122 -415l120 415h120z" />
    <glyph glyph-name="Amacron" unicode="&#x100;" horiz-adv-x="669" 
d="M492 807h-316v83h316v-83zM470 168h-272l-52 -168h-126l249 724h131l249 -724h-127zM437 273l-104 333l-103 -333h207z" />
    <glyph glyph-name="amacron" unicode="&#x101;" horiz-adv-x="534" 
d="M408.5 510c36.333 -30.667 54.502 -74.333 54.502 -131v-379h-106v76c-34 -58 -87.667 -87 -161 -87c-52.667 0 -93.334 14.333 -122.001 43s-43 68.667 -43 120c0 64.667 25.167 112.167 75.5 142.5s130.166 45.833 239.499 46.5v25c0 56 -36.333 84 -109 84
c-42.667 0 -85 -9.33301 -127 -28l-30 92c58 28 117 42 177 42c64.667 0 115.167 -15.333 151.5 -46zM346.002 146.001l0.000976562 114c-70 -1.33301 -121 -9.83301 -153 -25.5s-48 -40.167 -48 -73.5c0 -47.333 26.667 -71 80 -71c47.333 0 87.666 18.667 120.999 56z
M98.0029 720.001h316v-83h-316v83z" />
    <glyph glyph-name="Abreve" unicode="&#x102;" horiz-adv-x="669" 
d="M221.5 823.5c-27 28.333 -41.501 68.5 -43.501 120.5h71c6.66699 -50 35.334 -75 86.001 -75s79.667 25 87 75h68c-2 -52 -16.5 -92.167 -43.5 -120.5s-64.5 -42.5 -112.5 -42.5s-85.5 14.167 -112.5 42.5zM469.999 168h-272l-52 -168h-126l249 724h131l249 -724h-127z
M436.999 273l-104 333l-103 -333h207z" />
    <glyph glyph-name="abreve" unicode="&#x103;" horiz-adv-x="534" 
d="M408.5 510c36.333 -30.667 54.502 -74.333 54.502 -131v-379h-106v76c-34 -58 -87.667 -87 -161 -87c-52.667 0 -93.334 14.333 -122.001 43s-43 68.667 -43 120c0 64.667 25.167 112.167 75.5 142.5s130.166 45.833 239.499 46.5v25c0 56 -36.333 84 -109 84
c-42.667 0 -85 -9.33301 -127 -28l-30 92c58 28 117 42 177 42c64.667 0 115.167 -15.333 151.5 -46zM346.002 146.001l0.000976562 114c-70 -1.33301 -121 -9.83301 -153 -25.5s-48 -40.167 -48 -73.5c0 -47.333 26.667 -71 80 -71c47.333 0 87.666 18.667 120.999 56z
M143.503 653.501c-27 28.333 -41.501 68.5 -43.501 120.5h71c6.66699 -50 35.334 -75 86.001 -75s79.667 25 87 75h68c-2 -52 -16.5 -92.167 -43.5 -120.5s-64.5 -42.5 -112.5 -42.5s-85.5 14.167 -112.5 42.5z" />
    <glyph glyph-name="Aogonek" unicode="&#x104;" horiz-adv-x="669" 
d="M698 -196c-15.333 -9.33301 -32.833 -16.666 -52.5 -21.999s-39.834 -8 -60.501 -8c-37.333 0 -66.333 8.66699 -87 26s-31 41.666 -31 72.999c0 26 7.5 50 22.5 72s36.167 40.333 63.5 55h-31l-52 168h-272l-52 -168h-126l249 724h131l249 -724
c-56 -32 -84 -67.333 -84 -106c0 -27.333 15.667 -41 47 -41c18.667 0 38.334 5 59.001 15zM437 273l-104 333l-103 -333h207z" />
    <glyph glyph-name="aogonek" unicode="&#x105;" horiz-adv-x="534" 
d="M512 -196c-15.333 -9.33301 -32.8311 -16.665 -52.498 -21.998s-39.834 -8 -60.501 -8c-37.333 0 -66.333 8.66699 -87 26s-31 41.666 -31 72.999c0 26 7.5 50 22.5 72s36.167 40.333 63.5 55h-9v78c-20.667 -30.667 -44 -53.167 -70 -67.5s-56.667 -21.5 -92 -21.5
c-52.667 0 -93.334 14.333 -122.001 43s-43 68.667 -43 120c0 64.667 25.167 112.167 75.5 142.5s130.166 45.833 239.499 46.5v25c0 56 -36.333 84 -109 84c-42.667 0 -85 -9.33301 -127 -28l-30 92c58 28 117 42 177 42c64.667 0 115.167 -15.333 151.5 -46
s54.5 -74.334 54.5 -131.001v-379c-56 -32 -84 -67.333 -84 -106c0 -27.333 15.667 -41 47 -41c18.667 0 38.334 5 59.001 15zM346.002 146.001l0.000976562 114.001c-70 -0.666992 -121 -8.83398 -153 -24.501s-48 -40.5 -48 -74.5c0 -47.333 26.667 -71 80 -71
c47.333 0 87.666 18.667 120.999 56z" />
    <glyph glyph-name="Cacute" unicode="&#x106;" horiz-adv-x="602" 
d="M273 793l147 133h135v-12l-182 -133h-100v12zM129.5 82c-57.667 62.667 -86.498 150.999 -86.498 264.999c0 79.333 13.167 148.333 39.5 207s64 103.834 113 135.501s106.5 47.5 172.5 47.5c36 0 71.167 -4.83301 105.5 -14.5s64.833 -23.167 91.5 -40.5l-41 -93
c-52.667 26 -105.334 39 -158.001 39c-63.333 0 -112.333 -23.667 -147 -71s-52 -114.333 -52 -201c0 -85.333 17.833 -149.666 53.5 -192.999s88.5 -65 158.5 -65c60 0 110.333 11.667 151 35l41 -91c-21.333 -16.667 -49.5 -29.834 -84.5 -39.501
s-72.833 -14.5 -113.5 -14.5c-104.667 0 -185.834 31.333 -243.501 94z" />
    <glyph glyph-name="cacute" unicode="&#x107;" horiz-adv-x="482" 
d="M107 61c-44.667 48.667 -66.9971 116.999 -66.9971 204.999c0 58 10.333 108.833 31 152.5s50 77.5 88 101.5s82 36 132 36c29.333 0 58.166 -4.16699 86.499 -12.5s53.166 -20.166 74.499 -35.499l-43 -92c-44.667 21.333 -84.667 32 -120 32
c-40.667 0 -72.167 -15.333 -94.5 -46s-33.5 -73.667 -33.5 -129c0 -118 47 -177 141 -177c37.333 0 75.666 10.333 114.999 31l41 -91c-43.333 -32 -97.333 -48 -162 -48c-81.333 0 -144.333 24.333 -189 73zM199.003 624.999l97 159h125v-10l-132 -159h-90v10z" />
    <glyph glyph-name="Ccircumflex" unicode="&#x108;" horiz-adv-x="602" 
d="M263 781h-86v12l117 133h116l117 -133v-12h-90l-87 81zM571 42c-21.333 -16.667 -49.498 -29.835 -84.498 -39.502s-72.833 -14.5 -113.5 -14.5c-104.667 0 -185.834 31.333 -243.501 94s-86.5 151 -86.5 265c0 79.333 13.167 148.333 39.5 207s64 103.834 113 135.501
s106.5 47.5 172.5 47.5c36 0 71.167 -4.83301 105.5 -14.5s64.833 -23.167 91.5 -40.5l-41 -93c-52.667 26 -105.334 39 -158.001 39c-63.333 0 -112.333 -23.667 -147 -71s-52 -114.333 -52 -201c0 -85.333 17.833 -149.666 53.5 -192.999s88.5 -65 158.5 -65
c60 0 110.333 11.667 151 35z" />
    <glyph glyph-name="ccircumflex" unicode="&#x109;" horiz-adv-x="482" 
d="M107 61c-44.667 48.667 -66.9971 116.999 -66.9971 204.999c0 58 10.333 108.833 31 152.5s50 77.5 88 101.5s82 36 132 36c29.333 0 58.166 -4.16699 86.499 -12.5s53.166 -20.166 74.499 -35.499l-43 -92c-44.667 21.333 -84.667 32 -120 32
c-40.667 0 -72.167 -15.333 -94.5 -46s-33.5 -73.667 -33.5 -129c0 -118 47 -177 141 -177c37.333 0 75.666 10.333 114.999 31l41 -91c-43.333 -32 -97.333 -48 -162 -48c-81.333 0 -144.333 24.333 -189 73zM423.003 624.999v-10h-84l-75 95l-75 -95h-80v10l102 159h110z
" />
    <glyph glyph-name="Cdotaccent" unicode="&#x10a;" horiz-adv-x="602" 
d="M298.5 810c-13 12.667 -19.5 29.667 -19.5 51c0 22.667 6.33301 40.167 19 52.5s30.667 18.5 54 18.5c22.667 0 40.5 -6.33301 53.5 -19s19.5 -29.667 19.5 -51c0 -22.667 -6.33301 -40.167 -19 -52.5s-30.667 -18.5 -54 -18.5c-22.667 0 -40.5 6.33301 -53.5 19z
M129.5 82c-57.667 62.667 -86.498 150.999 -86.498 264.999c0 79.333 13.167 148.333 39.5 207s64 103.834 113 135.501s106.5 47.5 172.5 47.5c36 0 71.167 -4.83301 105.5 -14.5s64.833 -23.167 91.5 -40.5l-41 -93c-52.667 26 -105.334 39 -158.001 39
c-63.333 0 -112.333 -23.667 -147 -71s-52 -114.333 -52 -201c0 -85.333 17.833 -149.666 53.5 -192.999s88.5 -65 158.5 -65c60 0 110.333 11.667 151 35l41 -91c-21.333 -16.667 -49.5 -29.834 -84.5 -39.501s-72.833 -14.5 -113.5 -14.5
c-104.667 0 -185.834 31.333 -243.501 94z" />
    <glyph glyph-name="cdotaccent" unicode="&#x10b;" horiz-adv-x="482" 
d="M107 61c-44.667 48.667 -66.9971 116.999 -66.9971 204.999c0 58 10.333 108.833 31 152.5s50 77.5 88 101.5s82 36 132 36c29.333 0 58.166 -4.16699 86.499 -12.5s53.166 -20.166 74.499 -35.499l-43 -92c-44.667 21.333 -84.667 32 -120 32
c-40.667 0 -72.167 -15.333 -94.5 -46s-33.5 -73.667 -33.5 -129c0 -118 47 -177 141 -177c37.333 0 75.666 10.333 114.999 31l41 -91c-43.333 -32 -97.333 -48 -162 -48c-81.333 0 -144.333 24.333 -189 73zM212.503 639.999c-13 12.667 -19.5 29.667 -19.5 51
c0 22.667 6.33301 40.167 19 52.5s30.667 18.5 54 18.5c22.667 0 40.5 -6.33301 53.5 -19s19.5 -29.667 19.5 -51c0 -22.667 -6.33301 -40.167 -19 -52.5s-30.667 -18.5 -54 -18.5c-22.667 0 -40.5 6.33301 -53.5 19z" />
    <glyph glyph-name="Ccaron" unicode="&#x10c;" horiz-adv-x="602" 
d="M294 781l-117 133v12h90l87 -81l87 81h86v-12l-117 -133h-116zM571 42c-21.333 -16.667 -49.498 -29.835 -84.498 -39.502s-72.833 -14.5 -113.5 -14.5c-104.667 0 -185.834 31.333 -243.501 94s-86.5 151 -86.5 265c0 79.333 13.167 148.333 39.5 207
s64 103.834 113 135.501s106.5 47.5 172.5 47.5c36 0 71.167 -4.83301 105.5 -14.5s64.833 -23.167 91.5 -40.5l-41 -93c-52.667 26 -105.334 39 -158.001 39c-63.333 0 -112.333 -23.667 -147 -71s-52 -114.333 -52 -201c0 -85.333 17.833 -149.666 53.5 -192.999
s88.5 -65 158.5 -65c60 0 110.333 11.667 151 35z" />
    <glyph glyph-name="ccaron" unicode="&#x10d;" horiz-adv-x="482" 
d="M107 61c-44.667 48.667 -66.9971 116.999 -66.9971 204.999c0 58 10.333 108.833 31 152.5s50 77.5 88 101.5s82 36 132 36c29.333 0 58.166 -4.16699 86.499 -12.5s53.166 -20.166 74.499 -35.499l-43 -92c-44.667 21.333 -84.667 32 -120 32
c-40.667 0 -72.167 -15.333 -94.5 -46s-33.5 -73.667 -33.5 -129c0 -118 47 -177 141 -177c37.333 0 75.666 10.333 114.999 31l41 -91c-43.333 -32 -97.333 -48 -162 -48c-81.333 0 -144.333 24.333 -189 73zM423.003 783.999v-10l-102 -159h-110l-102 159v10h84l75 -95
l75 95h80z" />
    <glyph glyph-name="Dcaron" unicode="&#x10e;" horiz-adv-x="692" 
d="M281 781l-117 133v12h90l87 -81l87 81h86v-12l-117 -133h-116zM555 633c56 -60.667 83.999 -150.667 83.999 -270c0 -120 -28.167 -210.5 -84.5 -271.5s-138.166 -91.5 -245.499 -91.5h-225v724h226c107.333 0 189 -30.333 245 -91zM462.999 171.5
c34.667 43 51.999 106.833 51.999 191.5c0 169.333 -69.333 254 -208 254h-103v-510h104c68.667 0 120.334 21.5 155.001 64.5z" />
    <glyph glyph-name="dcaron" unicode="&#x10f;" horiz-adv-x="596" 
d="M383 770l118.001 -0.000976562v-770h-107v76c-35.333 -59.333 -86 -89 -152 -89c-62.667 0 -111.334 25 -146.001 75s-52 120 -52 210s17.667 159.833 53 209.5s85 74.5 149 74.5c28 0 53.833 -5.16699 77.5 -15.5s43.5 -25.166 59.5 -44.499v274zM659.001 769.999v-10
l-32 -214h-68v224h100zM333.501 109.999c16.333 8 32.833 21 49.5 39v251c-14 16 -30.5 28.333 -49.5 37s-38.833 13 -59.5 13c-72.667 0 -109 -58 -109 -174c0 -118.667 38 -178 114 -178c20 0 38.167 4 54.5 12z" />
    <glyph glyph-name="Dcroat" unicode="&#x110;" horiz-adv-x="692" 
d="M555 633c56 -60.667 83.999 -150.667 83.999 -270c0 -120 -28.167 -210.5 -84.5 -271.5s-138.166 -91.5 -245.499 -91.5h-225v320h-65v93h65v311h226c107.333 0 189 -30.333 245 -91zM462.999 171.5c34.667 43 51.999 106.833 51.999 191.5
c0 169.333 -69.333 254 -208 254h-103v-204h164v-93h-164v-213h104c68.667 0 120.334 21.5 155.001 64.5z" />
    <glyph glyph-name="dcroat" unicode="&#x111;" horiz-adv-x="581" 
d="M567 608l-64 0.000976562v-608h-107v76c-34.667 -59.333 -85.334 -89 -152.001 -89c-63.333 0 -112.5 24.167 -147.5 72.5s-52.5 116.166 -52.5 203.499s17.833 155.166 53.5 203.499s85.834 72.5 150.501 72.5c28 0 53.833 -5.16699 77.5 -15.5
s43.5 -25.166 59.5 -44.499v129h-204v82h204v80h118v-80h64v-82zM335.5 109.001c16.333 8 32.833 21 49.5 39v235c-14 15.333 -30.667 27.5 -50 36.5s-39 13.5 -59 13.5c-74 0 -111 -55.333 -111 -166c0 -113.333 38.667 -170 116 -170c20 0 38.167 4 54.5 12z" />
    <glyph glyph-name="Emacron" unicode="&#x112;" horiz-adv-x="577" 
d="M465 807h-316v83h316v-83zM542 107v-107h-458v724h445v-107h-325v-193h240v-108h-240v-209h338z" />
    <glyph glyph-name="emacron" unicode="&#x113;" horiz-adv-x="544" 
d="M501 235h-338.998c9.33301 -93.333 57.666 -140 144.999 -140c47.333 0 91.666 11.667 132.999 35l43 -89c-24.667 -16.667 -53.5 -29.667 -86.5 -39s-66.833 -14 -101.5 -14c-80.667 0 -143 24.833 -187 74.5s-66 119.167 -66 208.5c0 90.667 20.667 160.834 62 210.501
s99.333 74.5 174 74.5c72 0 128 -23 168 -69s60 -110.333 60 -193c0 -20.667 -1.66699 -40.334 -5 -59.001zM162.002 318h226.001c-1.33301 42.667 -11.833 75.667 -31.5 99s-46.834 35 -81.501 35c-66 0 -103.667 -44.667 -113 -134zM119.003 720h316v-83h-316v83z" />
    <glyph glyph-name="Ebreve" unicode="&#x114;" horiz-adv-x="577" 
d="M194.5 823.5c-27 28.333 -41.5 68.5 -43.5 120.5h71c7.33301 -50 36 -75 86 -75c51.333 0 80.333 25 87 75h68c-2 -52 -16.5 -92.167 -43.5 -120.5s-64.5 -42.5 -112.5 -42.5s-85.5 14.167 -112.5 42.5zM542 107v-107h-458v724h445v-107h-325v-193h240v-108h-240v-209
h338z" />
    <glyph glyph-name="ebreve" unicode="&#x115;" horiz-adv-x="544" 
d="M501 235h-338.998c9.33301 -93.333 57.666 -140 144.999 -140c47.333 0 91.666 11.667 132.999 35l43 -89c-24.667 -16.667 -53.5 -29.667 -86.5 -39s-66.833 -14 -101.5 -14c-80.667 0 -143 24.833 -187 74.5s-66 119.167 -66 208.5c0 90.667 20.667 160.834 62 210.501
s99.333 74.5 174 74.5c72 0 128 -23 168 -69s60 -110.333 60 -193c0 -20.667 -1.66699 -40.334 -5 -59.001zM162.002 318h226.001c-1.33301 42.667 -11.833 75.667 -31.5 99s-46.834 35 -81.501 35c-66 0 -103.667 -44.667 -113 -134zM164.503 653.5
c-27 28.333 -41.501 68.5 -43.501 120.5h71c6.66699 -50 35.334 -75 86.001 -75s79.667 25 87 75h68c-2 -52 -16.5 -92.167 -43.5 -120.5s-64.5 -42.5 -112.5 -42.5s-85.5 14.167 -112.5 42.5z" />
    <glyph glyph-name="Edotaccent" unicode="&#x116;" horiz-adv-x="577" 
d="M253.5 810c-13 12.667 -19.5 29.667 -19.5 51c0 22.667 6.33301 40.167 19 52.5s30.667 18.5 54 18.5c22.667 0 40.5 -6.33301 53.5 -19s19.5 -29.667 19.5 -51c0 -22.667 -6.33301 -40.167 -19 -52.5s-30.667 -18.5 -54 -18.5c-22.667 0 -40.5 6.33301 -53.5 19z
M542 107v-107h-458v724h445v-107h-325v-193h240v-108h-240v-209h338z" />
    <glyph glyph-name="edotaccent" unicode="&#x117;" horiz-adv-x="544" 
d="M501 235h-338.998c9.33301 -93.333 57.666 -140 144.999 -140c47.333 0 91.666 11.667 132.999 35l43 -89c-24.667 -16.667 -53.5 -29.667 -86.5 -39s-66.833 -14 -101.5 -14c-80.667 0 -143 24.833 -187 74.5s-66 119.167 -66 208.5c0 90.667 20.667 160.834 62 210.501
s99.333 74.5 174 74.5c72 0 128 -23 168 -69s60 -110.333 60 -193c0 -20.667 -1.66699 -40.334 -5 -59.001zM162.002 318h226.001c-1.33301 42.667 -11.833 75.667 -31.5 99s-46.834 35 -81.501 35c-66 0 -103.667 -44.667 -113 -134zM223.503 640
c-13 12.667 -19.5 29.667 -19.5 51c0 22.667 6.33301 40.167 19 52.5s30.667 18.5 54 18.5c22.667 0 40.5 -6.33301 53.5 -19s19.5 -29.667 19.5 -51c0 -22.667 -6.33301 -40.167 -19 -52.5s-30.667 -18.5 -54 -18.5c-22.667 0 -40.5 6.33301 -53.5 19z" />
    <glyph glyph-name="Eogonek" unicode="&#x118;" horiz-adv-x="577" 
d="M592 -196c-15.333 -9.33301 -32.833 -16.666 -52.5 -21.999s-39.834 -8 -60.501 -8c-37.333 0 -66.333 8.66699 -87 26s-31 41.666 -31 72.999c0 26 7.5 50 22.5 72s36.167 40.333 63.5 55h-363v724h445v-107h-325v-193h240v-108h-240v-209h338v-107h1
c-56 -32 -84 -67.333 -84 -106c0 -27.333 15.667 -41 47 -41c18.667 0 38.334 5 59.001 15z" />
    <glyph glyph-name="eogonek" unicode="&#x119;" horiz-adv-x="544" 
d="M501 235h-338.999c9.33301 -93.333 57.666 -140 144.999 -140c47.333 0 91.666 11.667 132.999 35l43 -89c-10.667 -6.66699 -22.667 -13.334 -36 -20.001c-29.333 -15.333 -53.166 -34.666 -71.499 -57.999s-27.5 -46.333 -27.5 -69c0 -27.333 15.333 -41 46 -41
c18.667 0 38.667 5 60 15l27 -64c-14.667 -9.33301 -32 -16.666 -52 -21.999s-40.333 -8 -61 -8c-37.333 0 -66.333 8.66699 -87 26s-31 41.666 -31 72.999c0 22 5.33301 43 16 63s26 37.667 46 53c-4 -0.666992 -9.66699 -1 -17 -1c-80.667 0 -143 24.833 -187 74.5
s-66 119.167 -66 208.5c0 90.667 20.667 160.834 62 210.501s99.333 74.5 174 74.5c72 0 128 -23 168 -69s60 -110.333 60 -193c0 -20.667 -1.66699 -40.334 -5 -59.001zM162.001 318h226.001c-1.33301 42.667 -11.833 75.667 -31.5 99s-46.834 35 -81.501 35
c-66 0 -103.667 -44.667 -113 -134z" />
    <glyph glyph-name="Ecaron" unicode="&#x11a;" horiz-adv-x="577" 
d="M249 781l-117 133v12h90l87 -81l87 81h86v-12l-117 -133h-116zM542 107v-107h-458v724h445v-107h-325v-193h240v-108h-240v-209h338z" />
    <glyph glyph-name="ecaron" unicode="&#x11b;" horiz-adv-x="544" 
d="M501 235h-338.998c9.33301 -93.333 57.666 -140 144.999 -140c47.333 0 91.666 11.667 132.999 35l43 -89c-24.667 -16.667 -53.5 -29.667 -86.5 -39s-66.833 -14 -101.5 -14c-80.667 0 -143 24.833 -187 74.5s-66 119.167 -66 208.5c0 90.667 20.667 160.834 62 210.501
s99.333 74.5 174 74.5c72 0 128 -23 168 -69s60 -110.333 60 -193c0 -20.667 -1.66699 -40.334 -5 -59.001zM162.002 318h226.001c-1.33301 42.667 -11.833 75.667 -31.5 99s-46.834 35 -81.501 35c-66 0 -103.667 -44.667 -113 -134zM434.003 784v-10l-102 -159h-110
l-102 159v10h84l75 -95l75 95h80z" />
    <glyph glyph-name="Gcircumflex" unicode="&#x11c;" horiz-adv-x="668" 
d="M271 781h-86v12l117 133h116l117 -133v-12h-90l-87 81zM604 405l0.000976562 -363.003c-26.667 -17.333 -58.834 -30.833 -96.501 -40.5s-77.5 -14.5 -119.5 -14.5c-106.667 0 -189.167 32.833 -247.5 98.5s-87.5 157.834 -87.5 276.501s29.167 210.834 87.5 276.501
s140.833 98.5 247.5 98.5c40.667 0 79 -4.66699 115 -14s66.667 -22.666 92 -39.999l-36 -96c-60 28 -117.667 42 -173 42c-139.333 0 -209 -89 -209 -267c0 -178.667 70.333 -268 211 -268c31.333 0 63.333 4.33301 96 13v191h-123v107h243z" />
    <glyph glyph-name="gcircumflex" unicode="&#x11d;" horiz-adv-x="581" 
d="M503 543l-0.00195312 -527.999c0 -74.667 -21.333 -132.5 -64 -173.5s-103 -61.5 -181 -61.5c-30.667 0 -61.167 3.33301 -91.5 10s-57.166 16 -80.499 28l34 95c42.667 -19.333 85 -29 127 -29c92 0 138 43.667 138 131v73c-33.333 -47.333 -80.333 -71 -141 -71
c-63.333 0 -112.5 23.667 -147.5 71s-52.5 113.666 -52.5 198.999s17.833 151.5 53.5 198.5s85.834 70.5 150.501 70.5c31.333 0 59.833 -6.5 85.5 -19.5s46.5 -31.167 62.5 -54.5v61h107zM335.998 139.501c16.667 8.33301 33 21.167 49 38.5v221
c-14 16 -30.5 28.333 -49.5 37s-38.833 13 -59.5 13c-74 0 -111 -53 -111 -159c0 -108.667 38.667 -163 116 -163c20 0 38.333 4.16699 55 12.5zM443.998 625.002v-10h-84l-75 95l-75 -95h-80v10l102 159h110z" />
    <glyph glyph-name="Gbreve" unicode="&#x11e;" horiz-adv-x="668" 
d="M247.5 823.5c-27 28.333 -41.5 68.5 -43.5 120.5h71c7.33301 -50 36 -75 86 -75c51.333 0 80.333 25 87 75h68c-2 -52 -16.5 -92.167 -43.5 -120.5s-64.5 -42.5 -112.5 -42.5s-85.5 14.167 -112.5 42.5zM604 405l0.000976562 -363.003
c-26.667 -17.333 -58.834 -30.833 -96.501 -40.5s-77.5 -14.5 -119.5 -14.5c-106.667 0 -189.167 32.833 -247.5 98.5s-87.5 157.834 -87.5 276.501s29.167 210.834 87.5 276.501s140.833 98.5 247.5 98.5c40.667 0 79 -4.66699 115 -14s66.667 -22.666 92 -39.999l-36 -96
c-60 28 -117.667 42 -173 42c-139.333 0 -209 -89 -209 -267c0 -178.667 70.333 -268 211 -268c31.333 0 63.333 4.33301 96 13v191h-123v107h243z" />
    <glyph glyph-name="gbreve" unicode="&#x11f;" horiz-adv-x="581" 
d="M503 543l-0.00195312 -527.999c0 -74.667 -21.333 -132.5 -64 -173.5s-103 -61.5 -181 -61.5c-30.667 0 -61.167 3.33301 -91.5 10s-57.166 16 -80.499 28l34 95c42.667 -19.333 85 -29 127 -29c92 0 138 43.667 138 131v73c-33.333 -47.333 -80.333 -71 -141 -71
c-63.333 0 -112.5 23.667 -147.5 71s-52.5 113.666 -52.5 198.999s17.833 151.5 53.5 198.5s85.834 70.5 150.501 70.5c31.333 0 59.833 -6.5 85.5 -19.5s46.5 -31.167 62.5 -54.5v61h107zM335.998 139.501c16.667 8.33301 33 21.167 49 38.5v221
c-14 16 -30.5 28.333 -49.5 37s-38.833 13 -59.5 13c-74 0 -111 -53 -111 -159c0 -108.667 38.667 -163 116 -163c20 0 38.333 4.16699 55 12.5zM174.498 653.502c-27 28.333 -41.501 68.5 -43.501 120.5h71c6.66699 -50 35.334 -75 86.001 -75s79.667 25 87 75h68
c-2 -52 -16.5 -92.167 -43.5 -120.5s-64.5 -42.5 -112.5 -42.5s-85.5 14.167 -112.5 42.5z" />
    <glyph glyph-name="Gdotaccent" unicode="&#x120;" horiz-adv-x="668" 
d="M306.5 810c-13 12.667 -19.5 29.667 -19.5 51c0 22.667 6.33301 40.167 19 52.5s30.667 18.5 54 18.5c22.667 0 40.5 -6.33301 53.5 -19s19.5 -29.667 19.5 -51c0 -22.667 -6.33301 -40.167 -19 -52.5s-30.667 -18.5 -54 -18.5c-22.667 0 -40.5 6.33301 -53.5 19z
M604 405l0.000976562 -363.003c-26.667 -17.333 -58.834 -30.833 -96.501 -40.5s-77.5 -14.5 -119.5 -14.5c-106.667 0 -189.167 32.833 -247.5 98.5s-87.5 157.834 -87.5 276.501s29.167 210.834 87.5 276.501s140.833 98.5 247.5 98.5c40.667 0 79 -4.66699 115 -14
s66.667 -22.666 92 -39.999l-36 -96c-60 28 -117.667 42 -173 42c-139.333 0 -209 -89 -209 -267c0 -178.667 70.333 -268 211 -268c31.333 0 63.333 4.33301 96 13v191h-123v107h243z" />
    <glyph glyph-name="gdotaccent" unicode="&#x121;" horiz-adv-x="581" 
d="M503 543l-0.00195312 -527.999c0 -74.667 -21.333 -132.5 -64 -173.5s-103 -61.5 -181 -61.5c-30.667 0 -61.167 3.33301 -91.5 10s-57.166 16 -80.499 28l34 95c42.667 -19.333 85 -29 127 -29c92 0 138 43.667 138 131v73c-33.333 -47.333 -80.333 -71 -141 -71
c-63.333 0 -112.5 23.667 -147.5 71s-52.5 113.666 -52.5 198.999s17.833 151.5 53.5 198.5s85.834 70.5 150.501 70.5c31.333 0 59.833 -6.5 85.5 -19.5s46.5 -31.167 62.5 -54.5v61h107zM335.998 139.501c16.667 8.33301 33 21.167 49 38.5v221
c-14 16 -30.5 28.333 -49.5 37s-38.833 13 -59.5 13c-74 0 -111 -53 -111 -159c0 -108.667 38.667 -163 116 -163c20 0 38.333 4.16699 55 12.5zM233.498 640.002c-13 12.667 -19.5 29.667 -19.5 51c0 22.667 6.33301 40.167 19 52.5s30.667 18.5 54 18.5
c22.667 0 40.5 -6.33301 53.5 -19s19.5 -29.667 19.5 -51c0 -22.667 -6.33301 -40.167 -19 -52.5s-30.667 -18.5 -54 -18.5c-22.667 0 -40.5 6.33301 -53.5 19z" />
    <glyph glyph-name="Gcommaaccent" unicode="&#x122;" horiz-adv-x="668" 
d="M604 405l0.000976562 -363.003c-26.667 -17.333 -58.834 -30.833 -96.501 -40.5s-77.5 -14.5 -119.5 -14.5c-106.667 0 -189.167 32.833 -247.5 98.5s-87.5 157.834 -87.5 276.501s29.167 210.834 87.5 276.501s140.833 98.5 247.5 98.5c40.667 0 79 -4.66699 115 -14
s66.667 -22.666 92 -39.999l-36 -96c-60 28 -117.667 42 -173 42c-139.333 0 -209 -89 -209 -267c0 -178.667 70.333 -268 211 -268c31.333 0 63.333 4.33301 96 13v191h-123v107h243zM262.001 -238.003c16.667 18.667 28.333 37.001 35 55.001s10 40.333 10 67
c0 18 -1 33 -3 45h109c2.66699 -16 4 -30.667 4 -44c0 -31.333 -8.83301 -60.333 -26.5 -87s-46.167 -54.334 -85.5 -83.001z" />
    <glyph glyph-name="gcommaaccent" unicode="&#x123;" horiz-adv-x="581" 
d="M503 543l-0.00195312 -527.999c0 -74.667 -21.333 -132.5 -64 -173.5s-103 -61.5 -181 -61.5c-30.667 0 -61.167 3.33301 -91.5 10s-57.166 16 -80.499 28l34 95c42.667 -19.333 85 -29 127 -29c92 0 138 43.667 138 131v73c-33.333 -47.333 -80.333 -71 -141 -71
c-63.333 0 -112.5 23.667 -147.5 71s-52.5 113.666 -52.5 198.999s17.833 151.5 53.5 198.5s85.834 70.5 150.501 70.5c31.333 0 59.833 -6.5 85.5 -19.5s46.5 -31.167 62.5 -54.5v61h107zM335.998 139.501c16.667 8.33301 33 21.167 49 38.5v221
c-14 16 -30.5 28.333 -49.5 37s-38.833 13 -59.5 13c-74 0 -111 -53 -111 -159c0 -108.667 38.667 -163 116 -163c20 0 38.333 4.16699 55 12.5zM380.998 775.002c-16.667 -18.667 -28.333 -37.001 -35 -55.001s-10 -40.333 -10 -67c0 -18 1 -33 3 -45h-109
c-2.66699 16 -4 30.667 -4 44c0 31.333 8.83301 60.333 26.5 87s46.167 54.334 85.5 83.001z" />
    <glyph glyph-name="Hcircumflex" unicode="&#x124;" horiz-adv-x="703" 
d="M262 781h-86v12l117 133h116l117 -133v-12h-90l-87 81zM619 724v-724h-120v314h-295v-314h-120v724h120v-303h295v303h120z" />
    <glyph glyph-name="hcircumflex" unicode="&#x125;" horiz-adv-x="588" 
d="M135 908l-87 -81h-86v12l117 133h116l117 -133v-12h-90zM472 509.5c28.667 -31 42.999 -74.5 42.999 -130.5v-379h-118v364c0 54 -30 81 -90 81c-20.667 0 -40 -3.33301 -58 -10s-35.667 -17 -53 -31v-404h-118v770h118v-281c42.667 44.667 94 67 154 67
c52.667 0 93.334 -15.5 122.001 -46.5z" />
    <glyph glyph-name="Hbar" unicode="&#x126;" horiz-adv-x="703" 
d="M684 523h-65v-523h-120v314h-295v-314h-120v523h-65v91h65v110h120v-110h295v110h120v-110h65v-91zM499 523h-295v-102h295v102z" />
    <glyph glyph-name="hbar" unicode="&#x127;" horiz-adv-x="590" 
d="M473.5 491.5c29 -31 43.499 -74.5 43.499 -130.5v-361h-118v346c0 54 -30.333 81 -91 81c-21.333 0 -41 -3.33301 -59 -10s-35.667 -17 -53 -31v-386h-118v608h-63v82h63v80h118v-80h207v-82h-207v-137c42.667 44.667 94.334 67 155.001 67
c52.667 0 93.5 -15.5 122.5 -46.5z" />
    <glyph glyph-name="Itilde" unicode="&#x128;" horiz-adv-x="291" 
d="M161 795.5c-10.667 6.33301 -21.667 15.499 -33 27.499c-7.33301 8 -14 14 -20 18s-12.667 6 -20 6c-24 0 -37.333 -19.667 -40 -59h-67c0 45.333 9.5 80.5 28.5 105.5s45.167 37.5 78.5 37.5c18 0 32.333 -3.16699 43 -9.5s21.667 -15.166 33 -26.499
c7.33301 -8 14 -14 20 -18s12.667 -6 20 -6c24 0 37.333 19.333 40 58h67c0 -45.333 -9.33301 -80.5 -28 -105.5s-45 -37.5 -79 -37.5c-18 0 -32.333 3.16699 -43 9.5zM86 723.999h120v-724h-120v724z" />
    <glyph glyph-name="itilde" unicode="&#x129;" horiz-adv-x="278" 
d="M154 625.5c-10.667 6.33301 -21.667 15.499 -33 27.499c-7.33301 8 -14 14 -20 18s-12.667 6 -20 6c-24 0 -37.333 -19.667 -40 -59h-67c0 45.333 9.5 80.5 28.5 105.5s45.167 37.5 78.5 37.5c18 0 32.333 -3.16699 43 -9.5s21.667 -15.166 33 -26.499
c7.33301 -8 14 -14 20 -18s12.667 -6 20 -6c24 0 37.333 19.333 40 58h67c0 -45.333 -9.33301 -80.5 -28 -105.5s-45 -37.5 -79 -37.5c-18 0 -32.333 3.16699 -43 9.5zM80 542.999h118v-543h-118v543z" />
    <glyph glyph-name="Imacron" unicode="&#x12a;" horiz-adv-x="291" 
d="M-12 890h316v-83h-316v83zM86 724h120v-724h-120v724z" />
    <glyph glyph-name="imacron" unicode="&#x12b;" horiz-adv-x="278" 
d="M14 720h250v-83h-250v83zM80 543h118v-543h-118v543z" />
    <glyph glyph-name="Ibreve" unicode="&#x12c;" horiz-adv-x="291" 
d="M33.5 823.5c-27 28.333 -41.5 68.5 -43.5 120.5h71c7.33301 -50 36 -75 86 -75c51.333 0 80.333 25 87 75h68c-2 -52 -16.5 -92.167 -43.5 -120.5s-64.5 -42.5 -112.5 -42.5s-85.5 14.167 -112.5 42.5zM86 724h120v-724h-120v724z" />
    <glyph glyph-name="ibreve" unicode="&#x12d;" horiz-adv-x="278" 
d="M80 543h118v-543h-118v543zM26.5 653.5c-27 28.333 -41.501 68.5 -43.501 120.5h71c6.66699 -50 35.334 -75 86.001 -75s79.667 25 87 75h68c-2 -52 -16.5 -92.167 -43.5 -120.5s-64.5 -42.5 -112.5 -42.5s-85.5 14.167 -112.5 42.5z" />
    <glyph glyph-name="Iogonek" unicode="&#x12e;" horiz-adv-x="291" 
d="M270 -196c-15.333 -9.33301 -32.668 -16.666 -52.001 -21.999s-39.333 -8 -60 -8c-37.333 0 -66.5 8.66699 -87.5 26s-31.5 41.666 -31.5 72.999c0 25.333 6.5 49 19.5 71s31.5 40.667 55.5 56h-28v724h120v-724c-46 -34.667 -69 -70 -69 -106
c0 -27.333 15.667 -41 47 -41c18.667 0 38.334 5 59.001 15z" />
    <glyph glyph-name="iogonek" unicode="&#x12f;" horiz-adv-x="278" 
d="M85.5 640c-13 12.667 -19.5 29.667 -19.5 51c0 22.667 6.33301 40.167 19 52.5s30.667 18.5 54 18.5c22.667 0 40.5 -6.33301 53.5 -19s19.5 -29.667 19.5 -51c0 -22.667 -6.33301 -40.167 -19 -52.5s-30.667 -18.5 -54 -18.5c-22.667 0 -40.5 6.33301 -53.5 19z
M263 -196c-14.667 -9.33301 -32 -16.665 -52 -21.998s-40.333 -8 -61 -8c-36.667 0 -65.5 8.66699 -86.5 26s-31.5 41.666 -31.5 72.999c0 24.667 6.5 48.167 19.5 70.5s31.167 41.166 54.5 56.499h-26v543h118v-543c-45.333 -34 -68 -69.333 -68 -106
c0 -27.333 15.333 -41 46 -41c19.333 0 39.333 5 60 15z" />
    <glyph glyph-name="Idotaccent" unicode="&#x130;" horiz-adv-x="291" 
d="M92.5 810c-13 12.667 -19.5 29.667 -19.5 51c0 22.667 6.33301 40.167 19 52.5s30.667 18.5 54 18.5c22.667 0 40.5 -6.33301 53.5 -19s19.5 -29.667 19.5 -51c0 -22.667 -6.33301 -40.167 -19 -52.5s-30.667 -18.5 -54 -18.5c-22.667 0 -40.5 6.33301 -53.5 19zM86 724
h120v-724h-120v724z" />
    <glyph glyph-name="dotlessi" unicode="&#x131;" horiz-adv-x="278" 
d="M80 543h118v-543h-118v543z" />
    <glyph glyph-name="IJ" unicode="&#x132;" horiz-adv-x="690" 
d="M84 724h120v-724h-120v724zM340 -4.5c-24.667 5.66699 -47 13.834 -67 24.501l38 100c40.667 -16.667 73.667 -25 99 -25c54 0 81 32.333 81 97v532h120v-539c0 -62.667 -17.167 -111.334 -51.5 -146.001s-82.5 -52 -144.5 -52c-25.333 0 -50.333 2.83301 -75 8.5z" />
    <glyph glyph-name="ij" unicode="&#x133;" horiz-adv-x="556" 
d="M80 543h118v-543h-118v543zM85.5 640c-13 12.667 -19.5 29.667 -19.5 51c0 22.667 6.33301 40.167 19 52.5s30.667 18.5 54 18.5c22.667 0 40.5 -6.33301 53.5 -19s19.5 -29.667 19.5 -51c0 -22.667 -6.33301 -40.167 -19 -52.5s-30.667 -18.5 -54 -18.5
c-22.667 0 -40.5 6.33301 -53.5 19zM217 -125c38.667 13.333 67.833 26.835 87.5 40.502s33.5 30.5 41.5 50.5s12 46.333 12 79v498h118v-500c0 -50.667 -6.5 -91.834 -19.5 -123.501s-35.167 -58.334 -66.5 -80.001s-76 -42.167 -134 -61.5zM363.499 640.002
c-13 12.667 -19.5 29.667 -19.5 51c0 22.667 6.33301 40.167 19 52.5s30.667 18.5 54 18.5c22.667 0 40.5 -6.33301 53.5 -19s19.5 -29.667 19.5 -51c0 -22.667 -6.33301 -40.167 -19 -52.5s-30.667 -18.5 -54 -18.5c-22.667 0 -40.5 6.33301 -53.5 19z" />
    <glyph glyph-name="Jcircumflex" unicode="&#x134;" horiz-adv-x="466" 
d="M503 793v-12h-90l-87 81l-87 -81h-86v12l117 133h116zM268 724l120.002 0.000976562v-539c0 -62.667 -18.667 -111.334 -56 -146.001s-89.666 -52 -156.999 -52c-34.667 0 -66.834 4.66699 -96.501 14s-54.834 22.333 -75.501 39l43 92
c45.333 -24.667 86.666 -37 123.999 -37c65.333 0 98 32.333 98 97v532z" />
    <glyph glyph-name="jcircumflex" unicode="&#x135;" horiz-adv-x="278" 
d="M-61 -125c38.667 13.333 67.833 26.835 87.5 40.502s33.5 30.5 41.5 50.5s12 46.333 12 79v498h118v-500c0 -50.667 -6.5 -91.834 -19.5 -123.501s-35.167 -58.334 -66.5 -80.001s-76 -42.167 -134 -61.5zM295.999 625.002v-10h-84l-75 95l-75 -95h-80v10l102 159h110z
" />
    <glyph glyph-name="Kcommaaccent" unicode="&#x136;" horiz-adv-x="630" 
d="M286 310l-82 -101v-209h-120v724h120v-360l276 360h143l-260 -320l276 -404h-143zM245 -238c16.667 18.667 28.333 37.001 35 55.001s10 40.333 10 67c0 18 -1 33 -3 45h109c2.66699 -16 4 -30.667 4 -44c0 -31.333 -8.83301 -60.333 -26.5 -87
s-46.167 -54.334 -85.5 -83.001z" />
    <glyph glyph-name="kcommaaccent" unicode="&#x137;" horiz-adv-x="557" 
d="M259 227l-63 -75v-152h-118v770h118v-470l198 243h137l-196 -228l209 -315h-136zM195 -238c16.667 18.667 28.333 37.001 35 55.001s10 40.333 10 67c0 18 -1 33 -3 45h109c2.66699 -16 4 -30.667 4 -44c0 -31.333 -8.83301 -60.333 -26.5 -87
s-46.167 -54.334 -85.5 -83.001z" />
    <glyph glyph-name="kgreenlandic" unicode="&#x138;" horiz-adv-x="557" 
d="M259 227l-63 -75v-152h-118v543h118v-243l198 243h137l-196 -228l209 -315h-136z" />
    <glyph glyph-name="Lacute" unicode="&#x139;" horiz-adv-x="530" 
d="M192 781h-100v12l147 133h135v-12zM504 108v-108h-420v724h120v-616h300z" />
    <glyph glyph-name="lacute" unicode="&#x13a;" horiz-adv-x="320" 
d="M56 839l147 133h135v-12l-182 -133h-100v12zM76 131v639.001h118v-617c0 -18.667 4 -32.334 12 -41.001s20.667 -13 38 -13c10 0 22.333 1 37 3l8 -100c-24 -6 -49.333 -9 -76 -9c-91.333 0 -137 46 -137 138z" />
    <glyph glyph-name="Lcommaaccent" unicode="&#x13b;" horiz-adv-x="530" 
d="M504 108v-108h-420v724h120v-616h300zM203 -238c16.667 18.667 28.333 37.001 35 55.001s10 40.333 10 67c0 18 -1 33 -3 45h109c2.66699 -16 4 -30.667 4 -44c0 -31.333 -8.83301 -60.333 -26.5 -87s-46.167 -54.334 -85.5 -83.001z" />
    <glyph glyph-name="lcommaaccent" unicode="&#x13c;" horiz-adv-x="320" 
d="M76 131v639.001h118v-617c0 -18.667 4 -32.334 12 -41.001s20.667 -13 38 -13c10 0 22.333 1 37 3l8 -100c-24 -6 -49.333 -9 -76 -9c-91.333 0 -137 46 -137 138zM79 -237.999c16.667 18.667 28.333 37.001 35 55.001s10 40.333 10 67c0 18 -1 33 -3 45h109
c2.66699 -16 4 -30.667 4 -44c0 -31.333 -8.83301 -60.333 -26.5 -87s-46.167 -54.334 -85.5 -83.001z" />
    <glyph glyph-name="Lcaron" unicode="&#x13d;" horiz-adv-x="530" 
d="M383 546h-68v224h100v-10zM504 108v-108h-420v724h120v-616h300z" />
    <glyph glyph-name="lcaron" unicode="&#x13e;" horiz-adv-x="327" 
d="M76 131v639.001h118v-617c0 -18.667 4 -32.334 12 -41.001s20.667 -13 38 -13c10 0 22.333 1 37 3l8 -100c-24 -6 -49.333 -9 -76 -9c-91.333 0 -137 46 -137 138zM261 770.001h100v-10l-32 -214h-68v224z" />
    <glyph glyph-name="Ldot" unicode="&#x13f;" horiz-adv-x="530" 
d="M504 108v-108h-420v724h120v-616h300zM348.5 363c-13 12.667 -19.5 29.667 -19.5 51c0 22.667 6.33301 40.167 19 52.5s30.667 18.5 54 18.5c22.667 0 40.5 -6.33301 53.5 -19s19.5 -29.667 19.5 -51c0 -22.667 -6.33301 -40.167 -19 -52.5s-30.667 -18.5 -54 -18.5
c-22.667 0 -40.5 6.33301 -53.5 19z" />
    <glyph glyph-name="ldot" unicode="&#x140;" horiz-adv-x="390" 
d="M76 131v639.001h118v-617c0 -18.667 4 -32.334 12 -41.001s20.667 -13 38 -13c10 0 22.333 1 37 3l8 -100c-24 -6 -49.333 -9 -76 -9c-91.333 0 -137 46 -137 138zM276.5 354.001c-13 12.667 -19.5 29.667 -19.5 51c0 22.667 6.33301 40.167 19 52.5s30.667 18.5 54 18.5
c22.667 0 40.5 -6.33301 53.5 -19s19.5 -29.667 19.5 -51c0 -22.667 -6.33301 -40.167 -19 -52.5s-30.667 -18.5 -54 -18.5c-22.667 0 -40.5 6.33301 -53.5 19z" />
    <glyph glyph-name="Lslash" unicode="&#x141;" horiz-adv-x="534" 
d="M508 108v-108h-420v241l-50 -30h-10v97l60 34v382h120v-315l193 114h10v-97l-203 -115v-203h300z" />
    <glyph glyph-name="lslash" unicode="&#x142;" horiz-adv-x="356" 
d="M218 387v-233.999c0 -18.667 4 -32.334 12 -41.001s20.667 -13 38 -13c10 0 22.333 1 37 3l8 -100c-24 -6 -49.333 -9 -76 -9c-91.333 0 -137 46 -137 138v183l-69 -45h-10v95l79 48v358h118v-285l90 58h10v-95z" />
    <glyph glyph-name="Nacute" unicode="&#x143;" horiz-adv-x="725" 
d="M383 781h-100v12l147 133h135v-12zM641 724v-724h-115l-324 521v-521h-118v724h115l324 -520v520h118z" />
    <glyph glyph-name="nacute" unicode="&#x144;" horiz-adv-x="586" 
d="M470 509.5c28.667 -31 43 -74.5 43 -130.5v-379h-118v364c0 54 -29.667 81 -89 81c-39.333 0 -76 -13.667 -110 -41v-404h-118v543h107v-66c44 52.667 98.667 79 164 79c52 0 92.333 -15.5 121 -46.5zM229 625l97 159h125v-10l-132 -159h-90v10z" />
    <glyph glyph-name="Ncommaaccent" unicode="&#x145;" horiz-adv-x="725" 
d="M641 724v-724h-115l-324 521v-521h-118v724h115l324 -520v520h118zM264 -238c16.667 18.667 28.333 37.001 35 55.001s10 40.333 10 67c0 18 -1 33 -3 45h109c2.66699 -16 4 -30.667 4 -44c0 -31.333 -8.83301 -60.333 -26.5 -87s-46.167 -54.334 -85.5 -83.001z" />
    <glyph glyph-name="ncommaaccent" unicode="&#x146;" horiz-adv-x="586" 
d="M470 509.5c28.667 -31 43 -74.5 43 -130.5v-379h-118v364c0 54 -29.667 81 -89 81c-39.333 0 -76 -13.667 -110 -41v-404h-118v543h107v-66c44 52.667 98.667 79 164 79c52 0 92.333 -15.5 121 -46.5zM199 -238c16.667 18.667 28.333 37.001 35 55.001s10 40.333 10 67
c0 18 -1 33 -3 45h109c2.66699 -16 4 -30.667 4 -44c0 -31.333 -8.83301 -60.333 -26.5 -87s-46.167 -54.334 -85.5 -83.001z" />
    <glyph glyph-name="Ncaron" unicode="&#x147;" horiz-adv-x="725" 
d="M304 781l-117 133v12h90l87 -81l87 81h86v-12l-117 -133h-116zM641 724v-724h-115l-324 521v-521h-118v724h115l324 -520v520h118z" />
    <glyph glyph-name="ncaron" unicode="&#x148;" horiz-adv-x="586" 
d="M470 509.5c28.667 -31 43 -74.5 43 -130.5v-379h-118v364c0 54 -29.667 81 -89 81c-39.333 0 -76 -13.667 -110 -41v-404h-118v543h107v-66c44 52.667 98.667 79 164 79c52 0 92.333 -15.5 121 -46.5zM453 784v-10l-102 -159h-110l-102 159v10h84l75 -95l75 95h80z" />
    <glyph glyph-name="napostrophe" unicode="&#x149;" horiz-adv-x="586" 
d="M470 509.5c28.667 -31 43 -74.5 43 -130.5v-379h-118v364c0 54 -29.667 81 -89 81c-39.333 0 -76 -13.667 -110 -41v-404h-118v543h107v-66c44 52.667 98.667 79 164 79c52 0 92.333 -15.5 121 -46.5zM-84 569c21.333 22.667 36.5 45.167 45.5 67.5
s13.5 49.166 13.5 80.499c0 20.667 -0.666992 38.334 -2 53.001h107c1.33301 -14.667 2 -32 2 -52c0 -36.667 -9.83301 -70.5 -29.5 -101.5s-51.167 -62.167 -94.5 -93.5z" />
    <glyph glyph-name="Eng" unicode="&#x14a;" horiz-adv-x="725" 
d="M641 724l0.000976562 -756c0 -59.333 -16.833 -105.5 -50.5 -138.5s-80.834 -49.5 -141.501 -49.5c-62.667 0 -113.667 16.333 -153 49l43 90c38 -22 73 -33 105 -33c52.667 0 79 29.667 79 89v30l-321 516v-521h-118v724h115l324 -520v520h118z" />
    <glyph glyph-name="eng" unicode="&#x14b;" horiz-adv-x="586" 
d="M470 509.5c28.667 -31 43 -74.501 43 -130.501v-431c0 -53.333 -14.333 -94.666 -43 -123.999s-69 -44 -121 -44c-48 0 -89.333 12.667 -124 38l38 87c31.333 -14 57.333 -21 78 -21c36 0 54 23.667 54 71v409c0 54 -29.667 81 -89 81c-39.333 0 -76 -13.667 -110 -41
v-404h-118v543h107v-66c44 52.667 98.667 79 164 79c52 0 92.333 -15.5 121 -46.5z" />
    <glyph glyph-name="Omacron" unicode="&#x14c;" horiz-adv-x="715" 
d="M199 890h316v-83h-316v83zM131 81.5c-52 63 -78 156.5 -78 280.5s26 217.5 78 280.5s127.333 94.5 226 94.5s174.167 -31.5 226.5 -94.5s78.5 -156.5 78.5 -280.5s-26.167 -217.5 -78.5 -280.5s-127.833 -94.5 -226.5 -94.5s-174 31.5 -226 94.5zM538 362
c0 178.667 -60.333 268 -181 268c-120 0 -180 -89.333 -180 -268s60 -268 180 -268c120.667 0 181 89.333 181 268z" />
    <glyph glyph-name="omacron" unicode="&#x14d;" horiz-adv-x="561" 
d="M105 59c-40.667 48 -61 118.667 -61 212s20.5 164.166 61.5 212.499s99.5 72.5 175.5 72.5s134.333 -24.167 175 -72.5s61 -119.166 61 -212.499s-20.5 -164 -61.5 -212s-99.5 -72 -175.5 -72s-134.333 24 -175 72zM367 137c19.333 30 29 74.667 29 134
c0 119.333 -38.333 179 -115 179c-77.333 0 -116 -59.667 -116 -179c0 -59.333 9.66699 -104 29 -134s48 -45 86 -45c38.667 0 67.667 15 87 45zM123 720h316v-83h-316v83z" />
    <glyph glyph-name="Obreve" unicode="&#x14e;" horiz-adv-x="715" 
d="M244.5 823.5c-27 28.333 -41.5 68.5 -43.5 120.5h71c7.33301 -50 36 -75 86 -75c51.333 0 80.333 25 87 75h68c-2 -52 -16.5 -92.167 -43.5 -120.5s-64.5 -42.5 -112.5 -42.5s-85.5 14.167 -112.5 42.5zM131 81.5c-52 63 -78 156.5 -78 280.5s26 217.5 78 280.5
s127.333 94.5 226 94.5s174.167 -31.5 226.5 -94.5s78.5 -156.5 78.5 -280.5s-26.167 -217.5 -78.5 -280.5s-127.833 -94.5 -226.5 -94.5s-174 31.5 -226 94.5zM538 362c0 178.667 -60.333 268 -181 268c-120 0 -180 -89.333 -180 -268s60 -268 180 -268
c120.667 0 181 89.333 181 268z" />
    <glyph glyph-name="obreve" unicode="&#x14f;" horiz-adv-x="561" 
d="M105 59c-40.667 48 -61 118.667 -61 212s20.5 164.166 61.5 212.499s99.5 72.5 175.5 72.5s134.333 -24.167 175 -72.5s61 -119.166 61 -212.499s-20.5 -164 -61.5 -212s-99.5 -72 -175.5 -72s-134.333 24 -175 72zM367 137c19.333 30 29 74.667 29 134
c0 119.333 -38.333 179 -115 179c-77.333 0 -116 -59.667 -116 -179c0 -59.333 9.66699 -104 29 -134s48 -45 86 -45c38.667 0 67.667 15 87 45zM168.5 653.5c-27 28.333 -41.501 68.5 -43.501 120.5h71c6.66699 -50 35.334 -75 86.001 -75s79.667 25 87 75h68
c-2 -52 -16.5 -92.167 -43.5 -120.5s-64.5 -42.5 -112.5 -42.5s-85.5 14.167 -112.5 42.5z" />
    <glyph glyph-name="Ohungarumlaut" unicode="&#x150;" horiz-adv-x="715" 
d="M212 793l96 133h113v-12l-129 -133h-80v12zM378 793l96 133h115v-12l-129 -133h-82v12zM131 81.5c-52 63 -78 156.5 -78 280.5s26 217.5 78 280.5s127.333 94.5 226 94.5s174.167 -31.5 226.5 -94.5s78.5 -156.5 78.5 -280.5s-26.167 -217.5 -78.5 -280.5
s-127.833 -94.5 -226.5 -94.5s-174 31.5 -226 94.5zM538 362c0 178.667 -60.333 268 -181 268c-120 0 -180 -89.333 -180 -268s60 -268 180 -268c120.667 0 181 89.333 181 268z" />
    <glyph glyph-name="ohungarumlaut" unicode="&#x151;" horiz-adv-x="561" 
d="M105 59c-40.667 48 -61 118.667 -61 212s20.5 164.166 61.5 212.499s99.5 72.5 175.5 72.5s134.333 -24.167 175 -72.5s61 -119.166 61 -212.499s-20.5 -164 -61.5 -212s-99.5 -72 -175.5 -72s-134.333 24 -175 72zM367 137c19.333 30 29 74.667 29 134
c0 119.333 -38.333 179 -115 179c-77.333 0 -116 -59.667 -116 -179c0 -59.333 9.66699 -104 29 -134s48 -45 86 -45c38.667 0 67.667 15 87 45zM155 625l57 159h108v-10l-89 -159h-76v10zM306 625l58 159h109v-10l-91 -159h-76v10z" />
    <glyph glyph-name="OE" unicode="&#x152;" horiz-adv-x="963" 
d="M928 107v-107h-571c-98.667 0 -174 30.5 -226 91.5s-78 151.167 -78 270.5s26 209.5 78 270.5s127.333 91.5 226 91.5h558v-107h-311v-193h226v-108h-226v-209h324zM487 107l0.000976562 510.001h-130c-120 0 -180 -85 -180 -255
c0 -84.667 15.167 -148.334 45.5 -191.001s75.166 -64 134.499 -64h130z" />
    <glyph glyph-name="oe" unicode="&#x153;" horiz-adv-x="881" 
d="M838 235l-331.999 0.00195312c9.33301 -93.333 56.666 -140 141.999 -140c42 0 85.333 11.667 130 35l42 -89c-24.667 -16.667 -53.167 -29.667 -85.5 -39s-65.166 -14 -98.499 -14c-40.667 0 -76.834 7 -108.501 21s-58.167 34.333 -79.5 61
c-19.333 -27.333 -43.5 -48 -72.5 -62s-62.167 -21 -99.5 -21c-74 0 -131.167 24 -171.5 72s-60.5 118.667 -60.5 212s20.333 164.166 61 212.499s98 72.5 172 72.5c77.333 0 135.333 -28.667 174 -86c17.333 27.333 40.333 48.5 69 63.5s61.334 22.5 98.001 22.5
c71.333 0 126.666 -22.833 165.999 -68.5s59 -110.167 59 -193.5c0 -20.667 -1.66699 -40.334 -5 -59.001zM506.001 318.002h218.999c-0.666992 42.667 -10.667 75.667 -30 99s-45.666 35 -78.999 35c-64 0 -100.667 -44.667 -110 -134zM360.5 137.002
c19 30 28.5 74.667 28.5 134c0 119.333 -37.333 179 -112 179s-112 -59.667 -112 -179s37 -179 111 -179c37.333 0 65.5 15 84.5 45z" />
    <glyph glyph-name="Racute" unicode="&#x154;" horiz-adv-x="634" 
d="M338 781h-100v12l147 133h135v-12zM308 259l-104 -0.00195312v-259h-120v724h253c74.667 0 132.5 -20.333 173.5 -61s61.5 -97.667 61.5 -171c0 -55.333 -12 -101.666 -36 -138.999s-58.667 -63.666 -104 -78.999l182 -274h-144zM204 361.998h133
c74 0 111 42.667 111 128s-38.333 128 -115 128h-129v-256z" />
    <glyph glyph-name="racute" unicode="&#x155;" horiz-adv-x="404" 
d="M390 541l-23.999 -112c-20 6.66699 -41.667 10 -65 10c-24 0 -44.333 -4.33301 -61 -13s-31.334 -22.667 -44.001 -42v-384h-118v543h107v-83c33.333 62.667 81 94 143 94c23.333 0 44 -4.33301 62 -13zM167.001 625l97 159h125v-10l-132 -159h-90v10z" />
    <glyph glyph-name="Rcommaaccent" unicode="&#x156;" horiz-adv-x="634" 
d="M308 259l-104 -0.00195312v-259h-120v724h253c74.667 0 132.5 -20.333 173.5 -61s61.5 -97.667 61.5 -171c0 -55.333 -12 -101.666 -36 -138.999s-58.667 -63.666 -104 -78.999l182 -274h-144zM204 361.998h133c74 0 111 42.667 111 128s-38.333 128 -115 128h-129v-256z
M238 -238.002c16.667 18.667 28.333 37.001 35 55.001s10 40.333 10 67c0 18 -1 33 -3 45h109c2.66699 -16 4 -30.667 4 -44c0 -31.333 -8.83301 -60.333 -26.5 -87s-46.167 -54.334 -85.5 -83.001z" />
    <glyph glyph-name="rcommaaccent" unicode="&#x157;" horiz-adv-x="404" 
d="M390 541l-23.999 -112c-20 6.66699 -41.667 10 -65 10c-24 0 -44.333 -4.33301 -61 -13s-31.334 -22.667 -44.001 -42v-384h-118v543h107v-83c33.333 62.667 81 94 143 94c23.333 0 44 -4.33301 62 -13zM39.001 -238c16.667 18.667 28.333 37.001 35 55.001
s10 40.333 10 67c0 18 -1 33 -3 45h109c2.66699 -16 4 -30.667 4 -44c0 -31.333 -8.83301 -60.333 -26.5 -87s-46.167 -54.334 -85.5 -83.001z" />
    <glyph glyph-name="Rcaron" unicode="&#x158;" horiz-adv-x="634" 
d="M259 781l-117 133v12h90l87 -81l87 81h86v-12l-117 -133h-116zM308 259l-104 -0.00195312v-259h-120v724h253c74.667 0 132.5 -20.333 173.5 -61s61.5 -97.667 61.5 -171c0 -55.333 -12 -101.666 -36 -138.999s-58.667 -63.666 -104 -78.999l182 -274h-144zM204 361.998
h133c74 0 111 42.667 111 128s-38.333 128 -115 128h-129v-256z" />
    <glyph glyph-name="rcaron" unicode="&#x159;" horiz-adv-x="404" 
d="M390 541l-23.999 -112c-20 6.66699 -41.667 10 -65 10c-24 0 -44.333 -4.33301 -61 -13s-31.334 -22.667 -44.001 -42v-384h-118v543h107v-83c33.333 62.667 81 94 143 94c23.333 0 44 -4.33301 62 -13zM391.001 784v-10l-102 -159h-110l-102 159v10h84l75 -95l75 95h80z
" />
    <glyph glyph-name="Sacute" unicode="&#x15a;" horiz-adv-x="563" 
d="M190 793l147 133h135v-12l-182 -133h-100v12zM142.5 4.5c-41 11 -77.1699 26.4961 -108.503 46.4961l39 96c63.333 -36 128.333 -54 195 -54c44.667 0 78.334 8.33301 101.001 25s34 41 34 73c0 26.667 -8.16699 48.5 -24.5 65.5s-42.166 30.167 -77.499 39.5l-82 23
c-62 17.333 -107 42 -135 74s-42 74.667 -42 128c0 67.333 21 120 63 158s100.667 57 176 57c36 0 73.167 -4.16699 111.5 -12.5s74.5 -20.166 108.5 -35.499l-40 -96c-68 26 -128.667 39 -182 39c-39.333 0 -69.333 -7.66699 -90 -23s-31 -37.666 -31 -66.999
c0 -26.667 8.33301 -48.5 25 -65.5s42.667 -30.167 78 -39.5l82 -23c62 -17.333 107 -42.166 135 -74.499s42 -75.166 42 -128.499c0 -70 -22.167 -124.5 -66.5 -163.5s-106.166 -58.5 -185.499 -58.5c-42.667 0 -84.5 5.5 -125.5 16.5z" />
    <glyph glyph-name="sacute" unicode="&#x15b;" horiz-adv-x="469" 
d="M116.5 2c-34.333 9.33301 -64.499 22.3359 -90.499 39.0029l41 96c49.333 -30 101.333 -45 156 -45c64 0 96 20 96 60c0 16 -5.5 29 -16.5 39s-28.5 18 -52.5 24l-71 17c-50 11.333 -86.5 29.166 -109.5 53.499s-34.5 57.5 -34.5 99.5c0 53.333 17.5 95 52.5 125
s84.5 45 148.5 45c32 0 64 -4 96 -12s61 -19 87 -33l-45 -95c-46.667 24 -93.334 36 -140.001 36c-57.333 0 -86 -18.333 -86 -55c0 -14.667 5.66699 -26.834 17 -36.501s29 -17.5 53 -23.5l71 -17c50.667 -12 87.334 -30.333 110.001 -55s34 -58.334 34 -101.001
c0 -55.333 -18.333 -98.333 -55 -129s-88.334 -46 -155.001 -46c-36.667 0 -72.167 4.66699 -106.5 14zM160.001 625.003l97 159h125v-10l-132 -159h-90v10z" />
    <glyph glyph-name="Scircumflex" unicode="&#x15c;" horiz-adv-x="563" 
d="M180 781h-86v12l117 133h116l117 -133v-12h-90l-87 81zM478 338.5c28 -32.333 41.9971 -75.1699 41.9971 -128.503c0 -70 -22.167 -124.5 -66.5 -163.5s-106.166 -58.5 -185.499 -58.5c-42.667 0 -84.5 5.5 -125.5 16.5s-77.167 26.5 -108.5 46.5l39 96
c63.333 -36 128.333 -54 195 -54c44.667 0 78.334 8.33301 101.001 25s34 41 34 73c0 26.667 -8.16699 48.5 -24.5 65.5s-42.166 30.167 -77.499 39.5l-82 23c-62 17.333 -107 42 -135 74s-42 74.667 -42 128c0 67.333 21 120 63 158s100.667 57 176 57
c36 0 73.167 -4.16699 111.5 -12.5s74.5 -20.166 108.5 -35.499l-40 -96c-68 26 -128.667 39 -182 39c-39.333 0 -69.333 -7.66699 -90 -23s-31 -37.666 -31 -66.999c0 -26.667 8.33301 -48.5 25 -65.5s42.667 -30.167 78 -39.5l82 -23c62 -17.333 107 -42.166 135 -74.499z
" />
    <glyph glyph-name="scircumflex" unicode="&#x15d;" horiz-adv-x="469" 
d="M116.5 2c-34.333 9.33301 -64.499 22.3359 -90.499 39.0029l41 96c49.333 -30 101.333 -45 156 -45c64 0 96 20 96 60c0 16 -5.5 29 -16.5 39s-28.5 18 -52.5 24l-71 17c-50 11.333 -86.5 29.166 -109.5 53.499s-34.5 57.5 -34.5 99.5c0 53.333 17.5 95 52.5 125
s84.5 45 148.5 45c32 0 64 -4 96 -12s61 -19 87 -33l-45 -95c-46.667 24 -93.334 36 -140.001 36c-57.333 0 -86 -18.333 -86 -55c0 -14.667 5.66699 -26.834 17 -36.501s29 -17.5 53 -23.5l71 -17c50.667 -12 87.334 -30.333 110.001 -55s34 -58.334 34 -101.001
c0 -55.333 -18.333 -98.333 -55 -129s-88.334 -46 -155.001 -46c-36.667 0 -72.167 4.66699 -106.5 14zM384.001 625.003v-10h-84l-75 95l-75 -95h-80v10l102 159h110z" />
    <glyph glyph-name="Scedilla" unicode="&#x15e;" horiz-adv-x="563" 
d="M463 56c-38 -38.667 -91.335 -61.0029 -160.002 -67.0029l-31 -43c9.33301 1.33301 16.333 2 21 2c34.667 0 61.667 -7.33301 81 -22s29 -35.334 29 -62.001c0 -32 -11.5 -56.667 -34.5 -74s-55.5 -26 -97.5 -26s-80.333 8.33301 -115 25l19 57c33.333 -12 62 -18 86 -18
c16 0 28.333 2.83301 37 8.5s13 13.834 13 24.501c0 21.333 -15 32 -45 32c-14.667 0 -28 -2.33301 -40 -7l-28 31l30 73c-36.667 3.33301 -71.667 10.166 -105 20.499s-63 23.833 -89 40.5l39 96c63.333 -36 128.333 -54 195 -54c44.667 0 78.334 8.33301 101.001 25
s34 41 34 73c0 26.667 -8.16699 48.5 -24.5 65.5s-42.166 30.167 -77.499 39.5l-82 23c-62 17.333 -107 42 -135 74s-42 74.667 -42 128c0 67.333 21 120 63 158s100.667 57 176 57c36 0 73.167 -4.16699 111.5 -12.5s74.5 -20.166 108.5 -35.499l-40 -96
c-68 26 -128.667 39 -182 39c-39.333 0 -69.333 -7.66699 -90 -23s-31 -37.666 -31 -66.999c0 -26.667 8.33301 -48.5 25 -65.5s42.667 -30.167 78 -39.5l82 -23c62 -17.333 107 -42.166 135 -74.499s42 -75.166 42 -128.499c0 -64 -19 -115.333 -57 -154z" />
    <glyph glyph-name="scedilla" unicode="&#x15f;" horiz-adv-x="469" 
d="M387 42c-30.667 -30 -74 -47.6641 -130 -52.9971l-31 -43c9.33301 1.33301 16.333 2 21 2c34.667 0 61.667 -7.33301 81 -22s29 -35.334 29 -62.001c0 -32 -11.5 -56.667 -34.5 -74s-55.5 -26 -97.5 -26s-80.333 8.33301 -115 25l19 57c33.333 -12 62 -18 86 -18
c16 0 28.333 2.83301 37 8.5s13 13.834 13 24.501c0 21.333 -15 32 -45 32c-14.667 0 -28 -2.33301 -40 -7l-28 31l30 73c-62.667 6.66699 -114.667 23.667 -156 51l41 96c49.333 -30 101.333 -45 156 -45c64 0 96 20 96 60c0 16 -5.5 29 -16.5 39s-28.5 18 -52.5 24l-71 17
c-50 11.333 -86.5 29.166 -109.5 53.499s-34.5 57.5 -34.5 99.5c0 53.333 17.5 95 52.5 125s84.5 45 148.5 45c32 0 64 -4 96 -12s61 -19 87 -33l-45 -95c-46.667 24 -93.334 36 -140.001 36c-57.333 0 -86 -18.333 -86 -55c0 -14.667 5.66699 -26.834 17 -36.501
s29 -17.5 53 -23.5l71 -17c50.667 -12 87.334 -30.333 110.001 -55s34 -58.334 34 -101.001c0 -50.667 -15.333 -91 -46 -121z" />
    <glyph glyph-name="Scaron" unicode="&#x160;" horiz-adv-x="563" 
d="M211 781l-117 133v12h90l87 -81l87 81h86v-12l-117 -133h-116zM478 338.5c28 -32.333 41.9971 -75.1699 41.9971 -128.503c0 -70 -22.167 -124.5 -66.5 -163.5s-106.166 -58.5 -185.499 -58.5c-42.667 0 -84.5 5.5 -125.5 16.5s-77.167 26.5 -108.5 46.5l39 96
c63.333 -36 128.333 -54 195 -54c44.667 0 78.334 8.33301 101.001 25s34 41 34 73c0 26.667 -8.16699 48.5 -24.5 65.5s-42.166 30.167 -77.499 39.5l-82 23c-62 17.333 -107 42 -135 74s-42 74.667 -42 128c0 67.333 21 120 63 158s100.667 57 176 57
c36 0 73.167 -4.16699 111.5 -12.5s74.5 -20.166 108.5 -35.499l-40 -96c-68 26 -128.667 39 -182 39c-39.333 0 -69.333 -7.66699 -90 -23s-31 -37.666 -31 -66.999c0 -26.667 8.33301 -48.5 25 -65.5s42.667 -30.167 78 -39.5l82 -23c62 -17.333 107 -42.166 135 -74.499z
" />
    <glyph glyph-name="scaron" unicode="&#x161;" horiz-adv-x="469" 
d="M116.5 2c-34.333 9.33301 -64.499 22.3359 -90.499 39.0029l41 96c49.333 -30 101.333 -45 156 -45c64 0 96 20 96 60c0 16 -5.5 29 -16.5 39s-28.5 18 -52.5 24l-71 17c-50 11.333 -86.5 29.166 -109.5 53.499s-34.5 57.5 -34.5 99.5c0 53.333 17.5 95 52.5 125
s84.5 45 148.5 45c32 0 64 -4 96 -12s61 -19 87 -33l-45 -95c-46.667 24 -93.334 36 -140.001 36c-57.333 0 -86 -18.333 -86 -55c0 -14.667 5.66699 -26.834 17 -36.501s29 -17.5 53 -23.5l71 -17c50.667 -12 87.334 -30.333 110.001 -55s34 -58.334 34 -101.001
c0 -55.333 -18.333 -98.333 -55 -129s-88.334 -46 -155.001 -46c-36.667 0 -72.167 4.66699 -106.5 14zM384.001 784.003v-10l-102 -159h-110l-102 159v10h84l75 -95l75 95h80z" />
    <glyph glyph-name="uni0162" unicode="&#x162;" horiz-adv-x="529" 
d="M297 0l-38 -54c9.33301 1.33301 16.333 2 21 2c34.667 0 61.667 -7.33301 81 -22s29 -35.334 29 -62.001c0 -32 -11.5 -56.667 -34.5 -74s-55.5 -26 -97.5 -26s-80.333 8.33301 -115 25l19 57c33.333 -12 62 -18 86 -18c16 0 28.333 2.83301 37 8.5s13 13.834 13 24.501
c0 21.333 -15 32 -45 32c-14.667 0 -28 -2.33301 -40 -7l-28 31l35 83h-16v616h-183v108h487v-108h-184v-616h-27z" />
    <glyph glyph-name="uni0163" unicode="&#x163;" horiz-adv-x="398" 
d="M329 -74c19.333 -14.667 29 -35.334 29 -62.001c0 -32 -11.5 -56.667 -34.5 -74s-55.5 -26 -97.5 -26s-80.333 8.33301 -115 25l19 57c33.333 -12 62 -18 86 -18c16 0 28.333 2.83301 37 8.5s13 13.834 13 24.501c0 21.333 -15 32 -45 32c-14.667 0 -28 -2.33301 -40 -7
l-28 31l38 91c-60.667 24 -91 77.667 -91 161v272h-86v102h86v151h118v-151h152v-102h-152v-252c0 -32 6.5 -55.167 19.5 -69.5s34.167 -21.5 63.5 -21.5c18.667 0 38 2.66699 58 8l18 -100c-30 -9.33301 -61.667 -14 -95 -14c-10 0 -17.333 0.333008 -22 1l-33 -47
c9.33301 1.33301 16.333 2 21 2c34.667 0 61.667 -7.33301 81 -22z" />
    <glyph glyph-name="Tcaron" unicode="&#x164;" horiz-adv-x="529" 
d="M206 781l-117 133v12h90l87 -81l87 81h86v-12l-117 -133h-116zM508 616h-184v-616h-120v616h-183v108h487v-108z" />
    <glyph glyph-name="tcaron" unicode="&#x165;" horiz-adv-x="398" 
d="M270 770h101v-10l-25 -166h-76v176zM100 169v272h-86v102h86v151h118v-151h152v-102h-152v-252c0 -32 6.5 -55.167 19.5 -69.5s34.167 -21.5 63.5 -21.5c18.667 0 38 2.66699 58 8l18 -100c-30 -9.33301 -61.667 -14 -95 -14c-121.333 0 -182 59 -182 177z" />
    <glyph glyph-name="Tbar" unicode="&#x166;" horiz-adv-x="529" 
d="M324 616v-228h122v-94h-122v-294h-120v294h-121v94h121v228h-183v108h487v-108h-184z" />
    <glyph glyph-name="tbar" unicode="&#x167;" horiz-adv-x="398" 
d="M377 6c-30 -9.33301 -61.667 -14 -95 -14c-121.333 0 -182 59 -182 177v97h-86v84h86v91h-86v102h86v151h118v-151h152v-102h-152v-91h152v-84h-152v-77c0 -32 6.5 -55.167 19.5 -69.5s34.167 -21.5 63.5 -21.5c18.667 0 38 2.66699 58 8z" />
    <glyph glyph-name="Utilde" unicode="&#x168;" horiz-adv-x="687" 
d="M368 795c-12.667 6 -28.001 14.999 -46.001 26.999c-10 8 -18.833 14 -26.5 18s-15.5 6 -23.5 6c-22.667 0 -36 -19.333 -40 -58h-68c1.33301 45.333 11.5 80.5 30.5 105.5s44.833 37.5 77.5 37.5c18 0 33.667 -3.16699 47 -9.5s28.333 -15.166 45 -26.499
c10.667 -8 19.834 -13.833 27.501 -17.5s15.167 -5.5 22.5 -5.5c22.667 0 36 19 40 57h68c-1.33301 -45.333 -11.5 -80.5 -30.5 -105.5s-44.833 -37.5 -77.5 -37.5c-18 0 -33.333 3 -46 9zM147.999 55.999c-46 46 -69 111 -69 195v473h120v-466c0 -109.333 48 -164 144 -164
c96.667 0 145 54.667 145 164v466h120v-473c0 -84 -23.167 -149 -69.5 -195s-111.833 -69 -196.5 -69c-83.333 0 -148 23 -194 69z" />
    <glyph glyph-name="utilde" unicode="&#x169;" horiz-adv-x="578" 
d="M500 543v-543h-108v73c-40 -57.333 -93.667 -86 -161 -86c-50.667 0 -90 15.333 -118 46s-42 74 -42 130v380h118v-364c0 -54.667 28.667 -82 86 -82c20.667 0 39.5 4 56.5 12s33.833 21 50.5 39v395h118zM311 625c-12.667 6 -28.001 14.999 -46.001 26.999
c-10 8 -18.833 14 -26.5 18s-15.5 6 -23.5 6c-22.667 0 -36 -19.333 -40 -58h-68c1.33301 45.333 11.5 80.5 30.5 105.5s44.833 37.5 77.5 37.5c18 0 33.667 -3.16699 47 -9.5s28.333 -15.166 45 -26.499c10.667 -8 19.834 -13.833 27.501 -17.5s15.167 -5.5 22.5 -5.5
c22.667 0 36 19 40 57h68c-1.33301 -45.333 -11.5 -80.5 -30.5 -105.5s-44.833 -37.5 -77.5 -37.5c-18 0 -33.333 3 -46 9z" />
    <glyph glyph-name="Umacron" unicode="&#x16a;" horiz-adv-x="687" 
d="M185 890h316v-83h-316v83zM148 56c-46 46 -69 111 -69 195v473h120v-466c0 -109.333 48 -164 144 -164c96.667 0 145 54.667 145 164v466h120v-473c0 -84 -23.167 -149 -69.5 -195s-111.833 -69 -196.5 -69c-83.333 0 -148 23 -194 69z" />
    <glyph glyph-name="umacron" unicode="&#x16b;" horiz-adv-x="578" 
d="M500 543v-543h-108v73c-40 -57.333 -93.667 -86 -161 -86c-50.667 0 -90 15.333 -118 46s-42 74 -42 130v380h118v-364c0 -54.667 28.667 -82 86 -82c20.667 0 39.5 4 56.5 12s33.833 21 50.5 39v395h118zM128 720h316v-83h-316v83z" />
    <glyph glyph-name="Ubreve" unicode="&#x16c;" horiz-adv-x="687" 
d="M230.5 823.5c-27 28.333 -41.5 68.5 -43.5 120.5h71c7.33301 -50 36 -75 86 -75c51.333 0 80.333 25 87 75h68c-2 -52 -16.5 -92.167 -43.5 -120.5s-64.5 -42.5 -112.5 -42.5s-85.5 14.167 -112.5 42.5zM148 56c-46 46 -69 111 -69 195v473h120v-466
c0 -109.333 48 -164 144 -164c96.667 0 145 54.667 145 164v466h120v-473c0 -84 -23.167 -149 -69.5 -195s-111.833 -69 -196.5 -69c-83.333 0 -148 23 -194 69z" />
    <glyph glyph-name="ubreve" unicode="&#x16d;" horiz-adv-x="578" 
d="M500 543v-543h-108v73c-40 -57.333 -93.667 -86 -161 -86c-50.667 0 -90 15.333 -118 46s-42 74 -42 130v380h118v-364c0 -54.667 28.667 -82 86 -82c20.667 0 39.5 4 56.5 12s33.833 21 50.5 39v395h118zM173.5 653.5c-27 28.333 -41.501 68.5 -43.501 120.5h71
c6.66699 -50 35.334 -75 86.001 -75s79.667 25 87 75h68c-2 -52 -16.5 -92.167 -43.5 -120.5s-64.5 -42.5 -112.5 -42.5s-85.5 14.167 -112.5 42.5z" />
    <glyph glyph-name="Uring" unicode="&#x16e;" horiz-adv-x="687" 
d="M246.5 796.5c-23 20.333 -34.5 48.833 -34.5 85.5s11.5 65.167 34.5 85.5s55.167 30.5 96.5 30.5s73.5 -10.167 96.5 -30.5s34.5 -48.833 34.5 -85.5s-11.5 -65.167 -34.5 -85.5s-55.167 -30.5 -96.5 -30.5s-73.5 10.167 -96.5 30.5zM398 882c0 37.333 -18.333 56 -55 56
s-55 -18.667 -55 -56s18.333 -56 55 -56s55 18.667 55 56zM148 56c-46 46 -69 111 -69 195v473h120v-466c0 -109.333 48 -164 144 -164c96.667 0 145 54.667 145 164v466h120v-473c0 -84 -23.167 -149 -69.5 -195s-111.833 -69 -196.5 -69c-83.333 0 -148 23 -194 69z" />
    <glyph glyph-name="uring" unicode="&#x16f;" horiz-adv-x="578" 
d="M500 543v-543h-108v73c-40 -57.333 -93.667 -86 -161 -86c-50.667 0 -90 15.333 -118 46s-42 74 -42 130v380h118v-364c0 -54.667 28.667 -82 86 -82c20.667 0 39.5 4 56.5 12s33.833 21 50.5 39v395h118zM190.5 631.5c-23 20.333 -34.5 48.833 -34.5 85.5
s11.333 65.167 34 85.5s54.667 30.5 96 30.5s73.333 -10.167 96 -30.5s34 -48.833 34 -85.5s-11.5 -65.167 -34.5 -85.5s-54.833 -30.5 -95.5 -30.5s-72.5 10.167 -95.5 30.5zM341 717c0 38 -18.333 57 -55 57s-55 -19 -55 -57s18.333 -57 55 -57s55 19 55 57z" />
    <glyph glyph-name="Uhungarumlaut" unicode="&#x170;" horiz-adv-x="687" 
d="M198 793l96 133h113v-12l-129 -133h-80v12zM364 793l96 133h115v-12l-129 -133h-82v12zM148 56c-46 46 -69 111 -69 195v473h120v-466c0 -109.333 48 -164 144 -164c96.667 0 145 54.667 145 164v466h120v-473c0 -84 -23.167 -149 -69.5 -195s-111.833 -69 -196.5 -69
c-83.333 0 -148 23 -194 69z" />
    <glyph glyph-name="uhungarumlaut" unicode="&#x171;" horiz-adv-x="578" 
d="M500 543v-543h-108v73c-40 -57.333 -93.667 -86 -161 -86c-50.667 0 -90 15.333 -118 46s-42 74 -42 130v380h118v-364c0 -54.667 28.667 -82 86 -82c20.667 0 39.5 4 56.5 12s33.833 21 50.5 39v395h118zM160 625l57 159h108v-10l-89 -159h-76v10zM311 625l58 159h109
v-10l-91 -159h-76v10z" />
    <glyph glyph-name="Uogonek" unicode="&#x172;" horiz-adv-x="687" 
d="M427 -47.5c-12.667 -20.333 -18.999 -39.834 -18.999 -58.501c0 -27.333 15.333 -41 46 -41c19.333 0 39.333 5 60 15l27 -64c-14.667 -9.33301 -32 -16.666 -52 -21.999s-40.333 -8 -61 -8c-36.667 0 -65.5 8.66699 -86.5 26s-31.5 41.666 -31.5 72.999
c0 41.333 17.667 79.666 53 114.999c-4.66699 -0.666992 -11.667 -1 -21 -1c-83.333 0 -148 23 -194 69s-69 111 -69 195v473h120v-466c0 -109.333 47.667 -164 143 -164c97.333 0 146 54.667 146 164v466h120v-473c0 -49.333 -7.66699 -90.666 -23 -123.999
s-41.333 -64.666 -78 -93.999l-27 -22c-22.667 -18.667 -40.334 -38.167 -53.001 -58.5z" />
    <glyph glyph-name="uogonek" unicode="&#x173;" horiz-adv-x="578" 
d="M549 -196c-15.333 -9.33301 -32.834 -16.668 -52.501 -22.001s-39.834 -8 -60.501 -8c-37.333 0 -66.333 8.66699 -87 26s-31 41.666 -31 72.999c0 26 7.33301 49.833 22 71.5s35.334 39.834 62.001 54.501h-8v78c-23.333 -31.333 -48 -54.166 -74 -68.499
s-55.667 -21.5 -89 -21.5c-50.667 0 -90 15.333 -118 46s-42 74 -42 130v380h118v-364c0 -54.667 28.667 -82 86 -82c20.667 0 39.5 4 56.5 12s33.833 21 50.5 39v395h118v-543c-56 -32 -84 -67.333 -84 -106c0 -27.333 15.667 -41 47 -41c18.667 0 38.334 5 59.001 15z" />
    <glyph glyph-name="Wcircumflex" unicode="&#x174;" horiz-adv-x="897" 
d="M358 781h-86v12l117 133h116l117 -133v-12h-90l-87 81zM871 724l-176 -724h-131l-117 557l-115 -557h-131l-175 724h124l118 -585l116 584h129l118 -584l117 585h123z" />
    <glyph glyph-name="wcircumflex" unicode="&#x175;" horiz-adv-x="788" 
d="M767 543l-152 -543h-127l-95 398l-93 -398h-127l-152 543h120l97 -421l96 421h121l98 -421l95 421h119zM552 625v-10h-84l-75 95l-75 -95h-80v10l102 159h110z" />
    <glyph glyph-name="Ycircumflex" unicode="&#x176;" horiz-adv-x="589" 
d="M204 781h-86v12l117 133h116l117 -133v-12h-90l-87 81zM573 724l-220 -479v-245h-120v245l-217 479h129l150 -348l150 348h128z" />
    <glyph glyph-name="ycircumflex" unicode="&#x177;" horiz-adv-x="521" 
d="M502 543l-172.002 -523.002c-19.333 -59.333 -50.5 -108.166 -93.5 -146.499s-101.167 -69.5 -174.5 -93.5l-40 100c46.667 16.667 83.834 34.334 111.501 53.001s49.834 40.667 66.501 66l-181 544h121l122 -415l120 415h120zM418.998 624.998v-10h-84l-75 95l-75 -95
h-80v10l102 159h110z" />
    <glyph glyph-name="Ydieresis" unicode="&#x178;" horiz-adv-x="589" 
d="M143.5 804.5c-11.667 11.667 -17.5 27.501 -17.5 47.501c0 21.333 5.83301 37.833 17.5 49.5s27.834 17.5 48.501 17.5s36.834 -6 48.501 -18s17.5 -28 17.5 -48c0 -20.667 -5.83301 -36.834 -17.5 -48.501s-27.834 -17.5 -48.501 -17.5s-36.834 5.83301 -48.501 17.5z
M346.5 804.501c-11.667 11.667 -17.5 27.501 -17.5 47.501c0 21.333 5.83301 37.833 17.5 49.5s27.834 17.5 48.501 17.5s36.834 -6 48.501 -18s17.5 -28 17.5 -48c0 -20.667 -5.83301 -36.834 -17.5 -48.501s-27.834 -17.5 -48.501 -17.5s-36.834 5.83301 -48.501 17.5z
M573 724.002l-220 -479v-245h-120v245l-217 479h129l150 -348l150 348h128z" />
    <glyph glyph-name="Zacute" unicode="&#x179;" horiz-adv-x="554" 
d="M296 781h-100v12l147 133h135v-12zM515 106v-106h-478v107l336 511h-323v106h460v-106l-337 -512h342z" />
    <glyph glyph-name="zacute" unicode="&#x17a;" horiz-adv-x="469" 
d="M435 100v-100h-402v100l264 343h-255v100h388v-100l-265 -343h270zM165 625l97 159h125v-10l-132 -159h-90v10z" />
    <glyph glyph-name="Zdotaccent" unicode="&#x17b;" horiz-adv-x="554" 
d="M221.5 810c-13 12.667 -19.5 29.667 -19.5 51c0 22.667 6.33301 40.167 19 52.5s30.667 18.5 54 18.5c22.667 0 40.5 -6.33301 53.5 -19s19.5 -29.667 19.5 -51c0 -22.667 -6.33301 -40.167 -19 -52.5s-30.667 -18.5 -54 -18.5c-22.667 0 -40.5 6.33301 -53.5 19z
M515 106v-106h-478v107l336 511h-323v106h460v-106l-337 -512h342z" />
    <glyph glyph-name="zdotaccent" unicode="&#x17c;" horiz-adv-x="469" 
d="M435 100v-100h-402v100l264 343h-255v100h388v-100l-265 -343h270zM178.5 640c-13 12.667 -19.5 29.667 -19.5 51c0 22.667 6.33301 40.167 19 52.5s30.667 18.5 54 18.5c22.667 0 40.5 -6.33301 53.5 -19s19.5 -29.667 19.5 -51c0 -22.667 -6.33301 -40.167 -19 -52.5
s-30.667 -18.5 -54 -18.5c-22.667 0 -40.5 6.33301 -53.5 19z" />
    <glyph glyph-name="Zcaron" unicode="&#x17d;" horiz-adv-x="554" 
d="M217 781l-117 133v12h90l87 -81l87 81h86v-12l-117 -133h-116zM515 106v-106h-478v107l336 511h-323v106h460v-106l-337 -512h342z" />
    <glyph glyph-name="zcaron" unicode="&#x17e;" horiz-adv-x="469" 
d="M435 100v-100h-402v100l264 343h-255v100h388v-100l-265 -343h270zM389 784v-10l-102 -159h-110l-102 159v10h84l75 -95l75 95h80z" />
    <glyph glyph-name="longs" unicode="&#x17f;" horiz-adv-x="294" 
d="M336 779v-103c-18 2.66699 -37.333 4 -58 4c-55.333 0 -83 -29.667 -83 -89v-591h-117v591c0 61.333 17.5 108.833 52.5 142.5s84.167 50.5 147.5 50.5c22 0 41.333 -1.66699 58 -5z" />
    <glyph glyph-name="uni0180" unicode="&#x180;" horiz-adv-x="581" 
d="M484.5 466.5c35 -48.333 52.501 -116.168 52.501 -203.501s-17.833 -155.166 -53.5 -203.499s-85.834 -72.5 -150.501 -72.5c-31.333 0 -59.833 6.5 -85.5 19.5s-46.5 31.167 -62.5 54.5v-61h-107v608h-63v82h63v80h118v-80h207v-82h-207v-140
c33.333 47.333 80.333 71 141 71c63.333 0 112.5 -24.167 147.5 -72.5zM416.001 258.998c0 113.333 -38.667 170 -116 170c-20 0 -38.167 -4 -54.5 -12s-32.833 -21 -49.5 -39v-235c14 -15.333 30.667 -27.5 50 -36.5s39 -13.5 59 -13.5c74 0 111 55.333 111 166z" />
    <glyph glyph-name="uni0181" unicode="&#x181;" horiz-adv-x="719" 
d="M677 214c0 -68 -20.5 -120.666 -61.5 -157.999s-98.167 -56 -171.5 -56h-288v616c-21.333 0 -37.333 -5.16699 -48 -15.5s-16 -26.5 -16 -48.5c0 -10 1 -25 3 -45h-108c-2 14 -3 28.667 -3 44c0 54.667 15 97.167 45 127.5s72.333 45.5 127 45.5h254
c71.333 0 126.833 -17.833 166.5 -53.5s59.5 -85.834 59.5 -150.501c0 -69.333 -31.333 -115.333 -94 -138c90 -26 135 -82 135 -168zM275 617.001v-195h135c68.667 0 103 32 103 96c0 66 -36.333 99 -109 99h-129zM553 212.001c0 71.333 -36.333 107 -109 107h-169v-212
h175c68.667 0 103 35 103 105z" />
    <glyph glyph-name="uni0182" unicode="&#x182;" horiz-adv-x="626" 
d="M519 410.5c42.667 -39.667 64 -98.167 64 -175.5s-21.167 -135.833 -63.5 -175.5s-102.5 -59.5 -180.5 -59.5h-255v724h444v-93h-324v-161h131c80 0 141.333 -19.833 184 -59.5zM459 237c0 86 -39.333 129 -118 129h-137v-259h129c84 0 126 43.333 126 130z" />
    <glyph glyph-name="uni0183" unicode="&#x183;" horiz-adv-x="579" 
d="M483 481c34.667 -50 51.999 -120 51.999 -210s-17.667 -159.833 -53 -209.5s-85 -74.5 -149 -74.5c-31.333 0 -59.833 6.5 -85.5 19.5s-46.5 31.167 -62.5 54.5v-61h-107v770h383v-94h-265v-192c34 48 81 72 141 72c62.667 0 111.334 -25 146.001 -75zM413.999 267
c0 118.667 -38 178 -114 178c-20 0 -38.167 -4 -54.5 -12s-32.833 -21 -49.5 -39v-251c14 -16 30.5 -28.333 49.5 -37s38.833 -13 59.5 -13c72.667 0 109 58 109 174z" />
    <glyph glyph-name="uni0184" unicode="&#x184;" horiz-adv-x="607" 
d="M527 410c43.333 -41.333 65 -99.999 65 -175.999c0 -74.667 -21.333 -132.334 -64 -173.001s-102.667 -61 -180 -61h-255v494l-69 63v47l104 120h85v-252h131c78.667 0 139.667 -20.667 183 -62zM468 236.001c0 85.333 -39.333 128 -118 128h-137v-257h129
c84 0 126 43 126 129z" />
    <glyph glyph-name="uni0185" unicode="&#x185;" horiz-adv-x="581" 
d="M485 481c34.667 -50 51.999 -120 51.999 -210s-17.667 -159.833 -53 -209.5s-85 -74.5 -149 -74.5c-31.333 0 -59.833 6.5 -85.5 19.5s-46.5 31.167 -62.5 54.5v-61h-107v544l-62 68v39l97 119h83v-286c34 48 81 72 141 72c62.667 0 111.334 -25 146.001 -75z
M415.999 267c0 118.667 -38 178 -114 178c-20 0 -38.167 -4 -54.5 -12s-32.833 -21 -49.5 -39v-251c14 -16 30.5 -28.333 49.5 -37s38.833 -13 59.5 -13c72.667 0 109 58 109 174z" />
    <glyph glyph-name="uni0186" unicode="&#x186;" horiz-adv-x="602" 
d="M472.5 642c57.667 -62.667 86.5 -150.999 86.5 -264.999c0 -79.333 -13.167 -148.333 -39.5 -207s-64 -103.834 -113 -135.501s-106.5 -47.5 -172.5 -47.5c-35.333 0 -70.333 4.83301 -105 14.5s-65.334 23.167 -92.001 40.5l41 93c53.333 -26 106 -39 158 -39
c63.333 0 112.333 23.667 147 71s52 114.333 52 201c0 85.333 -17.833 149.666 -53.5 192.999s-88.5 65 -158.5 65c-60 0 -110.333 -11.667 -151 -35l-41 91c21.333 16.667 49.5 29.834 84.5 39.501s72.833 14.5 113.5 14.5c104.667 0 185.834 -31.333 243.501 -94z" />
    <glyph glyph-name="uni0187" unicode="&#x187;" horiz-adv-x="693" 
d="M683 856l0.000976562 -98.001c-21.333 2 -36.666 3 -45.999 3c-48 0 -72 -24.667 -72 -74v-98h-41c-52.667 26 -105.334 39 -158.001 39c-63.333 0 -112.333 -23.667 -147 -71s-52 -114.333 -52 -201c0 -85.333 17.833 -149.666 53.5 -192.999s88.5 -65 158.5 -65
c60 0 110.333 11.667 151 35l41 -91c-21.333 -16.667 -49.5 -29.834 -84.5 -39.501s-72.833 -14.5 -113.5 -14.5c-104.667 0 -185.834 31.333 -243.501 94s-86.5 151 -86.5 265c0 79.333 13.167 148.333 39.5 207s64 103.834 113 135.501s106.5 47.5 172.5 47.5
c31.333 0 65 -4.33301 101 -13c6.66699 43.333 24.5 76.833 53.5 100.5s67.5 35.5 115.5 35.5c16.667 0 31.667 -1.33301 45 -4z" />
    <glyph glyph-name="uni0188" unicode="&#x188;" horiz-adv-x="574" 
d="M570 679l0.000976562 -97c-20 2 -35.333 3 -46 3c-48 0 -72 -25 -72 -75v-94h-43c-44.667 21.333 -84.667 32 -120 32c-40.667 0 -72.167 -15.333 -94.5 -46s-33.5 -73.667 -33.5 -129c0 -118 47 -177 141 -177c37.333 0 75.666 10.333 114.999 31l41 -91
c-43.333 -32 -97.333 -48 -162 -48c-81.333 0 -144.333 24.333 -189 73s-67 117 -67 205c0 58 10.333 108.833 31 152.5s50 77.5 88 101.5s82 36 132 36c24 0 45.667 -2.33301 65 -7c7.33301 42.667 25.5 75.5 54.5 98.5s67.167 34.5 114.5 34.5c15.333 0 30.333 -1 45 -3z
" />
    <glyph glyph-name="uni0189" unicode="&#x189;" horiz-adv-x="692" 
d="M555 633c56 -60.667 83.999 -150.667 83.999 -270c0 -120 -28.167 -210.5 -84.5 -271.5s-138.166 -91.5 -245.499 -91.5h-225v320h-65v93h65v311h226c107.333 0 189 -30.333 245 -91zM462.999 171.5c34.667 43 51.999 106.833 51.999 191.5
c0 169.333 -69.333 254 -208 254h-103v-204h164v-93h-164v-213h104c68.667 0 120.334 21.5 155.001 64.5z" />
    <glyph glyph-name="uni018A" unicode="&#x18a;" horiz-adv-x="764" 
d="M627.5 633c56.333 -60.667 84.499 -150.667 84.499 -270c0 -120 -28.167 -210.5 -84.5 -271.5s-138.166 -91.5 -245.499 -91.5h-226v616c-21.333 0 -37.333 -5.16699 -48 -15.5s-16 -26.5 -16 -48.5c0 -10 1 -25 3 -45h-108c-2 14 -3 28.667 -3 44
c0 54.667 15 97.167 45 127.5s72.333 45.5 127 45.5h227c106.667 0 188.167 -30.333 244.5 -91zM587.999 363c0 169.333 -69.667 254 -209 254h-103v-510h104c138.667 0 208 85.333 208 256z" />
    <glyph glyph-name="uni018B" unicode="&#x18b;" horiz-adv-x="626" 
d="M542 0h-255c-78 -0 -138.167 19.833 -180.5 59.5s-63.5 98.167 -63.5 175.5s21.333 135.833 64 175.5s104 59.5 184 59.5h131v161h-324v93h444v-724zM422 366h-137c-78.667 0 -118 -43 -118 -129c0 -86.667 42 -130 126 -130h129v259z" />
    <glyph glyph-name="uni018C" unicode="&#x18c;" horiz-adv-x="579" 
d="M501 0l-106.999 -0.000976562v76c-35.333 -59.333 -86 -89 -152 -89c-62.667 0 -111.334 25 -146.001 75s-52 120 -52 210s17.667 159.833 53 209.5s85 74.5 149 74.5c28 0 53.833 -5.16699 77.5 -15.5s43.5 -25.166 59.5 -44.499v180h-265v94h383v-770zM333.501 109.999
c16.333 8 32.833 21 49.5 39v251c-14 16 -30.5 28.333 -49.5 37s-38.833 13 -59.5 13c-72.667 0 -109 -58 -109 -174c0 -118.667 38 -178 114 -178c20 0 38.167 4 54.5 12z" />
    <glyph glyph-name="uni018D" unicode="&#x18d;" horiz-adv-x="560" 
d="M84 -175l40 90.9971c22.667 -11.333 44 -19.666 64 -24.999s40.667 -8 62 -8c26 0 45.5 4.66699 58.5 14s19.5 22.333 19.5 39c0 14 -5 25.667 -15 35s-28.667 23 -56 41l-35 23c-40.667 28 -72.834 52.667 -96.501 74s-43.167 48.666 -58.5 81.999s-23 74.333 -23 123
c0 36.667 8 73.334 24 110.001s41.833 67.667 77.5 93s81.5 38 137.5 38c50 0 92.5 -11 127.5 -33s61.333 -51.167 79 -87.5s26.5 -75.833 26.5 -118.5c0 -53.333 -12 -102.666 -36 -147.999s-64.667 -79.666 -122 -102.999c32 -21.333 54.667 -41.5 68 -60.5
s20 -41.833 20 -68.5c0 -48 -17.333 -86 -52 -114s-83.667 -42 -147 -42s-117.666 15 -162.999 45zM360.5 186.997c23 31.333 34.5 71.333 34.5 120c0 42.667 -9.66699 78.5 -29 107.5s-48 43.5 -86 43.5c-35.333 0 -63.333 -14.167 -84 -42.5s-31 -64.5 -31 -108.5
c0 -44.667 9.33301 -81 28 -109s46.667 -52.667 84 -74c32.667 10.667 60.5 31.667 83.5 63z" />
    <glyph glyph-name="uni018E" unicode="&#x18e;" horiz-adv-x="577" 
d="M493 724v-724h-458v107h338v209h-240v108h240v193h-325v107h445z" />
    <glyph glyph-name="uni018F" unicode="&#x18f;" horiz-adv-x="688" 
d="M552 641.5c55.333 -63 82.999 -156.5 82.999 -280.5c0 -123.333 -25.5 -216.333 -76.5 -279s-124.833 -94 -221.5 -94c-94 0 -167.333 30.5 -220 91.5s-79 147.5 -79 259.5c0 32 2 55 6 69h469c-7.33301 68 -28.666 120.667 -63.999 158s-82.333 56 -141 56
c-59.333 0 -122 -15.333 -188 -46l-46 96c30.667 20.667 66.667 36.5 108 47.5s84 16.5 128 16.5c106 0 186.667 -31.5 242 -94.5zM512.999 304h-353c4 -66 21.333 -116.833 52 -152.5s73 -53.5 127 -53.5c104 0 162 68.667 174 206z" />
    <glyph glyph-name="uni0190" unicode="&#x190;" horiz-adv-x="567" 
d="M556 44c-30.667 -18.667 -67.6689 -32.668 -111.002 -42.001s-87 -14 -131 -14c-85.333 0 -153.333 18.667 -204 56s-76 93.333 -76 168c0 87.333 45 144.333 135 171c-71.333 31.333 -107 84.666 -107 159.999c0 64 23 112.333 69 145s107.667 49 185 49
c76.667 0 147.334 -17 212.001 -51l-40 -94c-54.667 26.667 -108.667 40 -162 40c-43.333 0 -77.666 -8.66699 -102.999 -26s-38 -43.666 -38 -78.999c0 -32 11 -57.333 33 -76s53.667 -28 95 -28h116v-101h-124c-46 0 -82 -7.66699 -108 -23s-39 -42.666 -39 -81.999
c0 -80.667 55.667 -121 167 -121c30.667 0 62.667 3.83301 96 11.5s63.333 18.167 90 31.5z" />
    <glyph glyph-name="uni0191" unicode="&#x191;" horiz-adv-x="539" 
d="M204 617v-211h258v-108h-258v-358c0 -105.333 -53.333 -158 -160 -158c-26 0 -50.667 4.33301 -74 13l17 101c16 -4.66699 33 -7 51 -7c16 0 27.667 4.66699 35 14s11 24 11 44v777h438v-107h-318z" />
    <glyph glyph-name="florin" unicode="&#x192;" horiz-adv-x="571" 
d="M343 530l-13.001 -114h153v-101h-165l-39 -340c-6.66699 -58.667 -27.5 -104.334 -62.5 -137.001s-81.167 -49 -138.5 -49c-24 0 -46.667 3 -68 9l17 115c15.333 -4 32 -6 50 -6c49.333 0 77.333 28 84 84l37 324h-104v101h116l15 131
c6.66699 60.667 27.834 107.5 63.501 140.5s82.5 49.5 140.5 49.5c27.333 0 53 -3.66699 77 -11s43.667 -17.666 59 -30.999l-59 -98c-25.333 14.667 -50 22 -74 22c-53.333 0 -83 -29.667 -89 -89z" />
    <glyph glyph-name="uni0193" unicode="&#x193;" horiz-adv-x="755" 
d="M712 856v-98.002c-20 2 -35 3 -45 3c-48 0 -72 -24.667 -72 -74v-100h-36c-60 28 -117.667 42 -173 42c-139.333 0 -209 -89 -209 -267c0 -178.667 70.333 -268 211 -268c31.333 0 63.333 4.33301 96 13v191h-123v107h243v-363
c-26.667 -17.333 -58.834 -30.833 -96.501 -40.5s-77.5 -14.5 -119.5 -14.5c-106.667 0 -189.167 32.833 -247.5 98.5s-87.5 157.834 -87.5 276.501s29.167 210.834 87.5 276.501s140.833 98.5 247.5 98.5c36.667 0 73.334 -4.33301 110.001 -13
c6.66699 43.333 24.667 76.833 54 100.5s68 35.5 116 35.5c16 0 30.667 -1.33301 44 -4z" />
    <glyph glyph-name="uni0194" unicode="&#x194;" horiz-adv-x="633" 
d="M423 53c9.33301 -24 16 -43.999 20 -59.999s6 -31.333 6 -46c0 -39.333 -11.5 -69.833 -34.5 -91.5s-55.5 -32.5 -97.5 -32.5c-41.333 0 -73.333 10.833 -96 32.5s-34 51.834 -34 90.501c0 15.333 2 31.166 6 47.499s10.667 36.166 20 59.499l51 127l-240 544h127
l167 -411l165 411h126l-239 -541zM348 -44.999c0 24 -6.66699 50.667 -20 80l-11 26l-12 -26c-13.333 -29.333 -20 -56 -20 -80c0 -30 10.667 -45 32 -45c20.667 0 31 15 31 45z" />
    <glyph glyph-name="uni0195" unicode="&#x195;" horiz-adv-x="908" 
d="M830 274c0 -92 -19.501 -162.832 -58.501 -212.499s-94.5 -74.5 -166.5 -74.5c-66 0 -117.167 17.833 -153.5 53.5s-54.5 86.167 -54.5 151.5v172c0 54 -30 81 -90 81c-20.667 0 -40 -3.33301 -58 -10s-35.667 -17 -53 -31v-404h-118v770h118v-281
c42.667 44.667 94 67 154 67c52.667 0 93.334 -15.5 122.001 -46.5s43 -74.5 43 -130.5v-172c0 -76.667 30.333 -115 91 -115c36 0 62.667 14.667 80 44s26 74.666 26 135.999c0 50.667 -2.66699 95 -8 133s-15 84 -29 138h119c24 -90 36 -179.667 36 -269z" />
    <glyph glyph-name="uni0196" unicode="&#x196;" horiz-adv-x="309" 
d="M84 127v597.001h120v-575c0 -16.667 3.16699 -28.834 9.5 -36.501s16.5 -11.5 30.5 -11.5c10 0 22 1 36 3l8 -103c-24 -6 -49 -9 -75 -9c-86 0 -129 45 -129 135z" />
    <glyph glyph-name="uni0197" unicode="&#x197;" horiz-adv-x="326" 
d="M310 326h-87v-326h-120v326h-87v93h87v305h120v-305h87v-93z" />
    <glyph glyph-name="uni0198" unicode="&#x198;" horiz-adv-x="632" 
d="M360 408l279.001 -408.001h-143l-211 312l-81 -102v-210h-120v724h120v-359l201 274c26.667 36.667 52 62.667 76 78s51.667 23 83 23c24.667 0 46.334 -4.5 65.001 -13.5s35.667 -23.167 51 -42.5l-64 -79c-19.333 17.333 -37 26 -53 26
c-10.667 0 -20.834 -3.66699 -30.501 -11s-21.834 -20.666 -36.501 -39.999z" />
    <glyph glyph-name="uni0199" unicode="&#x199;" horiz-adv-x="557" 
d="M259 227l-62.999 -74.999v-152h-118v641c0 47.333 12.5 83 37.5 107s62.167 36 111.5 36c27.333 0 52.333 -4.66699 75 -14l-16 -93c-16.667 3.33301 -32.334 5 -47.001 5c-15.333 0 -26.333 -3.83301 -33 -11.5s-10 -19.834 -10 -36.501v-334l198 243h137l-196 -228
l209 -315h-136z" />
    <glyph glyph-name="uni019A" unicode="&#x19a;" horiz-adv-x="356" 
d="M317 2c-24 -6 -49.333 -8.99902 -76 -8.99902c-91.333 0 -137 46 -137 138v226h-83v85h83v328h118v-328h94v-85h-94v-204c0 -18.667 4 -32.334 12 -41.001s20.667 -13 38 -13c10 0 22.333 1 37 3z" />
    <glyph glyph-name="uni019B" unicode="&#x19b;" horiz-adv-x="521" 
d="M382 0l-120 415l-122 -415h-121l181 544l-15 21l-126 -60h-10v70l80 38c-27.333 18 -63 34.333 -107 49l40 100c75.333 -24 134.666 -56 177.999 -96l118 56h10v-70l-82 -39c18.667 -28 33.334 -58 44.001 -90l172 -523h-120z" />
    <glyph glyph-name="uni019C" unicode="&#x19c;" horiz-adv-x="894" 
d="M810 724l0.000976562 -724.002h-108v65c-44 -52 -97 -78 -159 -78c-34 0 -63 7.33301 -87 22s-42 35.667 -54 63c-46 -56.667 -100 -85 -162 -85c-48.667 0 -86.834 15.333 -114.501 46s-41.5 74 -41.5 130v561h120v-545c0 -54.667 26.333 -82 79 -82
c18 0 35 3.5 51 10.5s33.333 17.833 52 32.5c-0.666992 4.66699 -1 12.334 -1 23.001v561h120v-545c0 -54.667 27.333 -82 82 -82c18 0 35.167 3.33301 51.5 10s33.5 17.334 51.5 32.001v585h120z" />
    <glyph glyph-name="uni019D" unicode="&#x19d;" horiz-adv-x="725" 
d="M641 724v-724h-115l-324 521v-581c0 -105.333 -53 -158 -159 -158c-26.667 0 -52 4.33301 -76 13l18 101c16 -4.66699 33.333 -7 52 -7c16.667 0 28.667 4.66699 36 14s11 24 11 44v777h115l324 -520v520h118z" />
    <glyph glyph-name="uni019E" unicode="&#x19e;" horiz-adv-x="586" 
d="M470 509.5c28.667 -31 43 -74.5 43 -130.5v-586h-118v571c0 54 -29.667 81 -89 81c-39.333 0 -76 -13.667 -110 -41v-404h-118v543h107v-66c44 52.667 98.667 79 164 79c52 0 92.333 -15.5 121 -46.5z" />
    <glyph glyph-name="uni019F" unicode="&#x19f;" horiz-adv-x="715" 
d="M583.5 642.5c52.333 -63 78.5 -156.5 78.5 -280.5s-26.167 -217.5 -78.5 -280.5s-127.833 -94.5 -226.5 -94.5s-174 31.5 -226 94.5s-78 156.5 -78 280.5s26 217.5 78 280.5s127.333 94.5 226 94.5s174.167 -31.5 226.5 -94.5zM177 411h361c-10 146 -70.333 219 -181 219
c-110 0 -170 -73 -180 -219zM539 319h-363c10 -150 70.333 -225 181 -225c111.333 0 172 75 182 225z" />
    <glyph glyph-name="Ohorn" unicode="&#x1a0;" horiz-adv-x="715" 
d="M677.5 695.5c-20.333 -24.333 -53.832 -39.5 -100.499 -45.5c56.667 -62.667 85 -158.667 85 -288c0 -124 -26.167 -217.5 -78.5 -280.5s-127.833 -94.5 -226.5 -94.5s-174 31.5 -226 94.5s-78 156.5 -78 280.5s26 217.5 78 280.5s127.333 94.5 226 94.5
c21.333 0 39.166 -1.16699 53.499 -3.5s29.833 -5.5 46.5 -9.5c10 -2.66699 20.333 -5 31 -7s21.667 -3 33 -3c31.333 0 53 6.5 65 19.5s18 35.833 18 68.5c0 16.667 -1.66699 37 -5 61h104c3.33301 -20 5 -39.667 5 -59c0 -48 -10.167 -84.167 -30.5 -108.5zM538.001 362
c0 178.667 -60.333 268 -181 268c-120 0 -180 -89.333 -180 -268s60 -268 180 -268c120.667 0 181 89.333 181 268z" />
    <glyph glyph-name="ohorn" unicode="&#x1a1;" horiz-adv-x="571" 
d="M556.5 522c-20.333 -22 -53.8311 -35.332 -100.498 -39.999c40.667 -48 61 -118.333 61 -211c0 -93.333 -20.333 -164 -61 -212s-99.334 -72 -176.001 -72c-76 0 -134.333 24 -175 72s-61 118.667 -61 212s20.5 164.166 61.5 212.499s99.5 72.5 175.5 72.5
c23.333 0 45 -2.33301 65 -7c21.333 -4 40.666 -6 57.999 -6c32 0 54 5.5 66 16.5s18 31.5 18 61.5c0 16.667 -1.66699 37 -5 61h99c3.33301 -20 5 -39.667 5 -59c0 -45.333 -10.167 -79 -30.5 -101zM367.002 137.001c19.333 30 29 74.667 29 134
c0 119.333 -38.333 179 -115 179c-77.333 0 -116 -59.667 -116 -179c0 -59.333 9.66699 -104 29 -134s48 -45 86 -45c38.667 0 67.667 15 87 45z" />
    <glyph glyph-name="uni01A2" unicode="&#x1a2;" horiz-adv-x="903" 
d="M819 724l-0.000976562 -932h-120v825h-87v-575c-34.667 -17.333 -74 -30.5 -118 -39.5s-89.667 -13.5 -137 -13.5c-98.667 0 -174 31.5 -226 94.5s-78 155.833 -78 278.5c0 124 25.667 217.167 77 279.5s127 93.5 227 93.5c14.667 0 33.334 -1 56.001 -3
c74.667 -5.33301 141 -8 199 -8h207zM491.999 111v510l-24 2c-54.667 3.33301 -91.667 5 -111 5c-120 0 -180 -88.667 -180 -266s60 -266 180 -266c51.333 0 96.333 5 135 15z" />
    <glyph glyph-name="uni01A3" unicode="&#x1a3;" horiz-adv-x="752" 
d="M673 543l0.000976562 -749.001h-118v643h-73v-418c-68.667 -20 -136 -30 -202 -30c-76 0 -134.333 23.833 -175 71.5s-61 117.834 -61 210.501c0 93.333 20.5 163.833 61.5 211.5s99.5 71.5 175.5 71.5c9.33301 0 28.666 -1.33301 57.999 -4
c51.333 -4.66699 99 -7 143 -7h191zM364.001 100.999v342.001c-12.667 1.33301 -31.667 2.66602 -57 3.99902l-26 1c-38.667 0.666992 -67.667 -13.833 -87 -43.5s-29 -74.167 -29 -133.5c0 -118 38.333 -177 115 -177c26.667 0 54.667 2.33301 84 7z" />
    <glyph glyph-name="uni01A4" unicode="&#x1a4;" horiz-adv-x="670" 
d="M594 660c41.333 -42.667 62.002 -102.333 62.002 -179c0 -77.333 -21.333 -137.5 -64 -180.5s-102.334 -64.5 -179.001 -64.5h-137v-236h-120v616c-21.333 0 -37.333 -5.16699 -48 -15.5s-16 -26.5 -16 -48.5c0 -10 1 -25 3 -45h-108c-2 14 -3 28.667 -3 44
c0 54.667 15 97.167 45 127.5s72.333 45.5 127 45.5h263c75.333 0 133.666 -21.333 174.999 -64zM532.002 479.001c0 92 -39.667 138 -119 138h-137v-274h143c75.333 0 113 45.333 113 136z" />
    <glyph glyph-name="uni01A5" unicode="&#x1a5;" horiz-adv-x="579" 
d="M483 481c34.667 -50 51.999 -119.998 51.999 -209.998s-17.667 -159.833 -53 -209.5s-85 -74.5 -149 -74.5c-28 0 -53.833 5.16699 -77.5 15.5s-43.5 25.166 -59.5 44.499v-254h-118v848c0 47.333 12.5 83 37.5 107s62.167 36 111.5 36c27.333 0 52.333 -4.66699 75 -14
l-16 -94c-15.333 4 -31 6 -47 6c-15.333 0 -26.333 -3.83301 -33 -11.5s-10 -19.834 -10 -36.501v-150c34 48 81 72 141 72c62.667 0 111.334 -25 146.001 -75zM413.999 267.002c0 118.667 -38 178 -114 178c-20 0 -38.167 -4 -54.5 -12s-32.833 -21 -49.5 -39v-251
c14 -16 30.5 -28.333 49.5 -37s38.833 -13 59.5 -13c72.667 0 109 58 109 174z" />
    <glyph glyph-name="uni01A6" unicode="&#x1a6;" horiz-adv-x="607" 
d="M329 216l-125 0.000976562v-216h-120v724h120v-81h132c73.333 0 130.333 -18.833 171 -56.5s61 -89.834 61 -156.501c0 -46.667 -10.167 -86.5 -30.5 -119.5s-49.833 -57.5 -88.5 -73.5l231 -347h-147zM204 319.001h132c72 0 108 36 108 108
c0 73.333 -37.333 110 -112 110h-128v-218z" />
    <glyph glyph-name="uni01A7" unicode="&#x1a7;" horiz-adv-x="563" 
d="M109.5 46.5c-44.333 39 -66.5029 93.5039 -66.5029 163.504c0 53.333 14 96.166 42 128.499s73 57.166 135 74.499l82 23c35.333 9.33301 61.333 22.5 78 39.5s25 38.833 25 65.5c0 29.333 -10.333 51.666 -31 66.999s-50.667 23 -90 23c-53.333 0 -114 -13 -182 -39
l-40 96c34 15.333 70.167 27.166 108.5 35.499s75.5 12.5 111.5 12.5c75.333 0 134 -19 176 -57s63 -90.667 63 -158c0 -53.333 -14 -96 -42 -128s-73 -56.667 -135 -74l-82 -23c-35.333 -9.33301 -61.166 -22.5 -77.499 -39.5s-24.5 -38.833 -24.5 -65.5
c0 -32 11.333 -56.333 34 -73s56.334 -25 101.001 -25c67.333 0 132.333 18 195 54l39 -96c-31.333 -20 -67.5 -35.5 -108.5 -46.5s-82.833 -16.5 -125.5 -16.5c-79.333 0 -141.166 19.5 -185.499 58.5z" />
    <glyph glyph-name="uni01A8" unicode="&#x1a8;" horiz-adv-x="469" 
d="M91 34c-36.667 30.667 -55 73.6641 -55 128.997c0 42.667 11.333 76.334 34 101.001s59.334 43 110.001 55l71 17c24 6 41.667 13.833 53 23.5s17 21.834 17 36.501c0 36.667 -28.667 55 -86 55c-46 0 -92.667 -12 -140 -36l-45 95c26 14 55 25 87 33s64 12 96 12
c64 0 113.5 -15 148.5 -45s52.5 -71.667 52.5 -125c0 -42 -11.5 -75.167 -34.5 -99.5s-59.5 -42.166 -109.5 -53.499l-71 -17c-24 -6 -41.5 -14 -52.5 -24s-16.5 -23 -16.5 -39c0 -40 32 -60 96 -60c55.333 0 107.333 15 156 45l41 -96
c-26 -16.667 -56.167 -29.667 -90.5 -39s-69.833 -14 -106.5 -14c-66.667 0 -118.334 15.333 -155.001 46z" />
    <glyph glyph-name="uni01A9" unicode="&#x1a9;" horiz-adv-x="587" 
d="M46 106l219 261l-219 251v106h505v-106h-359l222 -251l-222 -261h359v-106h-505v106z" />
    <glyph glyph-name="uni01AA" unicode="&#x1aa;" horiz-adv-x="338" 
d="M400 -118l-0.000976562 -102.999c-16.667 -3.33301 -36 -5 -58 -5c-63.333 0 -112.5 16.833 -147.5 50.5s-52.5 81.167 -52.5 142.5v568c-13.333 -13.333 -36 -20 -68 -20c-39.333 0 -70.166 11.167 -92.499 33.5s-33.5 54.166 -33.5 95.499
c0 45.333 13.667 80.5 41 105.5s65.666 37.5 114.999 37.5c48.667 0 86.834 -12.5 114.501 -37.5s41.5 -59.5 41.5 -103.5v-679c0 -59.333 27.333 -89 82 -89c20.667 0 40 1.33301 58 4zM136.499 614.001c9 9.33301 13.499 21.667 13.499 37c0 14.667 -4.16699 26 -12.5 34
s-20.166 12 -35.499 12c-32 0 -48 -16.333 -48 -49c0 -32 15 -48 45 -48c16 0 28.5 4.66699 37.5 14z" />
    <glyph glyph-name="uni01AB" unicode="&#x1ab;" horiz-adv-x="398" 
d="M377 6l-0.00195312 -80.001c0 -95.333 -48.333 -143 -145 -143c-29.333 0 -55.666 4.33301 -78.999 13l16 94c18 -3.33301 35 -5 51 -5c16.667 0 28.834 3.83301 36.501 11.5s11.5 19.834 11.5 36.501v59c-112 4.66699 -168 63.667 -168 177v272h-86v102h86v151h118v-151
h152v-102h-152v-252c0 -32 6.5 -55.167 19.5 -69.5s34.167 -21.5 63.5 -21.5c18.667 0 38 2.66699 58 8z" />
    <glyph glyph-name="uni01AC" unicode="&#x1ac;" horiz-adv-x="529" 
d="M508 616l-183.999 -0.00195312v-616h-120v616h-45c-21.333 0 -37.333 -5.16699 -48 -15.5s-16 -26.5 -16 -48.5c0 -10 1 -25 3 -45h-107c-2.66699 12.667 -4 27.334 -4 44.001c0 54.667 14.667 96.834 44 126.501s70.666 45.167 123.999 46.5h353v-108z" />
    <glyph glyph-name="uni01AD" unicode="&#x1ad;" horiz-adv-x="398" 
d="M377 6c-30 -9.33301 -61.668 -14 -95.001 -14c-121.333 0 -182 59 -182 177v272h-86v102h86v48c0 61.333 18.333 108.833 55 142.5s88.334 50.5 155.001 50.5c22 0 41.333 -1.66699 58 -5v-103c-18 2.66699 -37.333 4 -58 4c-61.333 0 -92 -29.667 -92 -89v-48h152v-102
h-152v-252c0 -32 6.5 -55.167 19.5 -69.5s34.167 -21.5 63.5 -21.5c18.667 0 38 2.66699 58 8z" />
    <glyph glyph-name="uni01AE" unicode="&#x1ae;" horiz-adv-x="529" 
d="M335 -97c7.33301 -9.33301 19 -14 35 -14c18 0 35 2.33301 51 7l17 -101c-23.333 -8.66699 -48 -13 -74 -13c-106.667 0 -160 52.667 -160 158v676h-183v108h487v-108h-184v-669c0 -20 3.66699 -34.667 11 -44z" />
    <glyph glyph-name="Uhorn" unicode="&#x1af;" horiz-adv-x="687" 
d="M701 703c-18.667 -22.667 -49.667 -37.3311 -93 -43.998v-408c0 -84 -23.167 -149 -69.5 -195s-111.833 -69 -196.5 -69c-83.333 0 -148 23 -194 69s-69 111 -69 195v473h120v-466c0 -109.333 48 -164 144 -164c96.667 0 145 54.667 145 164v466h54
c32 0 54 5.66699 66 17s18 31.666 18 60.999c0 16.667 -1.66699 37 -5 61h103c3.33301 -20 5 -39.667 5 -59c0 -44.667 -9.33301 -78.334 -28 -101.001z" />
    <glyph glyph-name="uhorn" unicode="&#x1b0;" horiz-adv-x="578" 
d="M590.5 522.5c-18.333 -22.333 -48.5 -36.833 -90.5 -43.5v-479h-108v73c-40 -57.333 -93.667 -86 -161 -86c-50.667 0 -90 15.333 -118 46s-42 74 -42 130v380h118v-364c0 -54.667 28.667 -82 86 -82c20.667 0 39.5 4 56.5 12s33.833 21 50.5 39v395h52
c32 0 54 5.5 66 16.5s18 31.5 18 61.5c0 16.667 -1.66699 37 -5 61h100c3.33301 -20 5 -39.667 5 -59c0 -44.667 -9.16699 -78.167 -27.5 -100.5z" />
    <glyph glyph-name="uni01B1" unicode="&#x1b1;" horiz-adv-x="735" 
d="M144 77c-53.333 59.333 -80.001 141.333 -80.001 246c0 123.333 41.667 224.666 125 303.999h-136v97h260v-106c-43.333 -37.333 -75 -79 -95 -125s-30 -100.333 -30 -163c0 -157.333 59.667 -236 179 -236c120 0 180 78.667 180 236c0 62.667 -10 117 -30 163
s-51.667 87.667 -95 125v106h260v-97h-136c83.333 -79.333 125 -180.666 125 -303.999c0 -104.667 -26.667 -186.667 -80 -246s-128 -89 -224 -89c-95.333 0 -169.666 29.667 -222.999 89z" />
    <glyph glyph-name="uni01B2" unicode="&#x1b2;" horiz-adv-x="687" 
d="M609 353h-1v-102c0 -84 -23.167 -149 -69.5 -195s-111.833 -69 -196.5 -69c-83.333 0 -148 23 -194 69s-69 111 -69 195v473h120v-466c0 -109.333 48 -164 144 -164c96.667 0 145 54.667 145 164v249h1v65c0 20 -3.66699 34.667 -11 44s-19 14 -35 14
c-18 0 -35 -2.33301 -51 -7l-17 101c23.333 8.66699 48 13 74 13c106.667 0 160 -52.667 160 -158v-226z" />
    <glyph glyph-name="uni01B3" unicode="&#x1b3;" horiz-adv-x="653" 
d="M648.5 703.5c22.333 -25.667 35.1699 -63.834 38.5029 -114.501l-97 -18c-2.66699 20.667 -7 35.834 -13 45.501s-13.667 14.5 -23 14.5c-8.66699 0 -16.334 -3.33301 -23.001 -10s-13.334 -18 -20.001 -34l-158 -342v-245h-120v245l-217 479h129l151 -349l104 242
c18.667 43.333 40.167 75 64.5 95s54.166 30 89.499 30c40.667 0 72.167 -12.833 94.5 -38.5z" />
    <glyph glyph-name="uni01B4" unicode="&#x1b4;" horiz-adv-x="629" 
d="M660 512l-95.001 -17.002c-3.33301 20 -7.66602 34.5 -12.999 43.5s-13 13.5 -23 13.5c-8.66699 0 -16.334 -4.5 -23.001 -13.5s-13.667 -24.833 -21 -47.5l-155 -471c-19.333 -59.333 -50.5 -108.166 -93.5 -146.499s-101.167 -69.5 -174.5 -93.5l-40 100
c46.667 16.667 83.834 34.334 111.501 53.001s49.834 40.667 66.501 66l-181 544h121l122 -416l115 396c26 92 77 138 153 138c79.333 0 122.666 -49.667 129.999 -149z" />
    <glyph glyph-name="uni01B5" unicode="&#x1b5;" horiz-adv-x="554" 
d="M515 106v-106h-478v107l149 226h-108v91h168l127 194h-323v106h460v-106l-128 -194h92v-91h-152l-149 -227h342z" />
    <glyph glyph-name="uni01B6" unicode="&#x1b6;" horiz-adv-x="469" 
d="M435 100v-100h-402v100l106 138h-83v79h144l97 126h-255v100h388v-100l-97 -126h83v-79h-144l-107 -138h270z" />
    <glyph glyph-name="uni01B7" unicode="&#x1b7;" horiz-adv-x="588" 
d="M546 225c0 -52 -13.166 -95.832 -39.499 -131.499s-61.833 -62.334 -106.5 -80.001s-94.667 -26.5 -150 -26.5c-43.333 0 -85.5 4.5 -126.5 13.5s-78.167 22.833 -111.5 41.5l44 97c64 -28.667 128 -43 192 -43c55.333 0 98.166 11.333 128.499 34s45.5 55 45.5 97
c0 45.333 -18.167 76.833 -54.5 94.5s-89.833 26.5 -160.5 26.5h-42v90l189 180h-307v106h454v-108l-190 -180c156.667 -16 235 -86.333 235 -211z" />
    <glyph glyph-name="uni01B8" unicode="&#x1b8;" horiz-adv-x="588" 
d="M576 42c-33.333 -18.667 -70.499 -32.501 -111.499 -41.501s-83.167 -13.5 -126.5 -13.5c-55.333 0 -105.333 8.83301 -150 26.5s-80.167 44.334 -106.5 80.001s-39.5 79.5 -39.5 131.5c0 124.667 78.333 195 235 211l-190 180v108h454v-106h-307l189 -180v-90h-42
c-70.667 0 -124.167 -8.83301 -160.5 -26.5s-54.5 -49.167 -54.5 -94.5c0 -42 15.167 -74.333 45.5 -97s73.166 -34 128.499 -34c64 0 128 14.333 192 43z" />
    <glyph glyph-name="uni01B9" unicode="&#x1b9;" horiz-adv-x="503" 
d="M492 -179c-52 -27.333 -117.333 -40.999 -196 -40.999c-52 0 -98 9.33301 -138 28s-71.167 45.667 -93.5 81s-33.5 76.666 -33.5 123.999c0 68 19.5 118.333 58.5 151s92.833 52.667 161.5 60l-181 218v101h398v-100h-264l175 -215v-86h-48
c-119.333 0 -179 -42.333 -179 -127c0 -44 13.667 -77.5 41 -100.5s65 -34.5 113 -34.5c48.667 0 97 11 145 33z" />
    <glyph glyph-name="uni01BA" unicode="&#x1ba;" horiz-adv-x="465" 
d="M269.5 -102.5c30.333 7.66699 61.5 18.8311 93.5 33.498l39 -95c-70.667 -32 -143 -48 -217 -48c-62 0 -109.833 13.5 -143.5 40.5s-50.5 65.5 -50.5 115.5c0 54.667 17.667 91.834 53 111.501s80.333 30.167 135 31.5c25.333 0.666992 47 2.66699 65 6s34 10.333 48 21
s21 27 21 49c0 26.667 -12.5 45.834 -37.5 57.501s-66.5 17.5 -124.5 17.5h-37v85l140 120h-243v100h383v-102l-149 -118c64 -6 111.5 -22.167 142.5 -48.5s46.5 -63.5 46.5 -111.5c0 -50 -13.667 -87.667 -41 -113s-58.666 -41.833 -93.999 -49.5
s-74.333 -12.167 -117 -13.5c-24 -0.666992 -43 -4 -57 -10s-21 -18.667 -21 -38c0 -35.333 28.333 -53 85 -53c23.333 0 50.166 3.83301 80.499 11.5z" />
    <glyph glyph-name="uni01BB" unicode="&#x1bb;" horiz-adv-x="535" 
d="M354 307l-180 -203.002h309v-104h-450v105l175 202h-157v92h236c26.667 31.333 45.167 56.833 55.5 76.5s15.5 38.834 15.5 57.501c0 29.333 -10 52.5 -30 69.5s-47.333 25.5 -82 25.5c-27.333 0 -55.333 -4.66699 -84 -14s-56 -22.666 -82 -39.999l-54 91
c29.333 21.333 65 38.666 107 51.999s83 20 123 20c44 0 82.833 -8.16699 116.5 -24.5s59.667 -39.166 78 -68.499s27.5 -63.333 27.5 -102c0 -24 -3.83301 -47.333 -11.5 -70s-20.5 -47 -38.5 -73h55v-92h-129z" />
    <glyph glyph-name="uni01BC" unicode="&#x1bc;" horiz-adv-x="550" 
d="M443 394c42.667 -39.333 63.999 -92.6689 63.999 -160.002c0 -49.333 -10.5 -92.666 -31.5 -129.999s-51 -66.166 -90 -86.499s-84.167 -30.5 -135.5 -30.5c-38.667 0 -76.834 5.5 -114.501 16.5s-68.834 25.5 -93.501 43.5l44 97
c27.333 -15.333 55.333 -27.166 84 -35.499s55.334 -12.5 80.001 -12.5c42.667 0 75.834 12 99.501 36s35.5 57 35.5 99c0 40.667 -12.5 71.667 -37.5 93s-63.167 33.666 -114.5 36.999l-140 10v249h-79v104h460v-104h-263v-153l47 -4
c80.667 -6.66699 142.334 -29.667 185.001 -69z" />
    <glyph glyph-name="uni01BD" unicode="&#x1bd;" horiz-adv-x="475" 
d="M439 167c0 -56.667 -19.668 -100.833 -59.001 -132.5s-94.333 -47.5 -165 -47.5c-35.333 0 -69.666 4 -102.999 12s-61.333 19.333 -84 34l41 93c22.667 -10.667 46.667 -19 72 -25s50 -9 74 -9c68.667 0 103 25.333 103 76c0 24 -9.66699 42.167 -29 54.5
s-48 19.833 -86 22.5l-128 9v187h-69v102h407v-102h-224v-100l31 -2c146 -10 219 -67.333 219 -172z" />
    <glyph glyph-name="uni01BE" unicode="&#x1be;" horiz-adv-x="501" 
d="M137 3c-36.667 10 -67.666 23.665 -92.999 40.998l41 96c24.667 -15.333 51 -27.166 79 -35.499s55.333 -12.5 82 -12.5c64.667 0 97 19.667 97 59c0 16.667 -5.83301 30 -17.5 40s-30.5 21 -56.5 33c-24.667 11.333 -44.834 22.333 -60.501 33s-29 25.5 -40 44.5
s-16.5 43.167 -16.5 72.5v67h-86v102h86v151h118v-151h152v-102h-152v-63c0 -16.667 6 -30 18 -40s31 -21.667 57 -35c23.333 -11.333 42.5 -22.166 57.5 -32.499s27.833 -24.333 38.5 -42s16 -39.834 16 -66.501c0 -55.333 -18.5 -98.166 -55.5 -128.499
s-88.833 -45.5 -155.5 -45.5c-36 0 -72.333 5 -109 15z" />
    <glyph glyph-name="uni01BF" unicode="&#x1bf;" horiz-adv-x="567" 
d="M477.5 500c30.333 -37.333 45.5 -89.667 45.5 -157c0 -42.667 -7 -80.5 -21 -113.5s-37.5 -65.667 -70.5 -98s-79.5 -68.833 -139.5 -109.5l-96 -64v-165h-118v750h107v-84c39.333 64.667 94.333 97 165 97c54.667 0 97.167 -18.667 127.5 -56zM374 228.999
c18.667 28 28 61.667 28 101c0 76.667 -29.667 115 -89 115c-20.667 0 -40.5 -5 -59.5 -15s-38.167 -25.667 -57.5 -47v-299l76 52c49.333 34 83.333 65 102 93z" />
    <glyph glyph-name="uni01C0" unicode="&#x1c0;" horiz-adv-x="275" 
d="M86 770h103v-770h-103v770z" />
    <glyph glyph-name="uni01C1" unicode="&#x1c1;" horiz-adv-x="437" 
d="M86 770h103v-770h-103v770zM249 770h103v-770h-103v770z" />
    <glyph glyph-name="uni01C2" unicode="&#x1c2;" horiz-adv-x="352" 
d="M225 450v-129h111v-101h-111v-220h-103v220h-106v101h106v129h-106v101h106v219h103v-219h111v-101h-111z" />
    <glyph glyph-name="uni01C3" unicode="&#x1c3;" horiz-adv-x="359" 
d="M113 770h132l-19 -568h-94zM123 6.5c-13.333 13 -20 30.833 -20 53.5c0 23.333 6.66699 41.5 20 54.5s32 19.5 56 19.5s42.667 -6.5 56 -19.5s20 -30.833 20 -53.5c0 -23.333 -6.66699 -41.5 -20 -54.5s-32 -19.5 -56 -19.5s-42.667 6.5 -56 19.5z" />
    <glyph glyph-name="uni01C4" unicode="&#x1c4;" horiz-adv-x="1217" 
d="M880 781l-117 133v12h90l87 -81l87 81h86v-12l-117 -133h-116zM555 633c56 -60.667 83.999 -150.667 83.999 -270c0 -120 -28.167 -210.5 -84.5 -271.5s-138.166 -91.5 -245.499 -91.5h-225v724h226c107.333 0 189 -30.333 245 -91zM1178 106v-106h-478v107l336 511h-323
v106h460v-106l-337 -512h342zM462.999 171.5c34.667 43 51.999 106.833 51.999 191.5c0 169.333 -69.333 254 -208 254h-103v-510h104c68.667 0 120.334 21.5 155.001 64.5z" />
    <glyph glyph-name="uni01C5" unicode="&#x1c5;" horiz-adv-x="1143" 
d="M555 633c56 -60.667 83.999 -150.667 83.999 -270c0 -120 -28.167 -210.5 -84.5 -271.5s-138.166 -91.5 -245.499 -91.5h-225v724h226c107.333 0 189 -30.333 245 -91zM462.999 171.5c34.667 43 51.999 106.833 51.999 191.5c0 169.333 -69.333 254 -208 254h-103v-510
h104c68.667 0 120.334 21.5 155.001 64.5zM1108 100v-100h-402v100l264 343h-255v100h388v-100l-265 -343h270zM1062 784v-10l-102 -159h-110l-102 159v10h84l75 -95l75 95h80z" />
    <glyph glyph-name="uni01C6" unicode="&#x1c6;" horiz-adv-x="1040" 
d="M501 770l0.000976562 -770.001h-107v76c-35.333 -59.333 -86 -89 -152 -89c-62.667 0 -111.334 25 -146.001 75s-52 120 -52 210s17.667 159.833 53 209.5s85 74.5 149 74.5c28 0 53.833 -5.16699 77.5 -15.5s43.5 -25.166 59.5 -44.499v274h118zM333.501 109.999
c16.333 8 32.833 21 49.5 39v251c-14 16 -30.5 28.333 -49.5 37s-38.833 13 -59.5 13c-72.667 0 -109 -58 -109 -174c0 -118.667 38 -178 114 -178c20 0 38.167 4 54.5 12zM1006 99.999v-100h-402v100l264 343h-255v100h388v-100l-265 -343h270zM960.001 783.999v-10
l-102 -159h-110l-102 159v10h84l75 -95l75 95h80z" />
    <glyph glyph-name="uni01C7" unicode="&#x1c7;" horiz-adv-x="983" 
d="M204 108h300v-108h-420v724h120v-616zM904 724v-538.999c0 -62.667 -17.167 -111.334 -51.5 -146.001s-82.5 -52 -144.5 -52c-28.667 0 -56.167 3.33301 -82.5 10s-49.5 16 -69.5 28l42 97c39.333 -18 74.333 -27 105 -27c54 0 81 32.333 81 97v532h120z" />
    <glyph glyph-name="uni01C8" unicode="&#x1c8;" horiz-adv-x="808" 
d="M504 108v-108h-420v724h120v-616h300zM469 -125c38.667 13.333 67.833 26.835 87.5 40.502s33.5 30.5 41.5 50.5s12 46.333 12 79v498h118v-500c0 -50.667 -6.5 -91.834 -19.5 -123.501s-35.167 -58.334 -66.5 -80.001s-76 -42.167 -134 -61.5zM615.499 640.002
c-13 12.667 -19.5 29.667 -19.5 51c0 22.667 6.33301 40.167 19 52.5s30.667 18.5 54 18.5c22.667 0 40.5 -6.33301 53.5 -19s19.5 -29.667 19.5 -51c0 -22.667 -6.33301 -40.167 -19 -52.5s-30.667 -18.5 -54 -18.5c-22.667 0 -40.5 6.33301 -53.5 19z" />
    <glyph glyph-name="uni01C9" unicode="&#x1c9;" horiz-adv-x="593" 
d="M76 131v639.001h118v-617c0 -18.667 4 -32.334 12 -41.001s20.667 -13 38 -13c10 0 22.333 1 37 3l8 -100c-24 -6 -49.333 -9 -76 -9c-91.333 0 -137 46 -137 138zM248 -124.999c38.667 13.333 67.833 26.835 87.5 40.502s33.5 30.5 41.5 50.5s12 46.333 12 79v498h118
v-500c0 -50.667 -6.5 -91.834 -19.5 -123.501s-35.167 -58.334 -66.5 -80.001s-76 -42.167 -134 -61.5zM394.499 640.003c-13 12.667 -19.5 29.667 -19.5 51c0 22.667 6.33301 40.167 19 52.5s30.667 18.5 54 18.5c22.667 0 40.5 -6.33301 53.5 -19s19.5 -29.667 19.5 -51
c0 -22.667 -6.33301 -40.167 -19 -52.5s-30.667 -18.5 -54 -18.5c-22.667 0 -40.5 6.33301 -53.5 19z" />
    <glyph glyph-name="uni01CA" unicode="&#x1ca;" horiz-adv-x="1128" 
d="M523 724h118v-724h-115l-324 521v-521h-118v724h115l324 -520v520zM1049 724v-538.999c0 -62.667 -17.167 -111.334 -51.5 -146.001s-82.5 -52 -144.5 -52c-28.667 0 -56.167 3.33301 -82.5 10s-49.5 16 -69.5 28l42 97c39.333 -18 74.333 -27 105 -27
c54 0 81 32.333 81 97v532h120z" />
    <glyph glyph-name="uni01CB" unicode="&#x1cb;" horiz-adv-x="998" 
d="M641 724v-724h-115l-324 521v-521h-118v724h115l324 -520v520h118zM658 -125c38.667 13.333 67.833 26.835 87.5 40.502s33.5 30.5 41.5 50.5s12 46.333 12 79v498h118v-500c0 -50.667 -6.5 -91.834 -19.5 -123.501s-35.167 -58.334 -66.5 -80.001
s-76 -42.167 -134 -61.5zM804.499 640.002c-13 12.667 -19.5 29.667 -19.5 51c0 22.667 6.33301 40.167 19 52.5s30.667 18.5 54 18.5c22.667 0 40.5 -6.33301 53.5 -19s19.5 -29.667 19.5 -51c0 -22.667 -6.33301 -40.167 -19 -52.5s-30.667 -18.5 -54 -18.5
c-22.667 0 -40.5 6.33301 -53.5 19z" />
    <glyph glyph-name="uni01CC" unicode="&#x1cc;" horiz-adv-x="859" 
d="M470 509.5c28.667 -31 43 -74.5 43 -130.5v-379h-118v364c0 54 -29.667 81 -89 81c-39.333 0 -76 -13.667 -110 -41v-404h-118v543h107v-66c44 52.667 98.667 79 164 79c52 0 92.333 -15.5 121 -46.5zM519 -125c38.667 13.333 67.833 26.835 87.5 40.502
s33.5 30.5 41.5 50.5s12 46.333 12 79v498h118v-500c0 -50.667 -6.5 -91.834 -19.5 -123.501s-35.167 -58.334 -66.5 -80.001s-76 -42.167 -134 -61.5zM665.499 640.002c-13 12.667 -19.5 29.667 -19.5 51c0 22.667 6.33301 40.167 19 52.5s30.667 18.5 54 18.5
c22.667 0 40.5 -6.33301 53.5 -19s19.5 -29.667 19.5 -51c0 -22.667 -6.33301 -40.167 -19 -52.5s-30.667 -18.5 -54 -18.5c-22.667 0 -40.5 6.33301 -53.5 19z" />
    <glyph glyph-name="uni01CD" unicode="&#x1cd;" horiz-adv-x="669" 
d="M276 781l-117 133v12h90l87 -81l87 81h86v-12l-117 -133h-116zM470 168h-272l-52 -168h-126l249 724h131l249 -724h-127zM437 273l-104 333l-103 -333h207z" />
    <glyph glyph-name="uni01CE" unicode="&#x1ce;" horiz-adv-x="534" 
d="M408.5 510c36.333 -30.667 54.502 -74.333 54.502 -131v-379h-106v76c-34 -58 -87.667 -87 -161 -87c-52.667 0 -93.334 14.333 -122.001 43s-43 68.667 -43 120c0 64.667 25.167 112.167 75.5 142.5s130.166 45.833 239.499 46.5v25c0 56 -36.333 84 -109 84
c-42.667 0 -85 -9.33301 -127 -28l-30 92c58 28 117 42 177 42c64.667 0 115.167 -15.333 151.5 -46zM346.002 146.001l0.000976562 114c-70 -1.33301 -121 -9.83301 -153 -25.5s-48 -40.167 -48 -73.5c0 -47.333 26.667 -71 80 -71c47.333 0 87.666 18.667 120.999 56z
M413.003 784.001v-10l-102 -159h-110l-102 159v10h84l75 -95l75 95h80z" />
    <glyph glyph-name="uni01CF" unicode="&#x1cf;" horiz-adv-x="291" 
d="M321 926v-12l-117 -133h-116l-117 133v12h90l87 -81l87 81h86zM86 724h120v-724h-120v724z" />
    <glyph glyph-name="uni01D0" unicode="&#x1d0;" horiz-adv-x="278" 
d="M80 543h118v-543h-118v543zM296 784v-10l-102 -159h-110l-102 159v10h84l75 -95l75 95h80z" />
    <glyph glyph-name="uni01D1" unicode="&#x1d1;" horiz-adv-x="715" 
d="M299 781l-117 133v12h90l87 -81l87 81h86v-12l-117 -133h-116zM583.5 642.5c52.333 -63 78.5 -156.5 78.5 -280.5s-26.167 -217.5 -78.5 -280.5s-127.833 -94.5 -226.5 -94.5s-174 31.5 -226 94.5s-78 156.5 -78 280.5s26 217.5 78 280.5s127.333 94.5 226 94.5
s174.167 -31.5 226.5 -94.5zM538 362c0 178.667 -60.333 268 -181 268c-120 0 -180 -89.333 -180 -268s60 -268 180 -268c120.667 0 181 89.333 181 268z" />
    <glyph glyph-name="uni01D2" unicode="&#x1d2;" horiz-adv-x="561" 
d="M105 59c-40.667 48 -61 118.667 -61 212s20.5 164.166 61.5 212.499s99.5 72.5 175.5 72.5s134.333 -24.167 175 -72.5s61 -119.166 61 -212.499s-20.5 -164 -61.5 -212s-99.5 -72 -175.5 -72s-134.333 24 -175 72zM367 137c19.333 30 29 74.667 29 134
c0 119.333 -38.333 179 -115 179c-77.333 0 -116 -59.667 -116 -179c0 -59.333 9.66699 -104 29 -134s48 -45 86 -45c38.667 0 67.667 15 87 45zM438 784v-10l-102 -159h-110l-102 159v10h84l75 -95l75 95h80z" />
    <glyph glyph-name="uni01D3" unicode="&#x1d3;" horiz-adv-x="687" 
d="M285 781l-117 133v12h90l87 -81l87 81h86v-12l-117 -133h-116zM608 724v-473c0 -84 -23.167 -149 -69.5 -195s-111.833 -69 -196.5 -69c-83.333 0 -148 23 -194 69s-69 111 -69 195v473h120v-466c0 -109.333 48 -164 144 -164c96.667 0 145 54.667 145 164v466h120z" />
    <glyph glyph-name="uni01D4" unicode="&#x1d4;" horiz-adv-x="578" 
d="M500 543v-543h-108v73c-40 -57.333 -93.667 -86 -161 -86c-50.667 0 -90 15.333 -118 46s-42 74 -42 130v380h118v-364c0 -54.667 28.667 -82 86 -82c20.667 0 39.5 4 56.5 12s33.833 21 50.5 39v395h118zM443 784v-10l-102 -159h-110l-102 159v10h84l75 -95l75 95h80z
" />
    <glyph glyph-name="uni01D5" unicode="&#x1d5;" horiz-adv-x="687" 
d="M185 1010h316v-81h-316v81zM202 787c-11.333 11.333 -17 26.666 -17 45.999c0 20 5.66699 35.667 17 47s27 17 47 17s35.667 -5.66699 47 -17s17 -26.666 17 -45.999c0 -20.667 -5.5 -36.5 -16.5 -47.5s-26.833 -16.5 -47.5 -16.5c-20 0 -35.667 5.66699 -47 17zM390 787
c-11.333 11.333 -17 26.666 -17 45.999c0 20 5.66699 35.667 17 47s27 17 47 17s35.667 -5.66699 47 -17s17 -26.666 17 -45.999c0 -20.667 -5.5 -36.5 -16.5 -47.5s-26.833 -16.5 -47.5 -16.5c-20 0 -35.667 5.66699 -47 17zM148 56c-46 46 -69 111 -69 195v473h120v-466
c0 -109.333 48 -164 144 -164c96.667 0 145 54.667 145 164v466h120v-473c0 -84 -23.167 -149 -69.5 -195s-111.833 -69 -196.5 -69c-83.333 0 -148 23 -194 69z" />
    <glyph glyph-name="uni01D6" unicode="&#x1d6;" horiz-adv-x="578" 
d="M444 795h-316v83h316v-83zM141.5 642.5c-11.667 11.667 -17.5 27.501 -17.5 47.501c0 21.333 5.83301 37.833 17.5 49.5s27.834 17.5 48.501 17.5s36.834 -6 48.501 -18s17.5 -28 17.5 -48c0 -20.667 -5.83301 -36.834 -17.5 -48.501s-27.834 -17.5 -48.501 -17.5
s-36.834 5.83301 -48.501 17.5zM430.5 739.001c11.667 -12 17.5 -27.999 17.5 -47.999c0 -20.667 -5.83301 -36.834 -17.5 -48.501s-27.834 -17.5 -48.501 -17.5s-36.834 5.83301 -48.501 17.5s-17.5 27.5 -17.5 47.5c0 21.333 5.83301 37.833 17.5 49.5
s27.834 17.5 48.501 17.5s36.834 -6 48.501 -18zM500 543.002v-543h-108v73c-40 -57.333 -93.667 -86 -161 -86c-50.667 0 -90 15.333 -118 46s-42 74 -42 130v380h118v-364c0 -54.667 28.667 -82 86 -82c20.667 0 39.5 4 56.5 12s33.833 21 50.5 39v395h118z" />
    <glyph glyph-name="uni01D7" unicode="&#x1d7;" horiz-adv-x="687" 
d="M301 917l75 127h105v-10l-102 -127h-78v10zM202 787c-11.333 11.333 -17 26.666 -17 45.999c0 20 5.66699 35.667 17 47s27 17 47 17s35.667 -5.66699 47 -17s17 -26.666 17 -45.999c0 -20.667 -5.5 -36.5 -16.5 -47.5s-26.833 -16.5 -47.5 -16.5
c-20 0 -35.667 5.66699 -47 17zM390 787c-11.333 11.333 -17 26.666 -17 45.999c0 20 5.66699 35.667 17 47s27 17 47 17s35.667 -5.66699 47 -17s17 -26.666 17 -45.999c0 -20.667 -5.5 -36.5 -16.5 -47.5s-26.833 -16.5 -47.5 -16.5c-20 0 -35.667 5.66699 -47 17zM148 56
c-46 46 -69 111 -69 195v473h120v-466c0 -109.333 48 -164 144 -164c96.667 0 145 54.667 145 164v466h120v-473c0 -84 -23.167 -149 -69.5 -195s-111.833 -69 -196.5 -69c-83.333 0 -148 23 -194 69z" />
    <glyph glyph-name="uni01D8" unicode="&#x1d8;" horiz-adv-x="578" 
d="M322 782h-78v10l75 127h105v-10zM141.5 642.5c-11.667 11.667 -17.5 27.501 -17.5 47.501c0 21.333 5.83301 37.833 17.5 49.5s27.834 17.5 48.501 17.5s36.834 -6 48.501 -18s17.5 -28 17.5 -48c0 -20.667 -5.83301 -36.834 -17.5 -48.501s-27.834 -17.5 -48.501 -17.5
s-36.834 5.83301 -48.501 17.5zM333.5 739.501c11.667 11.667 27.834 17.501 48.501 17.501s36.834 -6 48.501 -18s17.5 -28 17.5 -48c0 -20.667 -5.83301 -36.834 -17.5 -48.501s-27.834 -17.5 -48.501 -17.5s-36.834 5.83301 -48.501 17.5s-17.5 27.5 -17.5 47.5
c0 21.333 5.83301 37.833 17.5 49.5zM500 543.002v-543h-108v73c-40 -57.333 -93.667 -86 -161 -86c-50.667 0 -90 15.333 -118 46s-42 74 -42 130v380h118v-364c0 -54.667 28.667 -82 86 -82c20.667 0 39.5 4 56.5 12s33.833 21 50.5 39v395h118z" />
    <glyph glyph-name="uni01D9" unicode="&#x1d9;" horiz-adv-x="687" 
d="M289 912l-105 123v10h79l82 -73l81 73h76v-10l-105 -123h-108zM202 880c11.333 11.333 27 17 47 17s35.667 -5.66699 47 -17s17 -26.666 17 -45.999c0 -20.667 -5.5 -36.5 -16.5 -47.5s-26.833 -16.5 -47.5 -16.5c-20 0 -35.667 5.66699 -47 17s-17 26.666 -17 45.999
c0 20 5.66699 35.667 17 47zM390 880c11.333 11.333 27 17 47 17s35.667 -5.66699 47 -17s17 -26.666 17 -45.999c0 -20.667 -5.5 -36.5 -16.5 -47.5s-26.833 -16.5 -47.5 -16.5c-20 0 -35.667 5.66699 -47 17s-17 26.666 -17 45.999c0 20 5.66699 35.667 17 47zM608 724
v-473c0 -84 -23.167 -149 -69.5 -195s-111.833 -69 -196.5 -69c-83.333 0 -148 23 -194 69s-69 111 -69 195v473h120v-466c0 -109.333 48 -164 144 -164c96.667 0 145 54.667 145 164v466h120z" />
    <glyph glyph-name="uni01DA" unicode="&#x1da;" horiz-adv-x="578" 
d="M231 776l-104 139v10h83l78 -82l76 82h81v-10l-104 -139h-110zM141.5 642.5c-11.667 11.667 -17.5 27.501 -17.5 47.501c0 21.333 5.83301 37.833 17.5 49.5s27.834 17.5 48.501 17.5s36.834 -6 48.501 -18s17.5 -28 17.5 -48c0 -20.667 -5.83301 -36.834 -17.5 -48.501
s-27.834 -17.5 -48.501 -17.5s-36.834 5.83301 -48.501 17.5zM430.5 739.001c11.667 -12 17.5 -27.999 17.5 -47.999c0 -20.667 -5.83301 -36.834 -17.5 -48.501s-27.834 -17.5 -48.501 -17.5s-36.834 5.83301 -48.501 17.5s-17.5 27.5 -17.5 47.5
c0 21.333 5.83301 37.833 17.5 49.5s27.834 17.5 48.501 17.5s36.834 -6 48.501 -18zM500 543.002v-543h-108v73c-40 -57.333 -93.667 -86 -161 -86c-50.667 0 -90 15.333 -118 46s-42 74 -42 130v380h118v-364c0 -54.667 28.667 -82 86 -82c20.667 0 39.5 4 56.5 12
s33.833 21 50.5 39v395h118z" />
    <glyph glyph-name="uni01DB" unicode="&#x1db;" horiz-adv-x="687" 
d="M212 1034v10h105l69 -127v-10h-78zM202 787c-11.333 11.333 -17 26.666 -17 45.999c0 20 5.66699 35.667 17 47s27 17 47 17s35.667 -5.66699 47 -17s17 -26.666 17 -45.999c0 -20.667 -5.5 -36.5 -16.5 -47.5s-26.833 -16.5 -47.5 -16.5c-20 0 -35.667 5.66699 -47 17z
M390 787c-11.333 11.333 -17 26.666 -17 45.999c0 20 5.66699 35.667 17 47s27 17 47 17s35.667 -5.66699 47 -17s17 -26.666 17 -45.999c0 -20.667 -5.5 -36.5 -16.5 -47.5s-26.833 -16.5 -47.5 -16.5c-20 0 -35.667 5.66699 -47 17zM148 56c-46 46 -69 111 -69 195v473
h120v-466c0 -109.333 48 -164 144 -164c96.667 0 145 54.667 145 164v466h120v-473c0 -84 -23.167 -149 -69.5 -195s-111.833 -69 -196.5 -69c-83.333 0 -148 23 -194 69z" />
    <glyph glyph-name="uni01DC" unicode="&#x1dc;" horiz-adv-x="578" 
d="M251 782l-96 127v10h105l69 -127v-10h-78zM141.5 642.5c-11.667 11.667 -17.5 27.501 -17.5 47.501c0 21.333 5.83301 37.833 17.5 49.5s27.834 17.5 48.501 17.5s36.834 -6 48.501 -18s17.5 -28 17.5 -48c0 -20.667 -5.83301 -36.834 -17.5 -48.501
s-27.834 -17.5 -48.501 -17.5s-36.834 5.83301 -48.501 17.5zM333.5 642.501c-11.667 11.667 -17.5 27.501 -17.5 47.501c0 21.333 5.83301 37.833 17.5 49.5s27.834 17.5 48.501 17.5s36.834 -6 48.501 -18s17.5 -28 17.5 -48c0 -20.667 -5.83301 -36.834 -17.5 -48.501
s-27.834 -17.5 -48.501 -17.5s-36.834 5.83301 -48.501 17.5zM500 543.002v-543h-108v73c-40 -57.333 -93.667 -86 -161 -86c-50.667 0 -90 15.333 -118 46s-42 74 -42 130v380h118v-364c0 -54.667 28.667 -82 86 -82c20.667 0 39.5 4 56.5 12s33.833 21 50.5 39v395h118z
" />
    <glyph glyph-name="uni01DD" unicode="&#x1dd;" horiz-adv-x="544" 
d="M436 480.5c44 -49.667 65.998 -119.167 65.998 -208.5c0 -90.667 -20.667 -160.834 -62 -210.501s-99.333 -74.5 -174 -74.5c-72 0 -128 23 -168 69s-60 110.333 -60 193c0 20.667 1.66699 40.334 5 59.001h339c-9.33301 93.333 -57.666 140 -144.999 140
c-47.333 0 -91.666 -11.667 -132.999 -35l-43 89c24.667 16.667 53.5 29.667 86.5 39s66.833 14 101.5 14c80.667 0 143 -24.833 187 -74.5zM381.998 225h-226.001c1.33301 -42.667 11.833 -75.667 31.5 -99s46.834 -35 81.501 -35c66 0 103.667 44.667 113 134z" />
    <glyph glyph-name="uni01DE" unicode="&#x1de;" horiz-adv-x="669" 
d="M492 957h-316v83h316v-83zM184.5 804.5c-11.667 11.667 -17.5 27.501 -17.5 47.501c0 21.333 5.83301 37.833 17.5 49.5s27.834 17.5 48.501 17.5s36.834 -6 48.501 -18s17.5 -28 17.5 -48c0 -20.667 -5.83301 -36.834 -17.5 -48.501s-27.834 -17.5 -48.501 -17.5
s-36.834 5.83301 -48.501 17.5zM484.5 901.001c11.667 -12 17.5 -27.999 17.5 -47.999c0 -20.667 -5.83301 -36.834 -17.5 -48.501s-27.834 -17.5 -48.501 -17.5s-36.834 5.83301 -48.501 17.5s-17.5 27.5 -17.5 47.5c0 21.333 5.83301 37.833 17.5 49.5
s27.834 17.5 48.501 17.5s36.834 -6 48.501 -18zM470 168.002h-272l-52 -168h-126l249 724h131l249 -724h-127zM437 273.002l-104 333l-103 -333h207z" />
    <glyph glyph-name="uni01DF" unicode="&#x1df;" horiz-adv-x="534" 
d="M414 795h-316v83h316v-83zM111.5 642.5c-11.667 11.667 -17.5 27.501 -17.5 47.501c0 21.333 5.83301 37.833 17.5 49.5s27.834 17.5 48.501 17.5s36.834 -6 48.501 -18s17.5 -28 17.5 -48c0 -20.667 -5.83301 -36.834 -17.5 -48.501s-27.834 -17.5 -48.501 -17.5
s-36.834 5.83301 -48.501 17.5zM400.5 739.001c11.667 -12 17.5 -27.999 17.5 -47.999c0 -20.667 -5.83301 -36.834 -17.5 -48.501s-27.834 -17.5 -48.501 -17.5s-36.834 5.83301 -48.501 17.5s-17.5 27.5 -17.5 47.5c0 21.333 5.83301 37.833 17.5 49.5
s27.834 17.5 48.501 17.5s36.834 -6 48.501 -18zM408.5 510.002c36.333 -30.667 54.502 -74.333 54.502 -131v-379h-106v76c-34 -58 -87.667 -87 -161 -87c-52.667 0 -93.334 14.333 -122.001 43s-43 68.667 -43 120c0 64.667 25.167 112.167 75.5 142.5
s130.166 45.833 239.499 46.5v25c0 56 -36.333 84 -109 84c-42.667 0 -85 -9.33301 -127 -28l-30 92c58 28 117 42 177 42c64.667 0 115.167 -15.333 151.5 -46zM346.002 146.003l0.000976562 114c-70 -1.33301 -121 -9.83301 -153 -25.5s-48 -40.167 -48 -73.5
c0 -47.333 26.667 -71 80 -71c47.333 0 87.666 18.667 120.999 56z" />
    <glyph glyph-name="uni01E0" unicode="&#x1e0;" horiz-adv-x="669" 
d="M492 957h-316v83h316v-83zM280 913.5c12.667 12.333 30.667 18.5 54 18.5c22.667 0 40.5 -6.33301 53.5 -19s19.5 -29.667 19.5 -51c0 -22.667 -6.33301 -40.167 -19 -52.5s-30.667 -18.5 -54 -18.5c-22.667 0 -40.5 6.33301 -53.5 19s-19.5 29.667 -19.5 51
c0 22.667 6.33301 40.167 19 52.5zM470 168h-272l-52 -168h-126l249 724h131l249 -724h-127zM437 273l-104 333l-103 -333h207z" />
    <glyph glyph-name="uni01E1" unicode="&#x1e1;" horiz-adv-x="534" 
d="M408.5 510c36.333 -30.667 54.502 -74.333 54.502 -131v-379h-106v76c-34 -58 -87.667 -87 -161 -87c-52.667 0 -93.334 14.333 -122.001 43s-43 68.667 -43 120c0 64.667 25.167 112.167 75.5 142.5s130.166 45.833 239.499 46.5v25c0 56 -36.333 84 -109 84
c-42.667 0 -85 -9.33301 -127 -28l-30 92c58 28 117 42 177 42c64.667 0 115.167 -15.333 151.5 -46zM346.002 146.001l0.000976562 114c-70 -1.33301 -121 -9.83301 -153 -25.5s-48 -40.167 -48 -73.5c0 -47.333 26.667 -71 80 -71c47.333 0 87.666 18.667 120.999 56z
M202.503 640.001c-13 12.667 -19.5 29.667 -19.5 51c0 22.667 6.33301 40.167 19 52.5s30.667 18.5 54 18.5c22.667 0 40.5 -6.33301 53.5 -19s19.5 -29.667 19.5 -51c0 -22.667 -6.33301 -40.167 -19 -52.5s-30.667 -18.5 -54 -18.5c-22.667 0 -40.5 6.33301 -53.5 19z
M98.0029 884.001h316v-83h-316v83z" />
    <glyph glyph-name="uni01E2" unicode="&#x1e2;" horiz-adv-x="922" 
d="M655 807h-316v83h316v-83zM888 107v-107h-441v159h-243l-81 -159h-128l376 724h504v-107h-312v-193h227v-108h-227v-209h325zM447 264v373l-190 -373h190z" />
    <glyph glyph-name="uni01E3" unicode="&#x1e3;" horiz-adv-x="828" 
d="M785 235h-332c9.33301 -93.333 56.666 -140 141.999 -140c42 0 85.333 11.667 130 35l42 -89c-24.667 -16.667 -53.167 -29.667 -85.5 -39s-65.166 -14 -98.499 -14c-45.333 0 -85 8.5 -119 25.5s-61.333 42.167 -82 75.5c-28.667 -34.667 -58.167 -60 -88.5 -76
s-64.166 -24 -101.499 -24c-50.667 0 -90.167 14 -118.5 42s-42.5 67.333 -42.5 118c0 63.333 24.667 109.833 74 139.5s127.333 44.834 234 45.501v32c0 56 -35.333 84 -106 84c-40.667 0 -81.667 -9.33301 -123 -28l-30 92c58 28 116 42 174 42c36 0 67 -6 93 -18
s46.333 -29.667 61 -53c18 22.667 40.333 40.167 67 52.5s56.667 18.5 90 18.5c71.333 0 126.666 -22.833 165.999 -68.5s59 -110.167 59 -193.5c0 -20.667 -1.66699 -40.334 -5 -59.001zM453 318h218.999c-0.666992 42.667 -10.667 75.667 -30 99s-45.666 35 -78.999 35
c-64 0 -100.667 -44.667 -110 -134zM350.999 160c-7.33301 25.333 -11.999 56.333 -13.999 93c-66.667 -1.33301 -115.334 -9.5 -146.001 -24.5s-46 -38.5 -46 -70.5c0 -45.333 25.667 -68 77 -68c48 0 91 23.333 129 70zM268 720h316v-83h-316v83z" />
    <glyph glyph-name="uni01E4" unicode="&#x1e4;" horiz-adv-x="668" 
d="M674 161l-70 -0.00292969v-119c-26.667 -17.333 -58.834 -30.833 -96.501 -40.5s-77.5 -14.5 -119.5 -14.5c-106.667 0 -189.167 32.833 -247.5 98.5s-87.5 157.834 -87.5 276.501s29.167 210.834 87.5 276.501s140.833 98.5 247.5 98.5c40.667 0 79 -4.66699 115 -14
s66.667 -22.666 92 -39.999l-36 -96c-60 28 -117.667 42 -173 42c-139.333 0 -209 -89 -209 -267c0 -178.667 70.333 -268 211 -268c32.667 0 65.334 4.33301 98.001 13v55h-125v87h125v58h-125v98h243v-156h70v-88z" />
    <glyph glyph-name="uni01E5" unicode="&#x1e5;" horiz-adv-x="581" 
d="M573 -64h-80.002c-13.333 -50 -40.166 -88.5 -80.499 -115.5s-91.833 -40.5 -154.5 -40.5c-30.667 0 -61.167 3.33301 -91.5 10s-57.166 16 -80.499 28l31 87c42.667 -19.333 86 -29 130 -29c62 0 103.333 20 124 60h-347v60h361v11v96c-34 -48 -81 -72 -141 -72
c-63.333 0 -112.5 23.167 -147.5 69.5s-52.5 110.833 -52.5 193.5c0 82 18 146.167 54 192.5s86 69.5 150 69.5c31.333 0 59.833 -6.5 85.5 -19.5s46.5 -31.167 62.5 -54.5v61h107v-528v-19h70v-60zM335.998 154c16.667 8 33.001 20.999 49.001 38.999v206
c-14 16 -30.5 28.333 -49.5 37s-38.833 13 -59.5 13c-36.667 0 -64.334 -12.833 -83.001 -38.5s-28 -63.167 -28 -112.5c0 -51.333 9.66699 -90.166 29 -116.499s48.333 -39.5 87 -39.5c20 0 38.333 4 55 12z" />
    <glyph glyph-name="Gcaron" unicode="&#x1e6;" horiz-adv-x="668" 
d="M302 781l-117 133v12h90l87 -81l87 81h86v-12l-117 -133h-116zM604 405l0.000976562 -363.003c-26.667 -17.333 -58.834 -30.833 -96.501 -40.5s-77.5 -14.5 -119.5 -14.5c-106.667 0 -189.167 32.833 -247.5 98.5s-87.5 157.834 -87.5 276.501
s29.167 210.834 87.5 276.501s140.833 98.5 247.5 98.5c40.667 0 79 -4.66699 115 -14s66.667 -22.666 92 -39.999l-36 -96c-60 28 -117.667 42 -173 42c-139.333 0 -209 -89 -209 -267c0 -178.667 70.333 -268 211 -268c31.333 0 63.333 4.33301 96 13v191h-123v107h243z
" />
    <glyph glyph-name="gcaron" unicode="&#x1e7;" horiz-adv-x="581" 
d="M503 543l-0.00195312 -527.999c0 -74.667 -21.333 -132.5 -64 -173.5s-103 -61.5 -181 -61.5c-30.667 0 -61.167 3.33301 -91.5 10s-57.166 16 -80.499 28l34 95c42.667 -19.333 85 -29 127 -29c92 0 138 43.667 138 131v73c-33.333 -47.333 -80.333 -71 -141 -71
c-63.333 0 -112.5 23.667 -147.5 71s-52.5 113.666 -52.5 198.999s17.833 151.5 53.5 198.5s85.834 70.5 150.501 70.5c31.333 0 59.833 -6.5 85.5 -19.5s46.5 -31.167 62.5 -54.5v61h107zM335.998 139.501c16.667 8.33301 33 21.167 49 38.5v221
c-14 16 -30.5 28.333 -49.5 37s-38.833 13 -59.5 13c-74 0 -111 -53 -111 -159c0 -108.667 38.667 -163 116 -163c20 0 38.333 4.16699 55 12.5zM443.998 784.002v-10l-102 -159h-110l-102 159v10h84l75 -95l75 95h80z" />
    <glyph glyph-name="uni01E8" unicode="&#x1e8;" horiz-adv-x="630" 
d="M270 781l-117 133v12h90l87 -81l87 81h86v-12l-117 -133h-116zM286 310l-82 -101v-209h-120v724h120v-360l276 360h143l-260 -320l276 -404h-143z" />
    <glyph glyph-name="uni01E9" unicode="&#x1e9;" horiz-adv-x="557" 
d="M79 827l-117 133v12h90l87 -81l87 81h86v-12l-117 -133h-116zM259 227l-63 -75v-152h-118v770h118v-470l198 243h137l-196 -228l209 -315h-136z" />
    <glyph glyph-name="uni01EA" unicode="&#x1ea;" horiz-adv-x="715" 
d="M392 -106c0 -27.333 15.332 -41 45.999 -41c18.667 0 38.667 5 60 15l27 -64c-14.667 -9.33301 -32 -16.666 -52 -21.999s-40.333 -8 -61 -8c-37.333 0 -66.333 8.66699 -87 26s-31 41.666 -31 72.999c0 42.667 19.667 80.667 59 114
c-97.333 1.33301 -171.666 33.5 -222.999 96.5s-77 155.833 -77 278.5c0 124 26 217.5 78 280.5s127.333 94.5 226 94.5s174.167 -31.5 226.5 -94.5s78.5 -156.5 78.5 -280.5c0 -90 -14.167 -164 -42.5 -222s-71.5 -101.667 -129.5 -131c-65.333 -32.667 -98 -71 -98 -115z
M356.999 94c120.667 0 181 89.333 181 268s-60.333 268 -181 268c-120 0 -180 -89.333 -180 -268s60 -268 180 -268z" />
    <glyph glyph-name="uni01EB" unicode="&#x1eb;" horiz-adv-x="561" 
d="M294 -106c0 -27.333 15.333 -40.998 46 -40.998c19.333 0 39 5 59 15l28 -64c-14.667 -9.33301 -32 -16.666 -52 -21.999s-40.333 -8 -61 -8c-37.333 0 -66.333 8.66699 -87 26s-31 41.666 -31 72.999c0 43.333 20 81.666 60 114.999
c-68.667 5.33301 -121.167 31.666 -157.5 78.999s-54.5 115.333 -54.5 204c0 93.333 20.5 164.166 61.5 212.499s99.5 72.5 175.5 72.5s134.333 -24.167 175 -72.5s61 -119.166 61 -212.499c0 -129.333 -40.333 -215 -121 -257c-68 -34.667 -102 -74.667 -102 -120z
M194 137.002c19.333 -30 48 -45 86 -45c38.667 0 67.667 15 87 45s29 74.667 29 134c0 119.333 -38.333 179 -115 179c-77.333 0 -116 -59.667 -116 -179c0 -59.333 9.66699 -104 29 -134z" />
    <glyph glyph-name="uni01EC" unicode="&#x1ec;" horiz-adv-x="715" 
d="M515 807h-316v83h316v-83zM392 -106c0 -27.333 15.332 -41 45.999 -41c18.667 0 38.667 5 60 15l27 -64c-14.667 -9.33301 -32 -16.666 -52 -21.999s-40.333 -8 -61 -8c-37.333 0 -66.333 8.66699 -87 26s-31 41.666 -31 72.999c0 42.667 19.667 80.667 59 114
c-97.333 1.33301 -171.666 33.5 -222.999 96.5s-77 155.833 -77 278.5c0 124 26 217.5 78 280.5s127.333 94.5 226 94.5s174.167 -31.5 226.5 -94.5s78.5 -156.5 78.5 -280.5c0 -90 -14.167 -164 -42.5 -222s-71.5 -101.667 -129.5 -131c-65.333 -32.667 -98 -71 -98 -115z
M356.999 94c120.667 0 181 89.333 181 268s-60.333 268 -181 268c-120 0 -180 -89.333 -180 -268s60 -268 180 -268z" />
    <glyph glyph-name="uni01ED" unicode="&#x1ed;" horiz-adv-x="561" 
d="M294 -106c0 -27.333 15.333 -40.998 46 -40.998c19.333 0 39 5 59 15l28 -64c-14.667 -9.33301 -32 -16.666 -52 -21.999s-40.333 -8 -61 -8c-37.333 0 -66.333 8.66699 -87 26s-31 41.666 -31 72.999c0 43.333 20 81.666 60 114.999
c-68.667 5.33301 -121.167 31.666 -157.5 78.999s-54.5 115.333 -54.5 204c0 93.333 20.5 164.166 61.5 212.499s99.5 72.5 175.5 72.5s134.333 -24.167 175 -72.5s61 -119.166 61 -212.499c0 -129.333 -40.333 -215 -121 -257c-68 -34.667 -102 -74.667 -102 -120z
M194 137.002c19.333 -30 48 -45 86 -45c38.667 0 67.667 15 87 45s29 74.667 29 134c0 119.333 -38.333 179 -115 179c-77.333 0 -116 -59.667 -116 -179c0 -59.333 9.66699 -104 29 -134zM123 720.002h316v-83h-316v83z" />
    <glyph glyph-name="uni01EE" unicode="&#x1ee;" horiz-adv-x="588" 
d="M209 781l-117 133v12h90l87 -81l87 81h86v-12l-117 -133h-116zM546 225c0 -52 -13.166 -95.832 -39.499 -131.499s-61.833 -62.334 -106.5 -80.001s-94.667 -26.5 -150 -26.5c-43.333 0 -85.5 4.5 -126.5 13.5s-78.167 22.833 -111.5 41.5l44 97
c64 -28.667 128 -43 192 -43c55.333 0 98.166 11.333 128.499 34s45.5 55 45.5 97c0 45.333 -18.167 76.833 -54.5 94.5s-89.833 26.5 -160.5 26.5h-42v90l189 180h-307v106h454v-108l-190 -180c156.667 -16 235 -86.333 235 -211z" />
    <glyph glyph-name="uni01EF" unicode="&#x1ef;" horiz-adv-x="503" 
d="M413.5 164c39 -32.667 58.5 -83.001 58.5 -151.001c0 -47.333 -11.167 -88.666 -33.5 -123.999s-53.5 -62.333 -93.5 -81s-86 -28 -138 -28c-78.667 0 -144 13.667 -196 41l41 92c48 -22 96.333 -33 145 -33c48 0 85.667 11.5 113 34.5s41 56.5 41 100.5
c0 84.667 -59.667 127 -179 127h-48v86l175 215h-264v100h398v-101l-181 -218c68.667 -7.33301 122.5 -27.333 161.5 -60zM386 783.999v-10l-102 -159h-110l-102 159v10h84l75 -95l75 95h80z" />
    <glyph glyph-name="uni01F0" unicode="&#x1f0;" horiz-adv-x="278" 
d="M-61 -125c38.667 13.333 67.833 26.835 87.5 40.502s33.5 30.5 41.5 50.5s12 46.333 12 79v498h118v-500c0 -50.667 -6.5 -91.834 -19.5 -123.501s-35.167 -58.334 -66.5 -80.001s-76 -42.167 -134 -61.5zM295.999 784.002v-10l-102 -159h-110l-102 159v10h84l75 -95
l75 95h80z" />
    <glyph glyph-name="uni01F1" unicode="&#x1f1;" horiz-adv-x="1217" 
d="M555 633c56 -60.667 83.999 -150.667 83.999 -270c0 -120 -28.167 -210.5 -84.5 -271.5s-138.166 -91.5 -245.499 -91.5h-225v724h226c107.333 0 189 -30.333 245 -91zM462.999 171.5c34.667 43 51.999 106.833 51.999 191.5c0 169.333 -69.333 254 -208 254h-103v-510
h104c68.667 0 120.334 21.5 155.001 64.5zM1178 106v-106h-478v107l336 511h-323v106h460v-106l-337 -512h342z" />
    <glyph glyph-name="uni01F2" unicode="&#x1f2;" horiz-adv-x="1143" 
d="M555 633c56 -60.667 83.999 -150.667 83.999 -270c0 -120 -28.167 -210.5 -84.5 -271.5s-138.166 -91.5 -245.499 -91.5h-225v724h226c107.333 0 189 -30.333 245 -91zM462.999 171.5c34.667 43 51.999 106.833 51.999 191.5c0 169.333 -69.333 254 -208 254h-103v-510
h104c68.667 0 120.334 21.5 155.001 64.5zM1108 100v-100h-402v100l264 343h-255v100h388v-100l-265 -343h270z" />
    <glyph glyph-name="uni01F3" unicode="&#x1f3;" horiz-adv-x="1040" 
d="M501 770l0.000976562 -770.001h-107v76c-35.333 -59.333 -86 -89 -152 -89c-62.667 0 -111.334 25 -146.001 75s-52 120 -52 210s17.667 159.833 53 209.5s85 74.5 149 74.5c28 0 53.833 -5.16699 77.5 -15.5s43.5 -25.166 59.5 -44.499v274h118zM333.501 109.999
c16.333 8 32.833 21 49.5 39v251c-14 16 -30.5 28.333 -49.5 37s-38.833 13 -59.5 13c-72.667 0 -109 -58 -109 -174c0 -118.667 38 -178 114 -178c20 0 38.167 4 54.5 12zM1006 99.999v-100h-402v100l264 343h-255v100h388v-100l-265 -343h270z" />
    <glyph glyph-name="uni01F4" unicode="&#x1f4;" horiz-adv-x="668" 
d="M381 781h-100v12l147 133h135v-12zM604 405l0.000976562 -363.003c-26.667 -17.333 -58.834 -30.833 -96.501 -40.5s-77.5 -14.5 -119.5 -14.5c-106.667 0 -189.167 32.833 -247.5 98.5s-87.5 157.834 -87.5 276.501s29.167 210.834 87.5 276.501
s140.833 98.5 247.5 98.5c40.667 0 79 -4.66699 115 -14s66.667 -22.666 92 -39.999l-36 -96c-60 28 -117.667 42 -173 42c-139.333 0 -209 -89 -209 -267c0 -178.667 70.333 -268 211 -268c31.333 0 63.333 4.33301 96 13v191h-123v107h243z" />
    <glyph glyph-name="uni01F5" unicode="&#x1f5;" horiz-adv-x="581" 
d="M503 543l-0.00195312 -527.999c0 -74.667 -21.333 -132.5 -64 -173.5s-103 -61.5 -181 -61.5c-30.667 0 -61.167 3.33301 -91.5 10s-57.166 16 -80.499 28l34 95c42.667 -19.333 85 -29 127 -29c92 0 138 43.667 138 131v73c-33.333 -47.333 -80.333 -71 -141 -71
c-63.333 0 -112.5 23.667 -147.5 71s-52.5 113.666 -52.5 198.999s17.833 151.5 53.5 198.5s85.834 70.5 150.501 70.5c31.333 0 59.833 -6.5 85.5 -19.5s46.5 -31.167 62.5 -54.5v61h107zM335.998 139.501c16.667 8.33301 33 21.167 49 38.5v221
c-14 16 -30.5 28.333 -49.5 37s-38.833 13 -59.5 13c-74 0 -111 -53 -111 -159c0 -108.667 38.667 -163 116 -163c20 0 38.333 4.16699 55 12.5zM219.998 625.002l97 159h125v-10l-132 -159h-90v10z" />
    <glyph glyph-name="uni01F6" unicode="&#x1f6;" horiz-adv-x="1013" 
d="M935 274c0 -92 -19.5 -162.832 -58.5 -212.499s-94.5 -74.5 -166.5 -74.5c-66.667 0 -118.5 18 -155.5 54s-55.5 86.333 -55.5 151v122h-295v-314h-120v724h120v-303h295v303h120v-517c0 -76.667 30.667 -115 92 -115c36 0 62.667 14.667 80 44s26 74.666 26 135.999
c0 50.667 -2.66699 95 -8 133s-15.333 84 -30 138h120c24 -90 36 -179.667 36 -269z" />
    <glyph glyph-name="uni01F7" unicode="&#x1f7;" horiz-adv-x="578" 
d="M512.5 676c33.667 -40.667 50.499 -98 50.499 -172c0 -47.333 -7.66699 -89 -23 -125s-40.166 -71 -74.499 -105s-82.166 -71.667 -143.499 -113l-118 -80v-288h-120v931h115v-67c22 26 47.667 45.833 77 59.5s60.666 20.5 93.999 20.5
c61.333 0 108.833 -20.333 142.5 -61zM409.999 379.5c19.333 31 29 68.5 29 112.5c0 90 -34.333 135 -103 135c-46 0 -90 -21 -132 -63v-353l98 67c52.667 36.667 88.667 70.5 108 101.5z" />
    <glyph glyph-name="uni01F8" unicode="&#x1f8;" horiz-adv-x="725" 
d="M340 781l-173 133v12h135l138 -133v-12h-100zM641 724v-724h-115l-324 521v-521h-118v724h115l324 -520v520h118z" />
    <glyph glyph-name="uni01F9" unicode="&#x1f9;" horiz-adv-x="586" 
d="M470 509.5c28.667 -31 43 -74.5 43 -130.5v-379h-118v364c0 54 -29.667 81 -89 81c-39.333 0 -76 -13.667 -110 -41v-404h-118v543h107v-66c44 52.667 98.667 79 164 79c52 0 92.333 -15.5 121 -46.5zM153 774v10h125l89 -159v-10h-90z" />
    <glyph glyph-name="Aringacute" unicode="&#x1fa;" horiz-adv-x="669" 
d="M362 909h-101v12l138 125h135v-12zM470 168h-272l-52 -168h-126l229 667c-30.667 20.667 -46 52 -46 94c0 36.667 11.5 65.167 34.5 85.5s55.167 30.5 96.5 30.5s73.5 -10.167 96.5 -30.5s34.5 -48.833 34.5 -85.5c0 -42 -15.333 -73.333 -46 -94l230 -667h-127zM279 761
c0 -37.333 18.333 -56 55 -56s55 18.667 55 56s-18.333 56 -55 56s-55 -18.667 -55 -56zM437 273l-104 333l-103 -333h207z" />
    <glyph glyph-name="aringacute" unicode="&#x1fb;" horiz-adv-x="534" 
d="M292 868h-78v10l75 127h105v-10zM160.5 631.5c-23 20.333 -34.5 48.833 -34.5 85.5s11.333 65.167 34 85.5s54.667 30.5 96 30.5s73.333 -10.167 96 -30.5s34 -48.833 34 -85.5s-11.5 -65.167 -34.5 -85.5s-54.833 -30.5 -95.5 -30.5s-72.5 10.167 -95.5 30.5zM201 717
c0 -38 18.333 -57 55 -57s55 19 55 57s-18.333 57 -55 57s-55 -19 -55 -57zM408.5 510c36.333 -30.667 54.502 -74.333 54.502 -131v-379h-106v76c-34 -58 -87.667 -87 -161 -87c-52.667 0 -93.334 14.333 -122.001 43s-43 68.667 -43 120
c0 64.667 25.167 112.167 75.5 142.5s130.166 45.833 239.499 46.5v25c0 56 -36.333 84 -109 84c-42.667 0 -85 -9.33301 -127 -28l-30 92c58 28 117 42 177 42c64.667 0 115.167 -15.333 151.5 -46zM346.002 146.001l0.000976562 114
c-70 -1.33301 -121 -9.83301 -153 -25.5s-48 -40.167 -48 -73.5c0 -47.333 26.667 -71 80 -71c47.333 0 87.666 18.667 120.999 56z" />
    <glyph glyph-name="AEacute" unicode="&#x1fc;" horiz-adv-x="922" 
d="M518 781h-100v12l147 133h135v-12zM888 107v-107h-441v159h-243l-81 -159h-128l376 724h504v-107h-312v-193h227v-108h-227v-209h325zM447 264v373l-190 -373h190z" />
    </font>
</defs>
</svg>
